<?xml version="1.0" encoding="utf-8" standalone="no"?>
<!DOCTYPE svg PUBLIC "-//W3C//DTD SVG 1.1//EN"
  "http://www.w3.org/Graphics/SVG/1.1/DTD/svg11.dtd">
<svg xmlns:xlink="http://www.w3.org/1999/xlink" width="637.693688pt" height="399.407438pt" viewBox="0 0 637.693688 399.407438" xmlns="http://www.w3.org/2000/svg" version="1.1">
 <metadata>
  <rdf:RDF xmlns:dc="http://purl.org/dc/elements/1.1/" xmlns:cc="http://creativecommons.org/ns#" xmlns:rdf="http://www.w3.org/1999/02/22-rdf-syntax-ns#">
   <cc:Work>
    <dc:type rdf:resource="http://purl.org/dc/dcmitype/StillImage"/>
    <dc:date>2023-05-08T14:11:59.207275</dc:date>
    <dc:format>image/svg+xml</dc:format>
    <dc:creator>
     <cc:Agent>
      <dc:title>Matplotlib v3.7.1, https://matplotlib.org/</dc:title>
     </cc:Agent>
    </dc:creator>
   </cc:Work>
  </rdf:RDF>
 </metadata>
 <defs>
  <style type="text/css">*{stroke-linejoin: round; stroke-linecap: butt}</style>
 </defs>
 <g id="figure_1">
  <g id="patch_1">
   <path d="M 0 399.407438 
L 637.693688 399.407438 
L 637.693688 0 
L 0 0 
L 0 399.407438 
z
" style="fill: none"/>
  </g>
  <g id="axes_1">
   <g id="patch_2">
    <path d="M 72.493688 339.84 
L 630.493687 339.84 
L 630.493687 7.2 
L 72.493688 7.2 
L 72.493688 339.84 
z
" style="fill: none"/>
   </g>
   <g id="matplotlib.axis_1">
    <g id="xtick_1">
     <g id="line2d_1">
      <defs>
       <path id="m4fe1d3ff9b" d="M 0 0 
L 0 4.8 
" style="stroke: #262626; stroke-width: 2.5"/>
      </defs>
      <g>
       <use xlink:href="#m4fe1d3ff9b" x="118.993688" y="339.84" style="fill: #262626; stroke: #262626; stroke-width: 2.5"/>
      </g>
     </g>
     <g id="text_1">
      <!-- 0 -->
      <g style="fill: #262626" transform="translate(112.694813 363.184906) scale(0.198 -0.198)">
       <defs>
        <path id="DejaVuSans-30" d="M 2034 4250 
Q 1547 4250 1301 3770 
Q 1056 3291 1056 2328 
Q 1056 1369 1301 889 
Q 1547 409 2034 409 
Q 2525 409 2770 889 
Q 3016 1369 3016 2328 
Q 3016 3291 2770 3770 
Q 2525 4250 2034 4250 
z
M 2034 4750 
Q 2819 4750 3233 4129 
Q 3647 3509 3647 2328 
Q 3647 1150 3233 529 
Q 2819 -91 2034 -91 
Q 1250 -91 836 529 
Q 422 1150 422 2328 
Q 422 3509 836 4129 
Q 1250 4750 2034 4750 
z
" transform="scale(0.015625)"/>
       </defs>
       <use xlink:href="#DejaVuSans-30"/>
      </g>
     </g>
    </g>
    <g id="xtick_2">
     <g id="line2d_2">
      <g>
       <use xlink:href="#m4fe1d3ff9b" x="211.993688" y="339.84" style="fill: #262626; stroke: #262626; stroke-width: 2.5"/>
      </g>
     </g>
     <g id="text_2">
      <!-- 1 -->
      <g style="fill: #262626" transform="translate(205.694813 363.184906) scale(0.198 -0.198)">
       <defs>
        <path id="DejaVuSans-31" d="M 794 531 
L 1825 531 
L 1825 4091 
L 703 3866 
L 703 4441 
L 1819 4666 
L 2450 4666 
L 2450 531 
L 3481 531 
L 3481 0 
L 794 0 
L 794 531 
z
" transform="scale(0.015625)"/>
       </defs>
       <use xlink:href="#DejaVuSans-31"/>
      </g>
     </g>
    </g>
    <g id="xtick_3">
     <g id="line2d_3">
      <g>
       <use xlink:href="#m4fe1d3ff9b" x="304.993688" y="339.84" style="fill: #262626; stroke: #262626; stroke-width: 2.5"/>
      </g>
     </g>
     <g id="text_3">
      <!-- 6 -->
      <g style="fill: #262626" transform="translate(298.694813 363.184906) scale(0.198 -0.198)">
       <defs>
        <path id="DejaVuSans-36" d="M 2113 2584 
Q 1688 2584 1439 2293 
Q 1191 2003 1191 1497 
Q 1191 994 1439 701 
Q 1688 409 2113 409 
Q 2538 409 2786 701 
Q 3034 994 3034 1497 
Q 3034 2003 2786 2293 
Q 2538 2584 2113 2584 
z
M 3366 4563 
L 3366 3988 
Q 3128 4100 2886 4159 
Q 2644 4219 2406 4219 
Q 1781 4219 1451 3797 
Q 1122 3375 1075 2522 
Q 1259 2794 1537 2939 
Q 1816 3084 2150 3084 
Q 2853 3084 3261 2657 
Q 3669 2231 3669 1497 
Q 3669 778 3244 343 
Q 2819 -91 2113 -91 
Q 1303 -91 875 529 
Q 447 1150 447 2328 
Q 447 3434 972 4092 
Q 1497 4750 2381 4750 
Q 2619 4750 2861 4703 
Q 3103 4656 3366 4563 
z
" transform="scale(0.015625)"/>
       </defs>
       <use xlink:href="#DejaVuSans-36"/>
      </g>
     </g>
    </g>
    <g id="xtick_4">
     <g id="line2d_4">
      <g>
       <use xlink:href="#m4fe1d3ff9b" x="397.993688" y="339.84" style="fill: #262626; stroke: #262626; stroke-width: 2.5"/>
      </g>
     </g>
     <g id="text_4">
      <!-- 9 -->
      <g style="fill: #262626" transform="translate(391.694813 363.184906) scale(0.198 -0.198)">
       <defs>
        <path id="DejaVuSans-39" d="M 703 97 
L 703 672 
Q 941 559 1184 500 
Q 1428 441 1663 441 
Q 2288 441 2617 861 
Q 2947 1281 2994 2138 
Q 2813 1869 2534 1725 
Q 2256 1581 1919 1581 
Q 1219 1581 811 2004 
Q 403 2428 403 3163 
Q 403 3881 828 4315 
Q 1253 4750 1959 4750 
Q 2769 4750 3195 4129 
Q 3622 3509 3622 2328 
Q 3622 1225 3098 567 
Q 2575 -91 1691 -91 
Q 1453 -91 1209 -44 
Q 966 3 703 97 
z
M 1959 2075 
Q 2384 2075 2632 2365 
Q 2881 2656 2881 3163 
Q 2881 3666 2632 3958 
Q 2384 4250 1959 4250 
Q 1534 4250 1286 3958 
Q 1038 3666 1038 3163 
Q 1038 2656 1286 2365 
Q 1534 2075 1959 2075 
z
" transform="scale(0.015625)"/>
       </defs>
       <use xlink:href="#DejaVuSans-39"/>
      </g>
     </g>
    </g>
    <g id="xtick_5">
     <g id="line2d_5">
      <g>
       <use xlink:href="#m4fe1d3ff9b" x="490.993688" y="339.84" style="fill: #262626; stroke: #262626; stroke-width: 2.5"/>
      </g>
     </g>
     <g id="text_5">
      <!-- 10 -->
      <g style="fill: #262626" transform="translate(478.395938 363.184906) scale(0.198 -0.198)">
       <use xlink:href="#DejaVuSans-31"/>
       <use xlink:href="#DejaVuSans-30" x="63.623047"/>
      </g>
     </g>
    </g>
    <g id="xtick_6">
     <g id="line2d_6">
      <g>
       <use xlink:href="#m4fe1d3ff9b" x="583.993687" y="339.84" style="fill: #262626; stroke: #262626; stroke-width: 2.5"/>
      </g>
     </g>
     <g id="text_6">
      <!-- 11 -->
      <g style="fill: #262626" transform="translate(571.395937 363.184906) scale(0.198 -0.198)">
       <use xlink:href="#DejaVuSans-31"/>
       <use xlink:href="#DejaVuSans-31" x="63.623047"/>
      </g>
     </g>
    </g>
    <g id="text_7">
     <!-- cluster -->
     <g style="fill: #262626" transform="translate(314.76525 387.715313) scale(0.216 -0.216)">
      <defs>
       <path id="DejaVuSans-63" d="M 3122 3366 
L 3122 2828 
Q 2878 2963 2633 3030 
Q 2388 3097 2138 3097 
Q 1578 3097 1268 2742 
Q 959 2388 959 1747 
Q 959 1106 1268 751 
Q 1578 397 2138 397 
Q 2388 397 2633 464 
Q 2878 531 3122 666 
L 3122 134 
Q 2881 22 2623 -34 
Q 2366 -91 2075 -91 
Q 1284 -91 818 406 
Q 353 903 353 1747 
Q 353 2603 823 3093 
Q 1294 3584 2113 3584 
Q 2378 3584 2631 3529 
Q 2884 3475 3122 3366 
z
" transform="scale(0.015625)"/>
       <path id="DejaVuSans-6c" d="M 603 4863 
L 1178 4863 
L 1178 0 
L 603 0 
L 603 4863 
z
" transform="scale(0.015625)"/>
       <path id="DejaVuSans-75" d="M 544 1381 
L 544 3500 
L 1119 3500 
L 1119 1403 
Q 1119 906 1312 657 
Q 1506 409 1894 409 
Q 2359 409 2629 706 
Q 2900 1003 2900 1516 
L 2900 3500 
L 3475 3500 
L 3475 0 
L 2900 0 
L 2900 538 
Q 2691 219 2414 64 
Q 2138 -91 1772 -91 
Q 1169 -91 856 284 
Q 544 659 544 1381 
z
M 1991 3584 
L 1991 3584 
z
" transform="scale(0.015625)"/>
       <path id="DejaVuSans-73" d="M 2834 3397 
L 2834 2853 
Q 2591 2978 2328 3040 
Q 2066 3103 1784 3103 
Q 1356 3103 1142 2972 
Q 928 2841 928 2578 
Q 928 2378 1081 2264 
Q 1234 2150 1697 2047 
L 1894 2003 
Q 2506 1872 2764 1633 
Q 3022 1394 3022 966 
Q 3022 478 2636 193 
Q 2250 -91 1575 -91 
Q 1294 -91 989 -36 
Q 684 19 347 128 
L 347 722 
Q 666 556 975 473 
Q 1284 391 1588 391 
Q 1994 391 2212 530 
Q 2431 669 2431 922 
Q 2431 1156 2273 1281 
Q 2116 1406 1581 1522 
L 1381 1569 
Q 847 1681 609 1914 
Q 372 2147 372 2553 
Q 372 3047 722 3315 
Q 1072 3584 1716 3584 
Q 2034 3584 2315 3537 
Q 2597 3491 2834 3397 
z
" transform="scale(0.015625)"/>
       <path id="DejaVuSans-74" d="M 1172 4494 
L 1172 3500 
L 2356 3500 
L 2356 3053 
L 1172 3053 
L 1172 1153 
Q 1172 725 1289 603 
Q 1406 481 1766 481 
L 2356 481 
L 2356 0 
L 1766 0 
Q 1100 0 847 248 
Q 594 497 594 1153 
L 594 3053 
L 172 3053 
L 172 3500 
L 594 3500 
L 594 4494 
L 1172 4494 
z
" transform="scale(0.015625)"/>
       <path id="DejaVuSans-65" d="M 3597 1894 
L 3597 1613 
L 953 1613 
Q 991 1019 1311 708 
Q 1631 397 2203 397 
Q 2534 397 2845 478 
Q 3156 559 3463 722 
L 3463 178 
Q 3153 47 2828 -22 
Q 2503 -91 2169 -91 
Q 1331 -91 842 396 
Q 353 884 353 1716 
Q 353 2575 817 3079 
Q 1281 3584 2069 3584 
Q 2775 3584 3186 3129 
Q 3597 2675 3597 1894 
z
M 3022 2063 
Q 3016 2534 2758 2815 
Q 2500 3097 2075 3097 
Q 1594 3097 1305 2825 
Q 1016 2553 972 2059 
L 3022 2063 
z
" transform="scale(0.015625)"/>
       <path id="DejaVuSans-72" d="M 2631 2963 
Q 2534 3019 2420 3045 
Q 2306 3072 2169 3072 
Q 1681 3072 1420 2755 
Q 1159 2438 1159 1844 
L 1159 0 
L 581 0 
L 581 3500 
L 1159 3500 
L 1159 2956 
Q 1341 3275 1631 3429 
Q 1922 3584 2338 3584 
Q 2397 3584 2469 3576 
Q 2541 3569 2628 3553 
L 2631 2963 
z
" transform="scale(0.015625)"/>
      </defs>
      <use xlink:href="#DejaVuSans-63"/>
      <use xlink:href="#DejaVuSans-6c" x="54.980469"/>
      <use xlink:href="#DejaVuSans-75" x="82.763672"/>
      <use xlink:href="#DejaVuSans-73" x="146.142578"/>
      <use xlink:href="#DejaVuSans-74" x="198.242188"/>
      <use xlink:href="#DejaVuSans-65" x="237.451172"/>
      <use xlink:href="#DejaVuSans-72" x="298.974609"/>
     </g>
    </g>
   </g>
   <g id="matplotlib.axis_2">
    <g id="ytick_1">
     <g id="line2d_7">
      <defs>
       <path id="mefd6db0ece" d="M 0 0 
L -4.8 0 
" style="stroke: #262626; stroke-width: 2.5"/>
      </defs>
      <g>
       <use xlink:href="#mefd6db0ece" x="72.493688" y="326.509208" style="fill: #262626; stroke: #262626; stroke-width: 2.5"/>
      </g>
     </g>
     <g id="text_8">
      <!-- 0.0 -->
      <g style="fill: #262626" transform="translate(32.7055 334.031661) scale(0.198 -0.198)">
       <defs>
        <path id="DejaVuSans-2e" d="M 684 794 
L 1344 794 
L 1344 0 
L 684 0 
L 684 794 
z
" transform="scale(0.015625)"/>
       </defs>
       <use xlink:href="#DejaVuSans-30"/>
       <use xlink:href="#DejaVuSans-2e" x="63.623047"/>
       <use xlink:href="#DejaVuSans-30" x="95.410156"/>
      </g>
     </g>
    </g>
    <g id="ytick_2">
     <g id="line2d_8">
      <g>
       <use xlink:href="#mefd6db0ece" x="72.493688" y="261.908742" style="fill: #262626; stroke: #262626; stroke-width: 2.5"/>
      </g>
     </g>
     <g id="text_9">
      <!-- 0.2 -->
      <g style="fill: #262626" transform="translate(32.7055 269.431195) scale(0.198 -0.198)">
       <defs>
        <path id="DejaVuSans-32" d="M 1228 531 
L 3431 531 
L 3431 0 
L 469 0 
L 469 531 
Q 828 903 1448 1529 
Q 2069 2156 2228 2338 
Q 2531 2678 2651 2914 
Q 2772 3150 2772 3378 
Q 2772 3750 2511 3984 
Q 2250 4219 1831 4219 
Q 1534 4219 1204 4116 
Q 875 4013 500 3803 
L 500 4441 
Q 881 4594 1212 4672 
Q 1544 4750 1819 4750 
Q 2544 4750 2975 4387 
Q 3406 4025 3406 3419 
Q 3406 3131 3298 2873 
Q 3191 2616 2906 2266 
Q 2828 2175 2409 1742 
Q 1991 1309 1228 531 
z
" transform="scale(0.015625)"/>
       </defs>
       <use xlink:href="#DejaVuSans-30"/>
       <use xlink:href="#DejaVuSans-2e" x="63.623047"/>
       <use xlink:href="#DejaVuSans-32" x="95.410156"/>
      </g>
     </g>
    </g>
    <g id="ytick_3">
     <g id="line2d_9">
      <g>
       <use xlink:href="#mefd6db0ece" x="72.493688" y="197.308276" style="fill: #262626; stroke: #262626; stroke-width: 2.5"/>
      </g>
     </g>
     <g id="text_10">
      <!-- 0.4 -->
      <g style="fill: #262626" transform="translate(32.7055 204.83073) scale(0.198 -0.198)">
       <defs>
        <path id="DejaVuSans-34" d="M 2419 4116 
L 825 1625 
L 2419 1625 
L 2419 4116 
z
M 2253 4666 
L 3047 4666 
L 3047 1625 
L 3713 1625 
L 3713 1100 
L 3047 1100 
L 3047 0 
L 2419 0 
L 2419 1100 
L 313 1100 
L 313 1709 
L 2253 4666 
z
" transform="scale(0.015625)"/>
       </defs>
       <use xlink:href="#DejaVuSans-30"/>
       <use xlink:href="#DejaVuSans-2e" x="63.623047"/>
       <use xlink:href="#DejaVuSans-34" x="95.410156"/>
      </g>
     </g>
    </g>
    <g id="ytick_4">
     <g id="line2d_10">
      <g>
       <use xlink:href="#mefd6db0ece" x="72.493688" y="132.707811" style="fill: #262626; stroke: #262626; stroke-width: 2.5"/>
      </g>
     </g>
     <g id="text_11">
      <!-- 0.6 -->
      <g style="fill: #262626" transform="translate(32.7055 140.230264) scale(0.198 -0.198)">
       <use xlink:href="#DejaVuSans-30"/>
       <use xlink:href="#DejaVuSans-2e" x="63.623047"/>
       <use xlink:href="#DejaVuSans-36" x="95.410156"/>
      </g>
     </g>
    </g>
    <g id="ytick_5">
     <g id="line2d_11">
      <g>
       <use xlink:href="#mefd6db0ece" x="72.493688" y="68.107345" style="fill: #262626; stroke: #262626; stroke-width: 2.5"/>
      </g>
     </g>
     <g id="text_12">
      <!-- 0.8 -->
      <g style="fill: #262626" transform="translate(32.7055 75.629798) scale(0.198 -0.198)">
       <defs>
        <path id="DejaVuSans-38" d="M 2034 2216 
Q 1584 2216 1326 1975 
Q 1069 1734 1069 1313 
Q 1069 891 1326 650 
Q 1584 409 2034 409 
Q 2484 409 2743 651 
Q 3003 894 3003 1313 
Q 3003 1734 2745 1975 
Q 2488 2216 2034 2216 
z
M 1403 2484 
Q 997 2584 770 2862 
Q 544 3141 544 3541 
Q 544 4100 942 4425 
Q 1341 4750 2034 4750 
Q 2731 4750 3128 4425 
Q 3525 4100 3525 3541 
Q 3525 3141 3298 2862 
Q 3072 2584 2669 2484 
Q 3125 2378 3379 2068 
Q 3634 1759 3634 1313 
Q 3634 634 3220 271 
Q 2806 -91 2034 -91 
Q 1263 -91 848 271 
Q 434 634 434 1313 
Q 434 1759 690 2068 
Q 947 2378 1403 2484 
z
M 1172 3481 
Q 1172 3119 1398 2916 
Q 1625 2713 2034 2713 
Q 2441 2713 2670 2916 
Q 2900 3119 2900 3481 
Q 2900 3844 2670 4047 
Q 2441 4250 2034 4250 
Q 1625 4250 1398 4047 
Q 1172 3844 1172 3481 
z
" transform="scale(0.015625)"/>
       </defs>
       <use xlink:href="#DejaVuSans-30"/>
       <use xlink:href="#DejaVuSans-2e" x="63.623047"/>
       <use xlink:href="#DejaVuSans-38" x="95.410156"/>
      </g>
     </g>
    </g>
    <g id="text_13">
     <!-- p_hat -->
     <g style="fill: #262626" transform="translate(23.612625 203.473125) rotate(-90) scale(0.216 -0.216)">
      <defs>
       <path id="DejaVuSans-70" d="M 1159 525 
L 1159 -1331 
L 581 -1331 
L 581 3500 
L 1159 3500 
L 1159 2969 
Q 1341 3281 1617 3432 
Q 1894 3584 2278 3584 
Q 2916 3584 3314 3078 
Q 3713 2572 3713 1747 
Q 3713 922 3314 415 
Q 2916 -91 2278 -91 
Q 1894 -91 1617 61 
Q 1341 213 1159 525 
z
M 3116 1747 
Q 3116 2381 2855 2742 
Q 2594 3103 2138 3103 
Q 1681 3103 1420 2742 
Q 1159 2381 1159 1747 
Q 1159 1113 1420 752 
Q 1681 391 2138 391 
Q 2594 391 2855 752 
Q 3116 1113 3116 1747 
z
" transform="scale(0.015625)"/>
       <path id="DejaVuSans-5f" d="M 3263 -1063 
L 3263 -1509 
L -63 -1509 
L -63 -1063 
L 3263 -1063 
z
" transform="scale(0.015625)"/>
       <path id="DejaVuSans-68" d="M 3513 2113 
L 3513 0 
L 2938 0 
L 2938 2094 
Q 2938 2591 2744 2837 
Q 2550 3084 2163 3084 
Q 1697 3084 1428 2787 
Q 1159 2491 1159 1978 
L 1159 0 
L 581 0 
L 581 4863 
L 1159 4863 
L 1159 2956 
Q 1366 3272 1645 3428 
Q 1925 3584 2291 3584 
Q 2894 3584 3203 3211 
Q 3513 2838 3513 2113 
z
" transform="scale(0.015625)"/>
       <path id="DejaVuSans-61" d="M 2194 1759 
Q 1497 1759 1228 1600 
Q 959 1441 959 1056 
Q 959 750 1161 570 
Q 1363 391 1709 391 
Q 2188 391 2477 730 
Q 2766 1069 2766 1631 
L 2766 1759 
L 2194 1759 
z
M 3341 1997 
L 3341 0 
L 2766 0 
L 2766 531 
Q 2569 213 2275 61 
Q 1981 -91 1556 -91 
Q 1019 -91 701 211 
Q 384 513 384 1019 
Q 384 1609 779 1909 
Q 1175 2209 1959 2209 
L 2766 2209 
L 2766 2266 
Q 2766 2663 2505 2880 
Q 2244 3097 1772 3097 
Q 1472 3097 1187 3025 
Q 903 2953 641 2809 
L 641 3341 
Q 956 3463 1253 3523 
Q 1550 3584 1831 3584 
Q 2591 3584 2966 3190 
Q 3341 2797 3341 1997 
z
" transform="scale(0.015625)"/>
      </defs>
      <use xlink:href="#DejaVuSans-70"/>
      <use xlink:href="#DejaVuSans-5f" x="63.476562"/>
      <use xlink:href="#DejaVuSans-68" x="113.476562"/>
      <use xlink:href="#DejaVuSans-61" x="176.855469"/>
      <use xlink:href="#DejaVuSans-74" x="238.134766"/>
     </g>
    </g>
   </g>
   <g id="patch_3">
    <path d="M 118.993688 326.509208 
L 118.993688 326.509208 
L 118.993688 326.509208 
L 118.993688 326.509208 
z
" clip-path="url(#p985d5a67f7)" style="fill: #96cac1; stroke: #6a6a6a; stroke-width: 0.5; stroke-linejoin: miter"/>
   </g>
   <g id="PolyCollection_1">
    <defs>
     <path id="mb4831aab41" d="M 118.993688 -80.474772 
L 118.490891 -80.474772 
L 118.3533 -83.298093 
L 118.171833 -86.121414 
L 117.934414 -88.944735 
L 117.628625 -91.768056 
L 117.242842 -94.591377 
L 116.767449 -97.414698 
L 116.195996 -100.238019 
L 115.526104 -103.06134 
L 114.760022 -105.884661 
L 113.904722 -108.707981 
L 112.971536 -111.531302 
L 111.975341 -114.354623 
L 110.93339 -117.177944 
L 109.863889 -120.001265 
L 108.784473 -122.824586 
L 107.710769 -125.647907 
L 106.655212 -128.471228 
L 105.62634 -131.294549 
L 104.628685 -134.11787 
L 103.663343 -136.941191 
L 102.729124 -139.764511 
L 101.824047 -142.587832 
L 100.946795 -145.411153 
L 100.097716 -148.234474 
L 99.279005 -151.057795 
L 98.493919 -153.881116 
L 97.745148 -156.704437 
L 97.032749 -159.527758 
L 96.352237 -162.351079 
L 95.693429 -165.1744 
L 95.040504 -167.997721 
L 94.373411 -170.821041 
L 93.670457 -173.644362 
L 92.911561 -176.467683 
L 92.08156 -179.291004 
L 91.172925 -182.114325 
L 90.187435 -184.937646 
L 89.136612 -187.760967 
L 88.040998 -190.584288 
L 86.928617 -193.407609 
L 85.833042 -196.23093 
L 84.791535 -199.054251 
L 83.84354 -201.877571 
L 83.029593 -204.700892 
L 82.390452 -207.524213 
L 81.96603 -210.347534 
L 81.793688 -213.170855 
L 81.905539 -215.994176 
L 82.324787 -218.817497 
L 83.061488 -221.640818 
L 84.10859 -224.464139 
L 85.439233 -227.28746 
L 87.006301 -230.11078 
L 88.744792 -232.934101 
L 90.577002 -235.757422 
L 92.419863 -238.580743 
L 94.193275 -241.404064 
L 95.828028 -244.227385 
L 97.27203 -247.050706 
L 98.493957 -249.874027 
L 99.484002 -252.697348 
L 100.251992 -255.520669 
L 100.823518 -258.34399 
L 101.235015 -261.16731 
L 101.52862 -263.990631 
L 101.747521 -266.813952 
L 101.932173 -269.637273 
L 102.117511 -272.460594 
L 102.331065 -275.283915 
L 102.591838 -278.107236 
L 102.909812 -280.930557 
L 103.286059 -283.753878 
L 103.713554 -286.577199 
L 104.178784 -289.40052 
L 104.664203 -292.22384 
L 105.151385 -295.047161 
L 105.624472 -297.870482 
L 106.073364 -300.693803 
L 106.495969 -303.517124 
L 106.89898 -306.340445 
L 107.296888 -309.163766 
L 107.709352 -311.987087 
L 108.157433 -314.810408 
L 108.659448 -317.633729 
L 109.227351 -320.45705 
L 109.864349 -323.28037 
L 110.564219 -326.103691 
L 111.312335 -328.927012 
L 112.088086 -331.750333 
L 112.868059 -334.573654 
L 113.629302 -337.396975 
L 114.352036 -340.220296 
L 115.02142 -343.043617 
L 115.628228 -345.866938 
L 116.168556 -348.690259 
L 116.642837 -351.51358 
L 117.054534 -354.3369 
L 117.408822 -357.160221 
L 117.711506 -359.983542 
L 118.993688 -359.983542 
L 118.993688 -359.983542 
L 118.993688 -357.160221 
L 118.993688 -354.3369 
L 118.993688 -351.51358 
L 118.993688 -348.690259 
L 118.993688 -345.866938 
L 118.993688 -343.043617 
L 118.993688 -340.220296 
L 118.993688 -337.396975 
L 118.993688 -334.573654 
L 118.993688 -331.750333 
L 118.993688 -328.927012 
L 118.993688 -326.103691 
L 118.993688 -323.28037 
L 118.993688 -320.45705 
L 118.993688 -317.633729 
L 118.993688 -314.810408 
L 118.993688 -311.987087 
L 118.993688 -309.163766 
L 118.993688 -306.340445 
L 118.993688 -303.517124 
L 118.993688 -300.693803 
L 118.993688 -297.870482 
L 118.993688 -295.047161 
L 118.993688 -292.22384 
L 118.993688 -289.40052 
L 118.993688 -286.577199 
L 118.993688 -283.753878 
L 118.993688 -280.930557 
L 118.993688 -278.107236 
L 118.993688 -275.283915 
L 118.993688 -272.460594 
L 118.993688 -269.637273 
L 118.993688 -266.813952 
L 118.993688 -263.990631 
L 118.993688 -261.16731 
L 118.993688 -258.34399 
L 118.993688 -255.520669 
L 118.993688 -252.697348 
L 118.993688 -249.874027 
L 118.993688 -247.050706 
L 118.993688 -244.227385 
L 118.993688 -241.404064 
L 118.993688 -238.580743 
L 118.993688 -235.757422 
L 118.993688 -232.934101 
L 118.993688 -230.11078 
L 118.993688 -227.28746 
L 118.993688 -224.464139 
L 118.993688 -221.640818 
L 118.993688 -218.817497 
L 118.993688 -215.994176 
L 118.993688 -213.170855 
L 118.993688 -210.347534 
L 118.993688 -207.524213 
L 118.993688 -204.700892 
L 118.993688 -201.877571 
L 118.993688 -199.054251 
L 118.993688 -196.23093 
L 118.993688 -193.407609 
L 118.993688 -190.584288 
L 118.993688 -187.760967 
L 118.993688 -184.937646 
L 118.993688 -182.114325 
L 118.993688 -179.291004 
L 118.993688 -176.467683 
L 118.993688 -173.644362 
L 118.993688 -170.821041 
L 118.993688 -167.997721 
L 118.993688 -165.1744 
L 118.993688 -162.351079 
L 118.993688 -159.527758 
L 118.993688 -156.704437 
L 118.993688 -153.881116 
L 118.993688 -151.057795 
L 118.993688 -148.234474 
L 118.993688 -145.411153 
L 118.993688 -142.587832 
L 118.993688 -139.764511 
L 118.993688 -136.941191 
L 118.993688 -134.11787 
L 118.993688 -131.294549 
L 118.993688 -128.471228 
L 118.993688 -125.647907 
L 118.993688 -122.824586 
L 118.993688 -120.001265 
L 118.993688 -117.177944 
L 118.993688 -114.354623 
L 118.993688 -111.531302 
L 118.993688 -108.707981 
L 118.993688 -105.884661 
L 118.993688 -103.06134 
L 118.993688 -100.238019 
L 118.993688 -97.414698 
L 118.993688 -94.591377 
L 118.993688 -91.768056 
L 118.993688 -88.944735 
L 118.993688 -86.121414 
L 118.993688 -83.298093 
L 118.993688 -80.474772 
z
" style="stroke: #6a6a6a"/>
    </defs>
    <g clip-path="url(#p985d5a67f7)">
     <use xlink:href="#mb4831aab41" x="0" y="399.407438" style="fill: #96cac1; stroke: #6a6a6a"/>
    </g>
   </g>
   <g id="patch_4">
    <path d="M 118.993688 326.509208 
L 118.993688 326.509208 
L 118.993688 326.509208 
L 118.993688 326.509208 
z
" clip-path="url(#p985d5a67f7)" style="fill: #f6f6bc; stroke: #6a6a6a; stroke-width: 0.5; stroke-linejoin: miter"/>
   </g>
   <g id="PolyCollection_2">
    <defs>
     <path id="m7541b09982" d="M 131.970167 -230.620614 
L 118.993688 -230.620614 
L 118.993688 -232.100077 
L 118.993688 -233.57954 
L 118.993688 -235.059003 
L 118.993688 -236.538466 
L 118.993688 -238.017929 
L 118.993688 -239.497392 
L 118.993688 -240.976855 
L 118.993688 -242.456317 
L 118.993688 -243.93578 
L 118.993688 -245.415243 
L 118.993688 -246.894706 
L 118.993688 -248.374169 
L 118.993688 -249.853632 
L 118.993688 -251.333095 
L 118.993688 -252.812557 
L 118.993688 -254.29202 
L 118.993688 -255.771483 
L 118.993688 -257.250946 
L 118.993688 -258.730409 
L 118.993688 -260.209872 
L 118.993688 -261.689335 
L 118.993688 -263.168797 
L 118.993688 -264.64826 
L 118.993688 -266.127723 
L 118.993688 -267.607186 
L 118.993688 -269.086649 
L 118.993688 -270.566112 
L 118.993688 -272.045575 
L 118.993688 -273.525037 
L 118.993688 -275.0045 
L 118.993688 -276.483963 
L 118.993688 -277.963426 
L 118.993688 -279.442889 
L 118.993688 -280.922352 
L 118.993688 -282.401815 
L 118.993688 -283.881277 
L 118.993688 -285.36074 
L 118.993688 -286.840203 
L 118.993688 -288.319666 
L 118.993688 -289.799129 
L 118.993688 -291.278592 
L 118.993688 -292.758055 
L 118.993688 -294.237517 
L 118.993688 -295.71698 
L 118.993688 -297.196443 
L 118.993688 -298.675906 
L 118.993688 -300.155369 
L 118.993688 -301.634832 
L 118.993688 -303.114295 
L 118.993688 -304.593757 
L 118.993688 -306.07322 
L 118.993688 -307.552683 
L 118.993688 -309.032146 
L 118.993688 -310.511609 
L 118.993688 -311.991072 
L 118.993688 -313.470535 
L 118.993688 -314.949997 
L 118.993688 -316.42946 
L 118.993688 -317.908923 
L 118.993688 -319.388386 
L 118.993688 -320.867849 
L 118.993688 -322.347312 
L 118.993688 -323.826775 
L 118.993688 -325.306237 
L 118.993688 -326.7857 
L 118.993688 -328.265163 
L 118.993688 -329.744626 
L 118.993688 -331.224089 
L 118.993688 -332.703552 
L 118.993688 -334.183015 
L 118.993688 -335.662477 
L 118.993688 -337.14194 
L 118.993688 -338.621403 
L 118.993688 -340.100866 
L 118.993688 -341.580329 
L 118.993688 -343.059792 
L 118.993688 -344.539255 
L 118.993688 -346.018717 
L 118.993688 -347.49818 
L 118.993688 -348.977643 
L 118.993688 -350.457106 
L 118.993688 -351.936569 
L 118.993688 -353.416032 
L 118.993688 -354.895495 
L 118.993688 -356.374957 
L 118.993688 -357.85442 
L 118.993688 -359.333883 
L 118.993688 -360.813346 
L 118.993688 -362.292809 
L 118.993688 -363.772272 
L 118.993688 -365.251735 
L 118.993688 -366.731197 
L 118.993688 -368.21066 
L 118.993688 -369.690123 
L 118.993688 -371.169586 
L 118.993688 -372.649049 
L 118.993688 -374.128512 
L 118.993688 -375.607975 
L 118.993688 -377.087438 
L 120.193119 -377.087438 
L 120.193119 -377.087438 
L 120.393608 -375.607975 
L 120.621329 -374.128512 
L 120.878534 -372.649049 
L 121.16694 -371.169586 
L 121.487509 -369.690123 
L 121.84028 -368.21066 
L 122.224277 -366.731197 
L 122.637539 -365.251735 
L 123.077257 -363.772272 
L 123.540033 -362.292809 
L 124.02224 -360.813346 
L 124.520435 -359.333883 
L 125.031796 -357.85442 
L 125.554515 -356.374957 
L 126.0881 -354.895495 
L 126.633548 -353.416032 
L 127.193343 -351.936569 
L 127.771271 -350.457106 
L 128.37205 -348.977643 
L 129.000799 -347.49818 
L 129.662383 -346.018717 
L 130.360699 -344.539255 
L 131.097958 -343.059792 
L 131.874052 -341.580329 
L 132.686077 -340.100866 
L 133.528079 -338.621403 
L 134.391079 -337.14194 
L 135.2634 -335.662477 
L 136.131297 -334.183015 
L 136.979847 -332.703552 
L 137.794024 -331.224089 
L 138.559855 -329.744626 
L 139.265535 -328.265163 
L 139.902369 -326.7857 
L 140.465427 -325.306237 
L 140.953827 -323.826775 
L 141.370599 -322.347312 
L 141.722153 -320.867849 
L 142.017393 -319.388386 
L 142.266604 -317.908923 
L 142.48024 -316.42946 
L 142.667769 -314.949997 
L 142.83671 -313.470535 
L 142.991978 -311.991072 
L 143.135601 -310.511609 
L 143.266825 -309.032146 
L 143.382572 -307.552683 
L 143.478164 -306.07322 
L 143.5482 -304.593757 
L 143.587464 -303.114295 
L 143.591733 -301.634832 
L 143.558388 -300.155369 
L 143.486764 -298.675906 
L 143.378212 -297.196443 
L 143.235893 -295.71698 
L 143.064376 -294.237517 
L 142.869099 -292.758055 
L 142.655822 -291.278592 
L 142.430138 -289.799129 
L 142.197126 -288.319666 
L 141.961176 -286.840203 
L 141.725993 -285.36074 
L 141.494738 -283.881277 
L 141.270249 -282.401815 
L 141.055268 -280.922352 
L 140.8526 -279.442889 
L 140.665156 -277.963426 
L 140.495863 -276.483963 
L 140.34745 -275.0045 
L 140.222159 -273.525037 
L 140.121439 -272.045575 
L 140.045701 -270.566112 
L 139.994192 -269.086649 
L 139.965016 -267.607186 
L 139.955316 -266.127723 
L 139.961579 -264.64826 
L 139.979995 -263.168797 
L 140.006812 -261.689335 
L 140.038579 -260.209872 
L 140.072236 -258.730409 
L 140.104987 -257.250946 
L 140.133976 -255.771483 
L 140.155793 -254.29202 
L 140.165883 -252.812557 
L 140.157976 -251.333095 
L 140.123633 -249.853632 
L 140.052035 -248.374169 
L 139.930087 -246.894706 
L 139.742904 -245.415243 
L 139.474663 -243.93578 
L 139.109785 -242.456317 
L 138.634329 -240.976855 
L 138.037467 -239.497392 
L 137.312868 -238.017929 
L 136.459818 -236.538466 
L 135.483929 -235.059003 
L 134.397327 -233.57954 
L 133.218261 -232.100077 
L 131.970167 -230.620614 
z
" style="stroke: #6a6a6a"/>
    </defs>
    <g clip-path="url(#p985d5a67f7)">
     <use xlink:href="#m7541b09982" x="0" y="399.407438" style="fill: #f6f6bc; stroke: #6a6a6a"/>
    </g>
   </g>
   <g id="PolyCollection_3">
    <defs>
     <path id="me2c0d3632c" d="M 211.993688 -88.48139 
L 210.459844 -88.48139 
L 210.009119 -90.602919 
L 209.472518 -92.724449 
L 208.848981 -94.845978 
L 208.142386 -96.967508 
L 207.360956 -99.089037 
L 206.515116 -101.210567 
L 205.614135 -103.332096 
L 204.662543 -105.453626 
L 203.657709 -107.575156 
L 202.589847 -109.696685 
L 201.44497 -111.818215 
L 200.210297 -113.939744 
L 198.880616 -116.061274 
L 197.463689 -118.182803 
L 195.982994 -120.304333 
L 194.476937 -122.425862 
L 192.994664 -124.547392 
L 191.589401 -126.668921 
L 190.310622 -128.790451 
L 189.196349 -130.91198 
L 188.266688 -133.03351 
L 187.51949 -135.155039 
L 186.928935 -137.276569 
L 186.44764 -139.398099 
L 186.012504 -141.519628 
L 185.553826 -143.641158 
L 185.006413 -145.762687 
L 184.320622 -147.884217 
L 183.47105 -150.005746 
L 182.46095 -152.127276 
L 181.321438 -154.248805 
L 180.105955 -156.370335 
L 178.881588 -158.491864 
L 177.719549 -160.613394 
L 176.686911 -162.734923 
L 175.840873 -164.856453 
L 175.225682 -166.977982 
L 174.871436 -169.099512 
L 174.793688 -171.221042 
L 174.993102 -173.342571 
L 175.455166 -175.464101 
L 176.150562 -177.58563 
L 177.037028 -179.70716 
L 178.063191 -181.828689 
L 179.174153 -183.950219 
L 180.31795 -186.071748 
L 181.451594 -188.193278 
L 182.545461 -190.314807 
L 183.585167 -192.436337 
L 184.570701 -194.557866 
L 185.513127 -196.679396 
L 186.429694 -198.800926 
L 187.338444 -200.922455 
L 188.253485 -203.043985 
L 189.181939 -205.165514 
L 190.123168 -207.287044 
L 191.070345 -209.408573 
L 192.013816 -211.530103 
L 192.945214 -213.651632 
L 193.861038 -215.773162 
L 194.764551 -217.894691 
L 195.665324 -220.016221 
L 196.57651 -222.13775 
L 197.510612 -224.25928 
L 198.475026 -226.380809 
L 199.468699 -228.502339 
L 200.480881 -230.623869 
L 201.492303 -232.745398 
L 202.478419 -234.866928 
L 203.413774 -236.988457 
L 204.276388 -239.109987 
L 205.051121 -241.231516 
L 205.731334 -243.353046 
L 206.318652 -245.474575 
L 206.821096 -247.596105 
L 207.250234 -249.717634 
L 207.618221 -251.839164 
L 207.935576 -253.960693 
L 208.210246 -256.082223 
L 208.448063 -258.203752 
L 208.654181 -260.325282 
L 208.834749 -262.446812 
L 208.997963 -264.568341 
L 209.153937 -266.689871 
L 209.31329 -268.8114 
L 209.484878 -270.93293 
L 209.673489 -273.054459 
L 209.878379 -275.175989 
L 210.093265 -277.297518 
L 210.30789 -279.419048 
L 210.510731 -281.540577 
L 210.691995 -283.662107 
L 210.846004 -285.783636 
L 210.972269 -287.905166 
L 211.075051 -290.026695 
L 211.161678 -292.148225 
L 211.240274 -294.269755 
L 211.317613 -296.391284 
L 211.397701 -298.512814 
L 211.993688 -298.512814 
L 211.993688 -298.512814 
L 211.993688 -296.391284 
L 211.993688 -294.269755 
L 211.993688 -292.148225 
L 211.993688 -290.026695 
L 211.993688 -287.905166 
L 211.993688 -285.783636 
L 211.993688 -283.662107 
L 211.993688 -281.540577 
L 211.993688 -279.419048 
L 211.993688 -277.297518 
L 211.993688 -275.175989 
L 211.993688 -273.054459 
L 211.993688 -270.93293 
L 211.993688 -268.8114 
L 211.993688 -266.689871 
L 211.993688 -264.568341 
L 211.993688 -262.446812 
L 211.993688 -260.325282 
L 211.993688 -258.203752 
L 211.993688 -256.082223 
L 211.993688 -253.960693 
L 211.993688 -251.839164 
L 211.993688 -249.717634 
L 211.993688 -247.596105 
L 211.993688 -245.474575 
L 211.993688 -243.353046 
L 211.993688 -241.231516 
L 211.993688 -239.109987 
L 211.993688 -236.988457 
L 211.993688 -234.866928 
L 211.993688 -232.745398 
L 211.993688 -230.623869 
L 211.993688 -228.502339 
L 211.993688 -226.380809 
L 211.993688 -224.25928 
L 211.993688 -222.13775 
L 211.993688 -220.016221 
L 211.993688 -217.894691 
L 211.993688 -215.773162 
L 211.993688 -213.651632 
L 211.993688 -211.530103 
L 211.993688 -209.408573 
L 211.993688 -207.287044 
L 211.993688 -205.165514 
L 211.993688 -203.043985 
L 211.993688 -200.922455 
L 211.993688 -198.800926 
L 211.993688 -196.679396 
L 211.993688 -194.557866 
L 211.993688 -192.436337 
L 211.993688 -190.314807 
L 211.993688 -188.193278 
L 211.993688 -186.071748 
L 211.993688 -183.950219 
L 211.993688 -181.828689 
L 211.993688 -179.70716 
L 211.993688 -177.58563 
L 211.993688 -175.464101 
L 211.993688 -173.342571 
L 211.993688 -171.221042 
L 211.993688 -169.099512 
L 211.993688 -166.977982 
L 211.993688 -164.856453 
L 211.993688 -162.734923 
L 211.993688 -160.613394 
L 211.993688 -158.491864 
L 211.993688 -156.370335 
L 211.993688 -154.248805 
L 211.993688 -152.127276 
L 211.993688 -150.005746 
L 211.993688 -147.884217 
L 211.993688 -145.762687 
L 211.993688 -143.641158 
L 211.993688 -141.519628 
L 211.993688 -139.398099 
L 211.993688 -137.276569 
L 211.993688 -135.155039 
L 211.993688 -133.03351 
L 211.993688 -130.91198 
L 211.993688 -128.790451 
L 211.993688 -126.668921 
L 211.993688 -124.547392 
L 211.993688 -122.425862 
L 211.993688 -120.304333 
L 211.993688 -118.182803 
L 211.993688 -116.061274 
L 211.993688 -113.939744 
L 211.993688 -111.818215 
L 211.993688 -109.696685 
L 211.993688 -107.575156 
L 211.993688 -105.453626 
L 211.993688 -103.332096 
L 211.993688 -101.210567 
L 211.993688 -99.089037 
L 211.993688 -96.967508 
L 211.993688 -94.845978 
L 211.993688 -92.724449 
L 211.993688 -90.602919 
L 211.993688 -88.48139 
z
" style="stroke: #6a6a6a"/>
    </defs>
    <g clip-path="url(#p985d5a67f7)">
     <use xlink:href="#me2c0d3632c" x="0" y="399.407438" style="fill: #96cac1; stroke: #6a6a6a"/>
    </g>
   </g>
   <g id="PolyCollection_4">
    <defs>
     <path id="m1314a08812" d="M 213.79317 -231.327845 
L 211.993688 -231.327845 
L 211.993688 -232.230586 
L 211.993688 -233.133327 
L 211.993688 -234.036068 
L 211.993688 -234.938809 
L 211.993688 -235.84155 
L 211.993688 -236.744291 
L 211.993688 -237.647033 
L 211.993688 -238.549774 
L 211.993688 -239.452515 
L 211.993688 -240.355256 
L 211.993688 -241.257997 
L 211.993688 -242.160738 
L 211.993688 -243.063479 
L 211.993688 -243.96622 
L 211.993688 -244.868961 
L 211.993688 -245.771702 
L 211.993688 -246.674444 
L 211.993688 -247.577185 
L 211.993688 -248.479926 
L 211.993688 -249.382667 
L 211.993688 -250.285408 
L 211.993688 -251.188149 
L 211.993688 -252.09089 
L 211.993688 -252.993631 
L 211.993688 -253.896372 
L 211.993688 -254.799114 
L 211.993688 -255.701855 
L 211.993688 -256.604596 
L 211.993688 -257.507337 
L 211.993688 -258.410078 
L 211.993688 -259.312819 
L 211.993688 -260.21556 
L 211.993688 -261.118301 
L 211.993688 -262.021042 
L 211.993688 -262.923783 
L 211.993688 -263.826525 
L 211.993688 -264.729266 
L 211.993688 -265.632007 
L 211.993688 -266.534748 
L 211.993688 -267.437489 
L 211.993688 -268.34023 
L 211.993688 -269.242971 
L 211.993688 -270.145712 
L 211.993688 -271.048453 
L 211.993688 -271.951194 
L 211.993688 -272.853936 
L 211.993688 -273.756677 
L 211.993688 -274.659418 
L 211.993688 -275.562159 
L 211.993688 -276.4649 
L 211.993688 -277.367641 
L 211.993688 -278.270382 
L 211.993688 -279.173123 
L 211.993688 -280.075864 
L 211.993688 -280.978606 
L 211.993688 -281.881347 
L 211.993688 -282.784088 
L 211.993688 -283.686829 
L 211.993688 -284.58957 
L 211.993688 -285.492311 
L 211.993688 -286.395052 
L 211.993688 -287.297793 
L 211.993688 -288.200534 
L 211.993688 -289.103275 
L 211.993688 -290.006017 
L 211.993688 -290.908758 
L 211.993688 -291.811499 
L 211.993688 -292.71424 
L 211.993688 -293.616981 
L 211.993688 -294.519722 
L 211.993688 -295.422463 
L 211.993688 -296.325204 
L 211.993688 -297.227945 
L 211.993688 -298.130686 
L 211.993688 -299.033428 
L 211.993688 -299.936169 
L 211.993688 -300.83891 
L 211.993688 -301.741651 
L 211.993688 -302.644392 
L 211.993688 -303.547133 
L 211.993688 -304.449874 
L 211.993688 -305.352615 
L 211.993688 -306.255356 
L 211.993688 -307.158098 
L 211.993688 -308.060839 
L 211.993688 -308.96358 
L 211.993688 -309.866321 
L 211.993688 -310.769062 
L 211.993688 -311.671803 
L 211.993688 -312.574544 
L 211.993688 -313.477285 
L 211.993688 -314.380026 
L 211.993688 -315.282767 
L 211.993688 -316.185509 
L 211.993688 -317.08825 
L 211.993688 -317.990991 
L 211.993688 -318.893732 
L 211.993688 -319.796473 
L 211.993688 -320.699214 
L 212.197313 -320.699214 
L 212.197313 -320.699214 
L 212.205107 -319.796473 
L 212.212223 -318.893732 
L 212.218772 -317.990991 
L 212.224893 -317.08825 
L 212.23074 -316.185509 
L 212.236471 -315.282767 
L 212.242232 -314.380026 
L 212.248146 -313.477285 
L 212.254305 -312.574544 
L 212.260762 -311.671803 
L 212.26753 -310.769062 
L 212.274586 -309.866321 
L 212.281877 -308.96358 
L 212.289331 -308.060839 
L 212.29687 -307.158098 
L 212.304425 -306.255356 
L 212.311951 -305.352615 
L 212.319435 -304.449874 
L 212.32691 -303.547133 
L 212.334456 -302.644392 
L 212.342201 -301.741651 
L 212.350314 -300.83891 
L 212.358996 -299.936169 
L 212.368466 -299.033428 
L 212.378945 -298.130686 
L 212.390639 -297.227945 
L 212.403719 -296.325204 
L 212.418314 -295.422463 
L 212.434495 -294.519722 
L 212.452274 -293.616981 
L 212.471606 -292.71424 
L 212.492392 -291.811499 
L 212.514493 -290.908758 
L 212.537751 -290.006017 
L 212.562001 -289.103275 
L 212.587099 -288.200534 
L 212.612938 -287.297793 
L 212.639466 -286.395052 
L 212.666701 -285.492311 
L 212.694735 -284.58957 
L 212.723735 -283.686829 
L 212.75394 -282.784088 
L 212.785641 -281.881347 
L 212.819165 -280.978606 
L 212.854849 -280.075864 
L 212.893016 -279.173123 
L 212.933946 -278.270382 
L 212.97785 -277.367641 
L 213.024854 -276.4649 
L 213.074984 -275.562159 
L 213.12816 -274.659418 
L 213.184203 -273.756677 
L 213.242845 -272.853936 
L 213.303751 -271.951194 
L 213.366549 -271.048453 
L 213.43086 -270.145712 
L 213.496331 -269.242971 
L 213.562668 -268.34023 
L 213.629663 -267.437489 
L 213.697211 -266.534748 
L 213.765327 -265.632007 
L 213.834134 -264.729266 
L 213.903859 -263.826525 
L 213.974804 -262.923783 
L 214.047315 -262.021042 
L 214.121737 -261.118301 
L 214.198372 -260.21556 
L 214.277426 -259.312819 
L 214.358972 -258.410078 
L 214.442902 -257.507337 
L 214.528903 -256.604596 
L 214.616434 -255.701855 
L 214.704719 -254.799114 
L 214.792754 -253.896372 
L 214.879323 -252.993631 
L 214.963034 -252.09089 
L 215.042354 -251.188149 
L 215.11566 -250.285408 
L 215.181295 -249.382667 
L 215.237622 -248.479926 
L 215.283078 -247.577185 
L 215.316232 -246.674444 
L 215.335831 -245.771702 
L 215.34084 -244.868961 
L 215.330479 -243.96622 
L 215.304246 -243.063479 
L 215.261931 -242.160738 
L 215.203629 -241.257997 
L 215.129731 -240.355256 
L 215.040917 -239.452515 
L 214.938139 -238.549774 
L 214.822597 -237.647033 
L 214.695705 -236.744291 
L 214.559062 -235.84155 
L 214.414409 -234.938809 
L 214.263589 -234.036068 
L 214.108504 -233.133327 
L 213.951069 -232.230586 
L 213.79317 -231.327845 
z
" style="stroke: #6a6a6a"/>
    </defs>
    <g clip-path="url(#p985d5a67f7)">
     <use xlink:href="#m1314a08812" x="0" y="399.407438" style="fill: #f6f6bc; stroke: #6a6a6a"/>
    </g>
   </g>
   <g id="PolyCollection_5">
    <defs>
     <path id="m07b4fa8ace" d="M 304.993688 -114.318205 
L 303.533194 -114.318205 
L 303.168281 -116.610176 
L 302.733019 -118.902147 
L 302.222005 -121.194118 
L 301.633124 -123.486089 
L 300.968562 -125.778061 
L 300.235273 -128.070032 
L 299.444634 -130.362003 
L 298.611157 -132.653974 
L 297.750342 -134.945945 
L 296.876001 -137.237916 
L 295.997578 -139.529887 
L 295.118134 -141.821858 
L 294.233555 -144.113829 
L 293.333354 -146.4058 
L 292.403057 -148.697771 
L 291.427786 -150.989743 
L 290.396293 -153.281714 
L 289.304554 -155.573685 
L 288.158079 -157.865656 
L 286.972372 -160.157627 
L 285.771372 -162.449598 
L 284.584191 -164.741569 
L 283.4408 -167.03354 
L 282.367543 -169.325511 
L 281.383314 -171.617482 
L 280.497066 -173.909453 
L 279.706926 -176.201425 
L 279.000916 -178.493396 
L 278.358913 -180.785367 
L 277.7554 -183.077338 
L 277.162496 -185.369309 
L 276.552915 -187.66128 
L 275.902656 -189.953251 
L 275.193382 -192.245222 
L 274.414545 -194.537193 
L 273.565284 -196.829164 
L 272.655993 -199.121135 
L 271.709345 -201.413107 
L 270.760402 -203.705078 
L 269.855421 -205.997049 
L 269.049075 -208.28902 
L 268.400054 -210.580991 
L 267.965321 -212.872962 
L 267.793688 -215.164933 
L 267.919619 -217.456904 
L 268.358311 -219.748875 
L 269.102976 -222.040846 
L 270.124952 -224.332817 
L 271.376772 -226.624789 
L 272.797764 -228.91676 
L 274.321291 -231.208731 
L 275.882375 -233.500702 
L 277.424445 -235.792673 
L 278.904129 -238.084644 
L 280.293448 -240.376615 
L 281.579362 -242.668586 
L 282.76112 -244.960557 
L 283.846281 -247.252528 
L 284.846458 -249.544499 
L 285.773689 -251.836471 
L 286.638092 -254.128442 
L 287.446985 -256.420413 
L 288.205297 -258.712384 
L 288.916747 -261.004355 
L 289.585212 -263.296326 
L 290.215755 -265.588297 
L 290.814996 -267.880268 
L 291.390775 -270.172239 
L 291.951267 -272.46421 
L 292.503851 -274.756181 
L 293.054021 -277.048153 
L 293.604592 -279.340124 
L 294.155341 -281.632095 
L 294.703111 -283.924066 
L 295.242367 -286.216037 
L 295.766123 -288.508008 
L 296.267161 -290.799979 
L 296.739382 -293.09195 
L 297.179122 -295.383921 
L 297.586189 -297.675892 
L 297.964375 -299.967863 
L 298.321262 -302.259835 
L 298.667245 -304.551806 
L 299.013894 -306.843777 
L 299.371923 -309.135748 
L 299.749195 -311.427719 
L 300.149165 -313.71969 
L 300.570147 -316.011661 
L 301.005532 -318.303632 
L 301.444919 -320.595603 
L 301.8759 -322.887574 
L 302.286088 -325.179545 
L 302.664981 -327.471517 
L 303.005297 -329.763488 
L 303.303596 -332.055459 
L 303.560157 -334.34743 
L 303.778251 -336.639401 
L 303.963045 -338.931372 
L 304.120434 -341.223343 
L 304.993688 -341.223343 
L 304.993688 -341.223343 
L 304.993688 -338.931372 
L 304.993688 -336.639401 
L 304.993688 -334.34743 
L 304.993688 -332.055459 
L 304.993688 -329.763488 
L 304.993688 -327.471517 
L 304.993688 -325.179545 
L 304.993688 -322.887574 
L 304.993688 -320.595603 
L 304.993688 -318.303632 
L 304.993688 -316.011661 
L 304.993688 -313.71969 
L 304.993688 -311.427719 
L 304.993688 -309.135748 
L 304.993688 -306.843777 
L 304.993688 -304.551806 
L 304.993688 -302.259835 
L 304.993688 -299.967863 
L 304.993688 -297.675892 
L 304.993688 -295.383921 
L 304.993688 -293.09195 
L 304.993688 -290.799979 
L 304.993688 -288.508008 
L 304.993688 -286.216037 
L 304.993688 -283.924066 
L 304.993688 -281.632095 
L 304.993688 -279.340124 
L 304.993688 -277.048153 
L 304.993688 -274.756181 
L 304.993688 -272.46421 
L 304.993688 -270.172239 
L 304.993688 -267.880268 
L 304.993688 -265.588297 
L 304.993688 -263.296326 
L 304.993688 -261.004355 
L 304.993688 -258.712384 
L 304.993688 -256.420413 
L 304.993688 -254.128442 
L 304.993688 -251.836471 
L 304.993688 -249.544499 
L 304.993688 -247.252528 
L 304.993688 -244.960557 
L 304.993688 -242.668586 
L 304.993688 -240.376615 
L 304.993688 -238.084644 
L 304.993688 -235.792673 
L 304.993688 -233.500702 
L 304.993688 -231.208731 
L 304.993688 -228.91676 
L 304.993688 -226.624789 
L 304.993688 -224.332817 
L 304.993688 -222.040846 
L 304.993688 -219.748875 
L 304.993688 -217.456904 
L 304.993688 -215.164933 
L 304.993688 -212.872962 
L 304.993688 -210.580991 
L 304.993688 -208.28902 
L 304.993688 -205.997049 
L 304.993688 -203.705078 
L 304.993688 -201.413107 
L 304.993688 -199.121135 
L 304.993688 -196.829164 
L 304.993688 -194.537193 
L 304.993688 -192.245222 
L 304.993688 -189.953251 
L 304.993688 -187.66128 
L 304.993688 -185.369309 
L 304.993688 -183.077338 
L 304.993688 -180.785367 
L 304.993688 -178.493396 
L 304.993688 -176.201425 
L 304.993688 -173.909453 
L 304.993688 -171.617482 
L 304.993688 -169.325511 
L 304.993688 -167.03354 
L 304.993688 -164.741569 
L 304.993688 -162.449598 
L 304.993688 -160.157627 
L 304.993688 -157.865656 
L 304.993688 -155.573685 
L 304.993688 -153.281714 
L 304.993688 -150.989743 
L 304.993688 -148.697771 
L 304.993688 -146.4058 
L 304.993688 -144.113829 
L 304.993688 -141.821858 
L 304.993688 -139.529887 
L 304.993688 -137.237916 
L 304.993688 -134.945945 
L 304.993688 -132.653974 
L 304.993688 -130.362003 
L 304.993688 -128.070032 
L 304.993688 -125.778061 
L 304.993688 -123.486089 
L 304.993688 -121.194118 
L 304.993688 -118.902147 
L 304.993688 -116.610176 
L 304.993688 -114.318205 
z
" style="stroke: #6a6a6a"/>
    </defs>
    <g clip-path="url(#p985d5a67f7)">
     <use xlink:href="#m07b4fa8ace" x="0" y="399.407438" style="fill: #96cac1; stroke: #6a6a6a"/>
    </g>
   </g>
   <g id="PolyCollection_6">
    <defs>
     <path id="m874a6baa73" d="M 312.367535 -230.619285 
L 304.993688 -230.619285 
L 304.993688 -232.039834 
L 304.993688 -233.460384 
L 304.993688 -234.880933 
L 304.993688 -236.301483 
L 304.993688 -237.722032 
L 304.993688 -239.142582 
L 304.993688 -240.563131 
L 304.993688 -241.983681 
L 304.993688 -243.40423 
L 304.993688 -244.82478 
L 304.993688 -246.245329 
L 304.993688 -247.665879 
L 304.993688 -249.086428 
L 304.993688 -250.506978 
L 304.993688 -251.927527 
L 304.993688 -253.348077 
L 304.993688 -254.768626 
L 304.993688 -256.189175 
L 304.993688 -257.609725 
L 304.993688 -259.030274 
L 304.993688 -260.450824 
L 304.993688 -261.871373 
L 304.993688 -263.291923 
L 304.993688 -264.712472 
L 304.993688 -266.133022 
L 304.993688 -267.553571 
L 304.993688 -268.974121 
L 304.993688 -270.39467 
L 304.993688 -271.81522 
L 304.993688 -273.235769 
L 304.993688 -274.656319 
L 304.993688 -276.076868 
L 304.993688 -277.497418 
L 304.993688 -278.917967 
L 304.993688 -280.338517 
L 304.993688 -281.759066 
L 304.993688 -283.179615 
L 304.993688 -284.600165 
L 304.993688 -286.020714 
L 304.993688 -287.441264 
L 304.993688 -288.861813 
L 304.993688 -290.282363 
L 304.993688 -291.702912 
L 304.993688 -293.123462 
L 304.993688 -294.544011 
L 304.993688 -295.964561 
L 304.993688 -297.38511 
L 304.993688 -298.80566 
L 304.993688 -300.226209 
L 304.993688 -301.646759 
L 304.993688 -303.067308 
L 304.993688 -304.487858 
L 304.993688 -305.908407 
L 304.993688 -307.328957 
L 304.993688 -308.749506 
L 304.993688 -310.170055 
L 304.993688 -311.590605 
L 304.993688 -313.011154 
L 304.993688 -314.431704 
L 304.993688 -315.852253 
L 304.993688 -317.272803 
L 304.993688 -318.693352 
L 304.993688 -320.113902 
L 304.993688 -321.534451 
L 304.993688 -322.955001 
L 304.993688 -324.37555 
L 304.993688 -325.7961 
L 304.993688 -327.216649 
L 304.993688 -328.637199 
L 304.993688 -330.057748 
L 304.993688 -331.478298 
L 304.993688 -332.898847 
L 304.993688 -334.319397 
L 304.993688 -335.739946 
L 304.993688 -337.160496 
L 304.993688 -338.581045 
L 304.993688 -340.001594 
L 304.993688 -341.422144 
L 304.993688 -342.842693 
L 304.993688 -344.263243 
L 304.993688 -345.683792 
L 304.993688 -347.104342 
L 304.993688 -348.524891 
L 304.993688 -349.945441 
L 304.993688 -351.36599 
L 304.993688 -352.78654 
L 304.993688 -354.207089 
L 304.993688 -355.627639 
L 304.993688 -357.048188 
L 304.993688 -358.468738 
L 304.993688 -359.889287 
L 304.993688 -361.309837 
L 304.993688 -362.730386 
L 304.993688 -364.150936 
L 304.993688 -365.571485 
L 304.993688 -366.992034 
L 304.993688 -368.412584 
L 304.993688 -369.833133 
L 304.993688 -371.253683 
L 305.390955 -371.253683 
L 305.390955 -371.253683 
L 305.424174 -369.833133 
L 305.459819 -368.412584 
L 305.499139 -366.992034 
L 305.543527 -365.571485 
L 305.594416 -364.150936 
L 305.653157 -362.730386 
L 305.720913 -361.309837 
L 305.798561 -359.889287 
L 305.886629 -358.468738 
L 305.985276 -357.048188 
L 306.094313 -355.627639 
L 306.213268 -354.207089 
L 306.3415 -352.78654 
L 306.47833 -351.36599 
L 306.623203 -349.945441 
L 306.775837 -348.524891 
L 306.936354 -347.104342 
L 307.105374 -345.683792 
L 307.28405 -344.263243 
L 307.474045 -342.842693 
L 307.677431 -341.422144 
L 307.896543 -340.001594 
L 308.13377 -338.581045 
L 308.391327 -337.160496 
L 308.671022 -335.739946 
L 308.97404 -334.319397 
L 309.300773 -332.898847 
L 309.650703 -331.478298 
L 310.022356 -330.057748 
L 310.413328 -328.637199 
L 310.820361 -327.216649 
L 311.239485 -325.7961 
L 311.666189 -324.37555 
L 312.095613 -322.955001 
L 312.522748 -321.534451 
L 312.94265 -320.113902 
L 313.350629 -318.693352 
L 313.742457 -317.272803 
L 314.114561 -315.852253 
L 314.464221 -314.431704 
L 314.78976 -313.011154 
L 315.090725 -311.590605 
L 315.368033 -310.170055 
L 315.624063 -308.749506 
L 315.862673 -307.328957 
L 316.089107 -305.908407 
L 316.309789 -304.487858 
L 316.531985 -303.067308 
L 316.763351 -301.646759 
L 317.011397 -300.226209 
L 317.282894 -298.80566 
L 317.583299 -297.38511 
L 317.916226 -295.964561 
L 318.283041 -294.544011 
L 318.68261 -293.123462 
L 319.111227 -291.702912 
L 319.562733 -290.282363 
L 320.028819 -288.861813 
L 320.499478 -287.441264 
L 320.963556 -286.020714 
L 321.409376 -284.600165 
L 321.825364 -283.179615 
L 322.200631 -281.759066 
L 322.525489 -280.338517 
L 322.791852 -278.917967 
L 322.993527 -277.497418 
L 323.126376 -276.076868 
L 323.188361 -274.656319 
L 323.179493 -273.235769 
L 323.101695 -271.81522 
L 322.958608 -270.39467 
L 322.755365 -268.974121 
L 322.498347 -267.553571 
L 322.194947 -266.133022 
L 321.85335 -264.712472 
L 321.482314 -263.291923 
L 321.090965 -261.871373 
L 320.688573 -260.450824 
L 320.284282 -259.030274 
L 319.886788 -257.609725 
L 319.503938 -256.189175 
L 319.14226 -254.768626 
L 318.806447 -253.348077 
L 318.498841 -251.927527 
L 318.218992 -250.506978 
L 317.963356 -249.086428 
L 317.725224 -247.665879 
L 317.494944 -246.245329 
L 317.26045 -244.82478 
L 317.008113 -243.40423 
L 316.723838 -241.983681 
L 316.394321 -240.563131 
L 316.008337 -239.142582 
L 315.557896 -237.722032 
L 315.03916 -236.301483 
L 314.452976 -234.880933 
L 313.804983 -233.460384 
L 313.105252 -232.039834 
L 312.367535 -230.619285 
z
" style="stroke: #6a6a6a"/>
    </defs>
    <g clip-path="url(#p985d5a67f7)">
     <use xlink:href="#m874a6baa73" x="0" y="399.407438" style="fill: #f6f6bc; stroke: #6a6a6a"/>
    </g>
   </g>
   <g id="PolyCollection_7">
    <defs>
     <path id="m6ad13a337d" d="M 397.993688 -82.536162 
L 395.534112 -82.536162 
L 394.876031 -84.519183 
L 394.089204 -86.502205 
L 393.159606 -88.485227 
L 392.074801 -90.468248 
L 390.825367 -92.45127 
L 389.406665 -94.434292 
L 387.820861 -96.417313 
L 386.078926 -98.400335 
L 384.202218 -100.383357 
L 382.223121 -102.366378 
L 380.184226 -104.3494 
L 378.135742 -106.332422 
L 376.131166 -108.315443 
L 374.221748 -110.298465 
L 372.45068 -112.281487 
L 370.848196 -114.264509 
L 369.428699 -116.24753 
L 368.190577 -118.230552 
L 367.118756 -120.213574 
L 366.189335 -122.196595 
L 365.375132 -124.179617 
L 364.650849 -126.162639 
L 363.996782 -128.14566 
L 363.400528 -130.128682 
L 362.85678 -132.111704 
L 362.365784 -134.094725 
L 361.931266 -136.077747 
L 361.55854 -138.060769 
L 361.253247 -140.04379 
L 361.020757 -142.026812 
L 360.866039 -144.009834 
L 360.793688 -145.992855 
L 360.807858 -147.975877 
L 360.912064 -149.958899 
L 361.108916 -151.94192 
L 361.399946 -153.924942 
L 361.785619 -155.907964 
L 362.26548 -157.890985 
L 362.838276 -159.874007 
L 363.501881 -161.857029 
L 364.252895 -163.84005 
L 365.08602 -165.823072 
L 365.993427 -167.806094 
L 366.964485 -169.789115 
L 367.986128 -171.772137 
L 369.043975 -173.755159 
L 370.124008 -175.73818 
L 371.214402 -177.721202 
L 372.306916 -179.704224 
L 373.397371 -181.687245 
L 374.484937 -183.670267 
L 375.570342 -185.653289 
L 376.653452 -187.63631 
L 377.730931 -189.619332 
L 378.794713 -191.602354 
L 379.831819 -193.585375 
L 380.825714 -195.568397 
L 381.758903 -197.551419 
L 382.616153 -199.53444 
L 383.387465 -201.517462 
L 384.070035 -203.500484 
L 384.668671 -205.483505 
L 385.194633 -207.466527 
L 385.663277 -209.449549 
L 386.091225 -211.43257 
L 386.493843 -213.415592 
L 386.883661 -215.398614 
L 387.269975 -217.381635 
L 387.659486 -219.364657 
L 388.05747 -221.347679 
L 388.468893 -223.3307 
L 388.898952 -225.313722 
L 389.352817 -227.296744 
L 389.834666 -229.279766 
L 390.346404 -231.262787 
L 390.886524 -233.245809 
L 391.449543 -235.228831 
L 392.026233 -237.211852 
L 392.604599 -239.194874 
L 393.171361 -241.177896 
L 393.713565 -243.160917 
L 394.219973 -245.143939 
L 394.681995 -247.126961 
L 395.094107 -249.109982 
L 395.453802 -251.093004 
L 395.761265 -253.076026 
L 396.018928 -255.059047 
L 396.231019 -257.042069 
L 396.40316 -259.025091 
L 396.541982 -261.008112 
L 396.654713 -262.991134 
L 396.748722 -264.974156 
L 396.831004 -266.957177 
L 396.907673 -268.940199 
L 396.983546 -270.923221 
L 397.061866 -272.906242 
L 397.144227 -274.889264 
L 397.230693 -276.872286 
L 397.320081 -278.855307 
L 397.993688 -278.855307 
L 397.993688 -278.855307 
L 397.993688 -276.872286 
L 397.993688 -274.889264 
L 397.993688 -272.906242 
L 397.993688 -270.923221 
L 397.993688 -268.940199 
L 397.993688 -266.957177 
L 397.993688 -264.974156 
L 397.993688 -262.991134 
L 397.993688 -261.008112 
L 397.993688 -259.025091 
L 397.993688 -257.042069 
L 397.993688 -255.059047 
L 397.993688 -253.076026 
L 397.993688 -251.093004 
L 397.993688 -249.109982 
L 397.993688 -247.126961 
L 397.993688 -245.143939 
L 397.993688 -243.160917 
L 397.993688 -241.177896 
L 397.993688 -239.194874 
L 397.993688 -237.211852 
L 397.993688 -235.228831 
L 397.993688 -233.245809 
L 397.993688 -231.262787 
L 397.993688 -229.279766 
L 397.993688 -227.296744 
L 397.993688 -225.313722 
L 397.993688 -223.3307 
L 397.993688 -221.347679 
L 397.993688 -219.364657 
L 397.993688 -217.381635 
L 397.993688 -215.398614 
L 397.993688 -213.415592 
L 397.993688 -211.43257 
L 397.993688 -209.449549 
L 397.993688 -207.466527 
L 397.993688 -205.483505 
L 397.993688 -203.500484 
L 397.993688 -201.517462 
L 397.993688 -199.53444 
L 397.993688 -197.551419 
L 397.993688 -195.568397 
L 397.993688 -193.585375 
L 397.993688 -191.602354 
L 397.993688 -189.619332 
L 397.993688 -187.63631 
L 397.993688 -185.653289 
L 397.993688 -183.670267 
L 397.993688 -181.687245 
L 397.993688 -179.704224 
L 397.993688 -177.721202 
L 397.993688 -175.73818 
L 397.993688 -173.755159 
L 397.993688 -171.772137 
L 397.993688 -169.789115 
L 397.993688 -167.806094 
L 397.993688 -165.823072 
L 397.993688 -163.84005 
L 397.993688 -161.857029 
L 397.993688 -159.874007 
L 397.993688 -157.890985 
L 397.993688 -155.907964 
L 397.993688 -153.924942 
L 397.993688 -151.94192 
L 397.993688 -149.958899 
L 397.993688 -147.975877 
L 397.993688 -145.992855 
L 397.993688 -144.009834 
L 397.993688 -142.026812 
L 397.993688 -140.04379 
L 397.993688 -138.060769 
L 397.993688 -136.077747 
L 397.993688 -134.094725 
L 397.993688 -132.111704 
L 397.993688 -130.128682 
L 397.993688 -128.14566 
L 397.993688 -126.162639 
L 397.993688 -124.179617 
L 397.993688 -122.196595 
L 397.993688 -120.213574 
L 397.993688 -118.230552 
L 397.993688 -116.24753 
L 397.993688 -114.264509 
L 397.993688 -112.281487 
L 397.993688 -110.298465 
L 397.993688 -108.315443 
L 397.993688 -106.332422 
L 397.993688 -104.3494 
L 397.993688 -102.366378 
L 397.993688 -100.383357 
L 397.993688 -98.400335 
L 397.993688 -96.417313 
L 397.993688 -94.434292 
L 397.993688 -92.45127 
L 397.993688 -90.468248 
L 397.993688 -88.485227 
L 397.993688 -86.502205 
L 397.993688 -84.519183 
L 397.993688 -82.536162 
z
" style="stroke: #6a6a6a"/>
    </defs>
    <g clip-path="url(#p985d5a67f7)">
     <use xlink:href="#m6ad13a337d" x="0" y="399.407438" style="fill: #96cac1; stroke: #6a6a6a"/>
    </g>
   </g>
   <g id="PolyCollection_8">
    <defs>
     <path id="mce74d4ea83" d="M 398.729524 -232.776937 
L 397.993688 -232.776937 
L 397.993688 -233.228367 
L 397.993688 -233.679797 
L 397.993688 -234.131227 
L 397.993688 -234.582657 
L 397.993688 -235.034087 
L 397.993688 -235.485517 
L 397.993688 -235.936947 
L 397.993688 -236.388377 
L 397.993688 -236.839807 
L 397.993688 -237.291237 
L 397.993688 -237.742667 
L 397.993688 -238.194097 
L 397.993688 -238.645527 
L 397.993688 -239.096956 
L 397.993688 -239.548386 
L 397.993688 -239.999816 
L 397.993688 -240.451246 
L 397.993688 -240.902676 
L 397.993688 -241.354106 
L 397.993688 -241.805536 
L 397.993688 -242.256966 
L 397.993688 -242.708396 
L 397.993688 -243.159826 
L 397.993688 -243.611256 
L 397.993688 -244.062686 
L 397.993688 -244.514116 
L 397.993688 -244.965546 
L 397.993688 -245.416976 
L 397.993688 -245.868405 
L 397.993688 -246.319835 
L 397.993688 -246.771265 
L 397.993688 -247.222695 
L 397.993688 -247.674125 
L 397.993688 -248.125555 
L 397.993688 -248.576985 
L 397.993688 -249.028415 
L 397.993688 -249.479845 
L 397.993688 -249.931275 
L 397.993688 -250.382705 
L 397.993688 -250.834135 
L 397.993688 -251.285565 
L 397.993688 -251.736995 
L 397.993688 -252.188425 
L 397.993688 -252.639854 
L 397.993688 -253.091284 
L 397.993688 -253.542714 
L 397.993688 -253.994144 
L 397.993688 -254.445574 
L 397.993688 -254.897004 
L 397.993688 -255.348434 
L 397.993688 -255.799864 
L 397.993688 -256.251294 
L 397.993688 -256.702724 
L 397.993688 -257.154154 
L 397.993688 -257.605584 
L 397.993688 -258.057014 
L 397.993688 -258.508444 
L 397.993688 -258.959874 
L 397.993688 -259.411303 
L 397.993688 -259.862733 
L 397.993688 -260.314163 
L 397.993688 -260.765593 
L 397.993688 -261.217023 
L 397.993688 -261.668453 
L 397.993688 -262.119883 
L 397.993688 -262.571313 
L 397.993688 -263.022743 
L 397.993688 -263.474173 
L 397.993688 -263.925603 
L 397.993688 -264.377033 
L 397.993688 -264.828463 
L 397.993688 -265.279893 
L 397.993688 -265.731323 
L 397.993688 -266.182752 
L 397.993688 -266.634182 
L 397.993688 -267.085612 
L 397.993688 -267.537042 
L 397.993688 -267.988472 
L 397.993688 -268.439902 
L 397.993688 -268.891332 
L 397.993688 -269.342762 
L 397.993688 -269.794192 
L 397.993688 -270.245622 
L 397.993688 -270.697052 
L 397.993688 -271.148482 
L 397.993688 -271.599912 
L 397.993688 -272.051342 
L 397.993688 -272.502772 
L 397.993688 -272.954201 
L 397.993688 -273.405631 
L 397.993688 -273.857061 
L 397.993688 -274.308491 
L 397.993688 -274.759921 
L 397.993688 -275.211351 
L 397.993688 -275.662781 
L 397.993688 -276.114211 
L 397.993688 -276.565641 
L 397.993688 -277.017071 
L 397.993688 -277.468501 
L 398.246266 -277.468501 
L 398.246266 -277.468501 
L 398.254959 -277.017071 
L 398.263751 -276.565641 
L 398.272664 -276.114211 
L 398.281723 -275.662781 
L 398.290958 -275.211351 
L 398.300398 -274.759921 
L 398.310077 -274.308491 
L 398.320028 -273.857061 
L 398.330288 -273.405631 
L 398.34089 -272.954201 
L 398.351868 -272.502772 
L 398.363257 -272.051342 
L 398.375087 -271.599912 
L 398.387385 -271.148482 
L 398.400177 -270.697052 
L 398.413481 -270.245622 
L 398.427312 -269.794192 
L 398.44168 -269.342762 
L 398.456585 -268.891332 
L 398.472023 -268.439902 
L 398.487981 -267.988472 
L 398.504439 -267.537042 
L 398.521367 -267.085612 
L 398.538728 -266.634182 
L 398.556477 -266.182752 
L 398.574561 -265.731323 
L 398.592918 -265.279893 
L 398.61148 -264.828463 
L 398.630172 -264.377033 
L 398.648914 -263.925603 
L 398.667619 -263.474173 
L 398.686199 -263.022743 
L 398.704562 -262.571313 
L 398.722616 -262.119883 
L 398.740269 -261.668453 
L 398.757429 -261.217023 
L 398.774009 -260.765593 
L 398.789927 -260.314163 
L 398.805105 -259.862733 
L 398.819475 -259.411303 
L 398.832976 -258.959874 
L 398.845558 -258.508444 
L 398.85718 -258.057014 
L 398.867815 -257.605584 
L 398.877448 -257.154154 
L 398.886074 -256.702724 
L 398.893704 -256.251294 
L 398.90036 -255.799864 
L 398.906078 -255.348434 
L 398.910903 -254.897004 
L 398.914893 -254.445574 
L 398.918114 -253.994144 
L 398.920644 -253.542714 
L 398.922563 -253.091284 
L 398.92396 -252.639854 
L 398.924927 -252.188425 
L 398.925555 -251.736995 
L 398.925938 -251.285565 
L 398.926166 -250.834135 
L 398.926326 -250.382705 
L 398.926497 -249.931275 
L 398.926751 -249.479845 
L 398.927152 -249.028415 
L 398.92775 -248.576985 
L 398.928587 -248.125555 
L 398.929688 -247.674125 
L 398.931066 -247.222695 
L 398.932719 -246.771265 
L 398.934632 -246.319835 
L 398.936773 -245.868405 
L 398.939097 -245.416976 
L 398.941546 -244.965546 
L 398.944049 -244.514116 
L 398.946523 -244.062686 
L 398.948877 -243.611256 
L 398.95101 -243.159826 
L 398.952814 -242.708396 
L 398.954177 -242.256966 
L 398.954984 -241.805536 
L 398.955119 -241.354106 
L 398.954468 -240.902676 
L 398.95292 -240.451246 
L 398.950369 -239.999816 
L 398.946717 -239.548386 
L 398.941873 -239.096956 
L 398.935758 -238.645527 
L 398.928306 -238.194097 
L 398.919461 -237.742667 
L 398.909183 -237.291237 
L 398.897448 -236.839807 
L 398.884245 -236.388377 
L 398.869579 -235.936947 
L 398.85347 -235.485517 
L 398.835956 -235.034087 
L 398.817086 -234.582657 
L 398.796925 -234.131227 
L 398.77555 -233.679797 
L 398.753049 -233.228367 
L 398.729524 -232.776937 
z
" style="stroke: #6a6a6a"/>
    </defs>
    <g clip-path="url(#p985d5a67f7)">
     <use xlink:href="#mce74d4ea83" x="0" y="399.407438" style="fill: #f6f6bc; stroke: #6a6a6a"/>
    </g>
   </g>
   <g id="PolyCollection_9">
    <defs>
     <path id="mabf62e7f02" d="M 490.993688 -74.687438 
L 490.397523 -74.687438 
L 490.341133 -76.547811 
L 490.289856 -78.408185 
L 490.234612 -80.268559 
L 490.161776 -82.128933 
L 490.054284 -83.989307 
L 489.892983 -85.849681 
L 489.657821 -87.710054 
L 489.328703 -89.570428 
L 488.886111 -91.430802 
L 488.311745 -93.291176 
L 487.589409 -95.15155 
L 486.706088 -97.011924 
L 485.652919 -98.872298 
L 484.425642 -100.732671 
L 483.024267 -102.593045 
L 481.452148 -104.453419 
L 479.715034 -106.313793 
L 477.820865 -108.174167 
L 475.780824 -110.034541 
L 473.6116 -111.894915 
L 471.33818 -113.755288 
L 468.996162 -115.615662 
L 466.632681 -117.476036 
L 464.305435 -119.33641 
L 462.079752 -121.196784 
L 460.023897 -123.057158 
L 458.202882 -124.917532 
L 456.671274 -126.777905 
L 455.465903 -128.638279 
L 454.599996 -130.498653 
L 454.060533 -132.359027 
L 453.810161 -134.219401 
L 453.793688 -136.079775 
L 453.947639 -137.940149 
L 454.210281 -139.800522 
L 454.529624 -141.660896 
L 454.86808 -143.52127 
L 455.204003 -145.381644 
L 455.531402 -147.242018 
L 455.859126 -149.102392 
L 456.209991 -150.962766 
L 456.619268 -152.823139 
L 457.131418 -154.683513 
L 457.794336 -156.543887 
L 458.651287 -158.404261 
L 459.731843 -160.264635 
L 461.043805 -162.125009 
L 462.568153 -163.985383 
L 464.258604 -165.845756 
L 466.046482 -167.70613 
L 467.850542 -169.566504 
L 469.590191 -171.426878 
L 471.199483 -173.287252 
L 472.638595 -175.147626 
L 473.899715 -177.007999 
L 475.005456 -178.868373 
L 475.999931 -180.728747 
L 476.934825 -182.589121 
L 477.85433 -184.449495 
L 478.783192 -186.309869 
L 479.721142 -188.170243 
L 480.645027 -190.030616 
L 481.517686 -191.89099 
L 482.300659 -193.751364 
L 482.966807 -195.611738 
L 483.509073 -197.472112 
L 483.942919 -199.332486 
L 484.301991 -201.19286 
L 484.628659 -203.053233 
L 484.962591 -204.913607 
L 485.330903 -206.773981 
L 485.742697 -208.634355 
L 486.189185 -210.494729 
L 486.648795 -212.355103 
L 487.095155 -214.215477 
L 487.505253 -216.07585 
L 487.86532 -217.936224 
L 488.173015 -219.796598 
L 488.435849 -221.656972 
L 488.666965 -223.517346 
L 488.880088 -225.37772 
L 489.085363 -227.238094 
L 489.287251 -229.098467 
L 489.484694 -230.958841 
L 489.672974 -232.819215 
L 489.846276 -234.679589 
L 489.99991 -236.539963 
L 490.13158 -238.400337 
L 490.241502 -240.260711 
L 490.331691 -242.121084 
L 490.404894 -243.981458 
L 490.463715 -245.841832 
L 490.510241 -247.702206 
L 490.546214 -249.56258 
L 490.573534 -251.422954 
L 490.594721 -253.283328 
L 490.613034 -255.143701 
L 490.632093 -257.004075 
L 490.655143 -258.864449 
L 490.993688 -258.864449 
L 490.993688 -258.864449 
L 490.993688 -257.004075 
L 490.993688 -255.143701 
L 490.993688 -253.283328 
L 490.993688 -251.422954 
L 490.993688 -249.56258 
L 490.993688 -247.702206 
L 490.993688 -245.841832 
L 490.993688 -243.981458 
L 490.993688 -242.121084 
L 490.993688 -240.260711 
L 490.993688 -238.400337 
L 490.993688 -236.539963 
L 490.993688 -234.679589 
L 490.993688 -232.819215 
L 490.993688 -230.958841 
L 490.993688 -229.098467 
L 490.993688 -227.238094 
L 490.993688 -225.37772 
L 490.993688 -223.517346 
L 490.993688 -221.656972 
L 490.993688 -219.796598 
L 490.993688 -217.936224 
L 490.993688 -216.07585 
L 490.993688 -214.215477 
L 490.993688 -212.355103 
L 490.993688 -210.494729 
L 490.993688 -208.634355 
L 490.993688 -206.773981 
L 490.993688 -204.913607 
L 490.993688 -203.053233 
L 490.993688 -201.19286 
L 490.993688 -199.332486 
L 490.993688 -197.472112 
L 490.993688 -195.611738 
L 490.993688 -193.751364 
L 490.993688 -191.89099 
L 490.993688 -190.030616 
L 490.993688 -188.170243 
L 490.993688 -186.309869 
L 490.993688 -184.449495 
L 490.993688 -182.589121 
L 490.993688 -180.728747 
L 490.993688 -178.868373 
L 490.993688 -177.007999 
L 490.993688 -175.147626 
L 490.993688 -173.287252 
L 490.993688 -171.426878 
L 490.993688 -169.566504 
L 490.993688 -167.70613 
L 490.993688 -165.845756 
L 490.993688 -163.985383 
L 490.993688 -162.125009 
L 490.993688 -160.264635 
L 490.993688 -158.404261 
L 490.993688 -156.543887 
L 490.993688 -154.683513 
L 490.993688 -152.823139 
L 490.993688 -150.962766 
L 490.993688 -149.102392 
L 490.993688 -147.242018 
L 490.993688 -145.381644 
L 490.993688 -143.52127 
L 490.993688 -141.660896 
L 490.993688 -139.800522 
L 490.993688 -137.940149 
L 490.993688 -136.079775 
L 490.993688 -134.219401 
L 490.993688 -132.359027 
L 490.993688 -130.498653 
L 490.993688 -128.638279 
L 490.993688 -126.777905 
L 490.993688 -124.917532 
L 490.993688 -123.057158 
L 490.993688 -121.196784 
L 490.993688 -119.33641 
L 490.993688 -117.476036 
L 490.993688 -115.615662 
L 490.993688 -113.755288 
L 490.993688 -111.894915 
L 490.993688 -110.034541 
L 490.993688 -108.174167 
L 490.993688 -106.313793 
L 490.993688 -104.453419 
L 490.993688 -102.593045 
L 490.993688 -100.732671 
L 490.993688 -98.872298 
L 490.993688 -97.011924 
L 490.993688 -95.15155 
L 490.993688 -93.291176 
L 490.993688 -91.430802 
L 490.993688 -89.570428 
L 490.993688 -87.710054 
L 490.993688 -85.849681 
L 490.993688 -83.989307 
L 490.993688 -82.128933 
L 490.993688 -80.268559 
L 490.993688 -78.408185 
L 490.993688 -76.547811 
L 490.993688 -74.687438 
z
" style="stroke: #6a6a6a"/>
    </defs>
    <g clip-path="url(#p985d5a67f7)">
     <use xlink:href="#mabf62e7f02" x="0" y="399.407438" style="fill: #96cac1; stroke: #6a6a6a"/>
    </g>
   </g>
   <g id="PolyCollection_10">
    <defs>
     <path id="mb90e157bcb" d="M 583.993687 -115.311072 
L 579.416456 -115.311072 
L 578.868202 -116.94681 
L 578.299916 -118.582548 
L 577.702032 -120.218286 
L 577.061193 -121.854024 
L 576.361859 -123.489762 
L 575.588467 -125.1255 
L 574.727779 -126.761238 
L 573.771082 -128.396976 
L 572.715859 -130.032714 
L 571.566669 -131.668452 
L 570.335111 -133.30419 
L 569.038868 -134.939928 
L 567.700032 -136.575666 
L 566.342987 -138.211404 
L 564.992215 -139.847142 
L 563.670351 -141.482881 
L 562.396758 -143.118619 
L 561.186722 -144.754357 
L 560.051248 -146.390095 
L 558.997276 -148.025833 
L 558.028105 -149.661571 
L 557.14379 -151.297309 
L 556.341383 -152.933047 
L 555.615006 -154.568785 
L 554.955876 -156.204523 
L 554.352478 -157.840261 
L 553.791092 -159.475999 
L 553.2568 -161.111737 
L 552.734939 -162.747475 
L 552.21282 -164.383213 
L 551.681412 -166.018951 
L 551.13663 -167.654689 
L 550.579932 -169.290427 
L 550.018093 -170.926166 
L 549.462198 -172.561904 
L 548.926072 -174.197642 
L 548.424518 -175.83338 
L 547.971717 -177.469118 
L 547.580076 -179.104856 
L 547.259668 -180.740594 
L 547.018224 -182.376332 
L 546.861487 -184.01207 
L 546.793687 -185.647808 
L 546.817896 -187.283546 
L 546.936098 -188.919284 
L 547.14898 -190.555022 
L 547.455524 -192.19076 
L 547.852614 -193.826498 
L 548.334875 -195.462236 
L 548.894908 -197.097974 
L 549.524007 -198.733712 
L 550.213281 -200.36945 
L 550.954982 -202.005189 
L 551.743762 -203.640927 
L 552.577551 -205.276665 
L 553.457793 -206.912403 
L 554.388909 -208.548141 
L 555.37703 -210.183879 
L 556.428174 -211.819617 
L 557.546215 -213.455355 
L 558.731026 -215.091093 
L 559.977179 -216.726831 
L 561.273455 -218.362569 
L 562.603305 -219.998307 
L 563.946181 -221.634045 
L 565.279519 -223.269783 
L 566.581042 -224.905521 
L 567.830985 -226.541259 
L 569.013895 -228.176997 
L 570.11975 -229.812735 
L 571.144244 -231.448473 
L 572.088291 -233.084212 
L 572.95688 -234.71995 
L 573.757546 -236.355688 
L 574.498756 -237.991426 
L 575.18849 -239.627164 
L 575.833224 -241.262902 
L 576.437433 -242.89864 
L 577.003604 -244.534378 
L 577.532659 -246.170116 
L 578.024616 -247.805854 
L 578.479302 -249.441592 
L 578.896959 -251.07733 
L 579.278622 -252.713068 
L 579.626248 -254.348806 
L 579.942612 -255.984544 
L 580.231055 -257.620282 
L 580.495179 -259.25602 
L 580.73856 -260.891758 
L 580.964552 -262.527497 
L 581.176188 -264.163235 
L 581.376168 -265.798973 
L 581.56689 -267.434711 
L 581.750481 -269.070449 
L 581.928791 -270.706187 
L 582.103335 -272.341925 
L 582.275187 -273.977663 
L 582.444857 -275.613401 
L 582.612189 -277.249139 
L 583.993687 -277.249139 
L 583.993687 -277.249139 
L 583.993687 -275.613401 
L 583.993687 -273.977663 
L 583.993687 -272.341925 
L 583.993687 -270.706187 
L 583.993687 -269.070449 
L 583.993687 -267.434711 
L 583.993687 -265.798973 
L 583.993687 -264.163235 
L 583.993687 -262.527497 
L 583.993687 -260.891758 
L 583.993687 -259.25602 
L 583.993687 -257.620282 
L 583.993687 -255.984544 
L 583.993687 -254.348806 
L 583.993687 -252.713068 
L 583.993687 -251.07733 
L 583.993687 -249.441592 
L 583.993687 -247.805854 
L 583.993687 -246.170116 
L 583.993687 -244.534378 
L 583.993687 -242.89864 
L 583.993687 -241.262902 
L 583.993687 -239.627164 
L 583.993687 -237.991426 
L 583.993687 -236.355688 
L 583.993687 -234.71995 
L 583.993687 -233.084212 
L 583.993687 -231.448473 
L 583.993687 -229.812735 
L 583.993687 -228.176997 
L 583.993687 -226.541259 
L 583.993687 -224.905521 
L 583.993687 -223.269783 
L 583.993687 -221.634045 
L 583.993687 -219.998307 
L 583.993687 -218.362569 
L 583.993687 -216.726831 
L 583.993687 -215.091093 
L 583.993687 -213.455355 
L 583.993687 -211.819617 
L 583.993687 -210.183879 
L 583.993687 -208.548141 
L 583.993687 -206.912403 
L 583.993687 -205.276665 
L 583.993687 -203.640927 
L 583.993687 -202.005189 
L 583.993687 -200.36945 
L 583.993687 -198.733712 
L 583.993687 -197.097974 
L 583.993687 -195.462236 
L 583.993687 -193.826498 
L 583.993687 -192.19076 
L 583.993687 -190.555022 
L 583.993687 -188.919284 
L 583.993687 -187.283546 
L 583.993687 -185.647808 
L 583.993687 -184.01207 
L 583.993687 -182.376332 
L 583.993687 -180.740594 
L 583.993687 -179.104856 
L 583.993687 -177.469118 
L 583.993687 -175.83338 
L 583.993687 -174.197642 
L 583.993687 -172.561904 
L 583.993687 -170.926166 
L 583.993687 -169.290427 
L 583.993687 -167.654689 
L 583.993687 -166.018951 
L 583.993687 -164.383213 
L 583.993687 -162.747475 
L 583.993687 -161.111737 
L 583.993687 -159.475999 
L 583.993687 -157.840261 
L 583.993687 -156.204523 
L 583.993687 -154.568785 
L 583.993687 -152.933047 
L 583.993687 -151.297309 
L 583.993687 -149.661571 
L 583.993687 -148.025833 
L 583.993687 -146.390095 
L 583.993687 -144.754357 
L 583.993687 -143.118619 
L 583.993687 -141.482881 
L 583.993687 -139.847142 
L 583.993687 -138.211404 
L 583.993687 -136.575666 
L 583.993687 -134.939928 
L 583.993687 -133.30419 
L 583.993687 -131.668452 
L 583.993687 -130.032714 
L 583.993687 -128.396976 
L 583.993687 -126.761238 
L 583.993687 -125.1255 
L 583.993687 -123.489762 
L 583.993687 -121.854024 
L 583.993687 -120.218286 
L 583.993687 -118.582548 
L 583.993687 -116.94681 
L 583.993687 -115.311072 
z
" style="stroke: #6a6a6a"/>
    </defs>
    <g clip-path="url(#p985d5a67f7)">
     <use xlink:href="#mb90e157bcb" x="0" y="399.407438" style="fill: #96cac1; stroke: #6a6a6a"/>
    </g>
   </g>
   <g id="PolyCollection_11">
    <defs>
     <path id="m4fc5c52fdc" d="M 587.709969 -231.599152 
L 583.993687 -231.599152 
L 583.993687 -232.544649 
L 583.993687 -233.490146 
L 583.993687 -234.435644 
L 583.993687 -235.381141 
L 583.993687 -236.326638 
L 583.993687 -237.272135 
L 583.993687 -238.217632 
L 583.993687 -239.163129 
L 583.993687 -240.108626 
L 583.993687 -241.054124 
L 583.993687 -241.999621 
L 583.993687 -242.945118 
L 583.993687 -243.890615 
L 583.993687 -244.836112 
L 583.993687 -245.781609 
L 583.993687 -246.727107 
L 583.993687 -247.672604 
L 583.993687 -248.618101 
L 583.993687 -249.563598 
L 583.993687 -250.509095 
L 583.993687 -251.454592 
L 583.993687 -252.40009 
L 583.993687 -253.345587 
L 583.993687 -254.291084 
L 583.993687 -255.236581 
L 583.993687 -256.182078 
L 583.993687 -257.127575 
L 583.993687 -258.073072 
L 583.993687 -259.01857 
L 583.993687 -259.964067 
L 583.993687 -260.909564 
L 583.993687 -261.855061 
L 583.993687 -262.800558 
L 583.993687 -263.746055 
L 583.993687 -264.691553 
L 583.993687 -265.63705 
L 583.993687 -266.582547 
L 583.993687 -267.528044 
L 583.993687 -268.473541 
L 583.993687 -269.419038 
L 583.993687 -270.364536 
L 583.993687 -271.310033 
L 583.993687 -272.25553 
L 583.993687 -273.201027 
L 583.993687 -274.146524 
L 583.993687 -275.092021 
L 583.993687 -276.037518 
L 583.993687 -276.983016 
L 583.993687 -277.928513 
L 583.993687 -278.87401 
L 583.993687 -279.819507 
L 583.993687 -280.765004 
L 583.993687 -281.710501 
L 583.993687 -282.655999 
L 583.993687 -283.601496 
L 583.993687 -284.546993 
L 583.993687 -285.49249 
L 583.993687 -286.437987 
L 583.993687 -287.383484 
L 583.993687 -288.328982 
L 583.993687 -289.274479 
L 583.993687 -290.219976 
L 583.993687 -291.165473 
L 583.993687 -292.11097 
L 583.993687 -293.056467 
L 583.993687 -294.001964 
L 583.993687 -294.947462 
L 583.993687 -295.892959 
L 583.993687 -296.838456 
L 583.993687 -297.783953 
L 583.993687 -298.72945 
L 583.993687 -299.674947 
L 583.993687 -300.620445 
L 583.993687 -301.565942 
L 583.993687 -302.511439 
L 583.993687 -303.456936 
L 583.993687 -304.402433 
L 583.993687 -305.34793 
L 583.993687 -306.293428 
L 583.993687 -307.238925 
L 583.993687 -308.184422 
L 583.993687 -309.129919 
L 583.993687 -310.075416 
L 583.993687 -311.020913 
L 583.993687 -311.96641 
L 583.993687 -312.911908 
L 583.993687 -313.857405 
L 583.993687 -314.802902 
L 583.993687 -315.748399 
L 583.993687 -316.693896 
L 583.993687 -317.639393 
L 583.993687 -318.584891 
L 583.993687 -319.530388 
L 583.993687 -320.475885 
L 583.993687 -321.421382 
L 583.993687 -322.366879 
L 583.993687 -323.312376 
L 583.993687 -324.257874 
L 583.993687 -325.203371 
L 584.567512 -325.203371 
L 584.567512 -325.203371 
L 584.610543 -324.257874 
L 584.654848 -323.312376 
L 584.700346 -322.366879 
L 584.74696 -321.421382 
L 584.794623 -320.475885 
L 584.843276 -319.530388 
L 584.892874 -318.584891 
L 584.943387 -317.639393 
L 584.994798 -316.693896 
L 585.047108 -315.748399 
L 585.100329 -314.802902 
L 585.154484 -313.857405 
L 585.209601 -312.911908 
L 585.265706 -311.96641 
L 585.322817 -311.020913 
L 585.380935 -310.075416 
L 585.440033 -309.129919 
L 585.500047 -308.184422 
L 585.56087 -307.238925 
L 585.622343 -306.293428 
L 585.684248 -305.34793 
L 585.746305 -304.402433 
L 585.808177 -303.456936 
L 585.869465 -302.511439 
L 585.929724 -301.565942 
L 585.988465 -300.620445 
L 586.045177 -299.674947 
L 586.099338 -298.72945 
L 586.15044 -297.783953 
L 586.198007 -296.838456 
L 586.241616 -295.892959 
L 586.280925 -294.947462 
L 586.315689 -294.001964 
L 586.345784 -293.056467 
L 586.37122 -292.11097 
L 586.392154 -291.165473 
L 586.4089 -290.219976 
L 586.421934 -289.274479 
L 586.431887 -288.328982 
L 586.439545 -287.383484 
L 586.445831 -286.437987 
L 586.451787 -285.49249 
L 586.458558 -284.546993 
L 586.467359 -283.601496 
L 586.479448 -282.655999 
L 586.496093 -281.710501 
L 586.518539 -280.765004 
L 586.547971 -279.819507 
L 586.585482 -278.87401 
L 586.632037 -277.928513 
L 586.688446 -276.983016 
L 586.75533 -276.037518 
L 586.833106 -275.092021 
L 586.92196 -274.146524 
L 587.021839 -273.201027 
L 587.132439 -272.25553 
L 587.253211 -271.310033 
L 587.383358 -270.364536 
L 587.521854 -269.419038 
L 587.667458 -268.473541 
L 587.818744 -267.528044 
L 587.974123 -266.582547 
L 588.131886 -265.63705 
L 588.290237 -264.691553 
L 588.44734 -263.746055 
L 588.601356 -262.800558 
L 588.750488 -261.855061 
L 588.893027 -260.909564 
L 589.027385 -259.964067 
L 589.152131 -259.01857 
L 589.266023 -258.073072 
L 589.368028 -257.127575 
L 589.457334 -256.182078 
L 589.533362 -255.236581 
L 589.595757 -254.291084 
L 589.644383 -253.345587 
L 589.679298 -252.40009 
L 589.700731 -251.454592 
L 589.709051 -250.509095 
L 589.704729 -249.563598 
L 589.688297 -248.618101 
L 589.660318 -247.672604 
L 589.62134 -246.727107 
L 589.571873 -245.781609 
L 589.512357 -244.836112 
L 589.443145 -243.890615 
L 589.364498 -242.945118 
L 589.276579 -241.999621 
L 589.179465 -241.054124 
L 589.073166 -240.108626 
L 588.957649 -239.163129 
L 588.832869 -238.217632 
L 588.698805 -237.272135 
L 588.555496 -236.326638 
L 588.403076 -235.381141 
L 588.24181 -234.435644 
L 588.072113 -233.490146 
L 587.894575 -232.544649 
L 587.709969 -231.599152 
z
" style="stroke: #6a6a6a"/>
    </defs>
    <g clip-path="url(#p985d5a67f7)">
     <use xlink:href="#m4fc5c52fdc" x="0" y="399.407438" style="fill: #f6f6bc; stroke: #6a6a6a"/>
    </g>
   </g>
   <g id="line2d_12">
    <path d="M 118.993688 318.932665 
L 118.993688 22.32 
" clip-path="url(#p985d5a67f7)" style="fill: none; stroke: #6a6a6a; stroke-linecap: round"/>
   </g>
   <g id="line2d_13">
    <path d="M 118.993688 196.542992 
L 118.993688 105.817816 
" clip-path="url(#p985d5a67f7)" style="fill: none; stroke: #6a6a6a; stroke-width: 3; stroke-linecap: round"/>
   </g>
   <g id="line2d_14">
    <path d="M 211.993688 310.926048 
L 211.993688 108.856842 
" clip-path="url(#p985d5a67f7)" style="fill: none; stroke: #6a6a6a; stroke-linecap: round"/>
   </g>
   <g id="line2d_15">
    <path d="M 211.993688 249.233296 
L 211.993688 191.984113 
" clip-path="url(#p985d5a67f7)" style="fill: none; stroke: #6a6a6a; stroke-width: 3; stroke-linecap: round"/>
   </g>
   <g id="line2d_16">
    <path d="M 304.993688 285.089232 
L 304.993688 28.153755 
" clip-path="url(#p985d5a67f7)" style="fill: none; stroke: #6a6a6a; stroke-linecap: round"/>
   </g>
   <g id="line2d_17">
    <path d="M 304.993688 198.722108 
L 304.993688 126.349241 
" clip-path="url(#p985d5a67f7)" style="fill: none; stroke: #6a6a6a; stroke-width: 3; stroke-linecap: round"/>
   </g>
   <g id="line2d_18">
    <path d="M 397.993688 316.871276 
L 397.993688 139.181482 
" clip-path="url(#p985d5a67f7)" style="fill: none; stroke: #6a6a6a; stroke-linecap: round"/>
   </g>
   <g id="line2d_19">
    <path d="M 397.993688 268.882673 
L 397.993688 216.970562 
" clip-path="url(#p985d5a67f7)" style="fill: none; stroke: #6a6a6a; stroke-width: 3; stroke-linecap: round"/>
   </g>
   <g id="line2d_20">
    <path d="M 490.993688 321.02737 
L 490.993688 185.908314 
" clip-path="url(#p985d5a67f7)" style="fill: none; stroke: #6a6a6a; stroke-linecap: round"/>
   </g>
   <g id="line2d_21">
    <path d="M 490.993688 270.128307 
L 490.993688 234.373225 
" clip-path="url(#p985d5a67f7)" style="fill: none; stroke: #6a6a6a; stroke-width: 3; stroke-linecap: round"/>
   </g>
   <g id="line2d_22">
    <path d="M 509.552628 139.103112 
L 509.634747 139.103112 
" clip-path="url(#p985d5a67f7)" style="fill: none; stroke: #6a6a6a; stroke-linecap: round"/>
   </g>
   <g id="line2d_23">
    <path d="M 583.993687 284.096366 
L 583.993687 100.287755 
" clip-path="url(#p985d5a67f7)" style="fill: none; stroke: #6a6a6a; stroke-linecap: round"/>
   </g>
   <g id="line2d_24">
    <path d="M 583.993687 235.967762 
L 583.993687 181.3316 
" clip-path="url(#p985d5a67f7)" style="fill: none; stroke: #6a6a6a; stroke-width: 3; stroke-linecap: round"/>
   </g>
   <g id="patch_5">
    <path d="M 72.493688 339.84 
L 72.493688 7.2 
" style="fill: none; stroke: #262626; stroke-width: 2.5; stroke-linejoin: miter; stroke-linecap: square"/>
   </g>
   <g id="patch_6">
    <path d="M 630.493687 339.84 
L 630.493687 7.2 
" style="fill: none; stroke: #262626; stroke-width: 2.5; stroke-linejoin: miter; stroke-linecap: square"/>
   </g>
   <g id="patch_7">
    <path d="M 72.493688 339.84 
L 630.493687 339.84 
" style="fill: none; stroke: #262626; stroke-width: 2.5; stroke-linejoin: miter; stroke-linecap: square"/>
   </g>
   <g id="patch_8">
    <path d="M 72.493688 7.2 
L 630.493687 7.2 
" style="fill: none; stroke: #262626; stroke-width: 2.5; stroke-linejoin: miter; stroke-linecap: square"/>
   </g>
   <g id="PathCollection_1">
    <defs>
     <path id="maa20aca406" d="M 0 1 
C 0.265203 1 0.51958 0.894634 0.707107 0.707107 
C 0.894634 0.51958 1 0.265203 1 0 
C 1 -0.265203 0.894634 -0.51958 0.707107 -0.707107 
C 0.51958 -0.894634 0.265203 -1 0 -1 
C -0.265203 -1 -0.51958 -0.894634 -0.707107 -0.707107 
C -0.894634 -0.51958 -1 -0.265203 -1 0 
C -1 0.265203 -0.894634 0.51958 -0.707107 0.707107 
C -0.51958 0.894634 -0.265203 1 0 1 
z
" style="stroke: #6a6a6a; stroke-width: 0.8"/>
    </defs>
    <g clip-path="url(#p985d5a67f7)">
     <use xlink:href="#maa20aca406" x="118.993688" y="152.889937" style="fill: #ffffff; stroke: #6a6a6a; stroke-width: 0.8"/>
    </g>
   </g>
   <g id="PathCollection_2">
    <g clip-path="url(#p985d5a67f7)">
     <use xlink:href="#maa20aca406" x="211.993688" y="223.32866" style="fill: #ffffff; stroke: #6a6a6a; stroke-width: 0.8"/>
    </g>
   </g>
   <g id="PathCollection_3">
    <g clip-path="url(#p985d5a67f7)">
     <use xlink:href="#maa20aca406" x="304.993688" y="163.887982" style="fill: #ffffff; stroke: #6a6a6a; stroke-width: 0.8"/>
    </g>
   </g>
   <g id="PathCollection_4">
    <g clip-path="url(#p985d5a67f7)">
     <use xlink:href="#maa20aca406" x="397.993688" y="245.971812" style="fill: #ffffff; stroke: #6a6a6a; stroke-width: 0.8"/>
    </g>
   </g>
   <g id="PathCollection_5">
    <g clip-path="url(#p985d5a67f7)">
     <use xlink:href="#maa20aca406" x="490.993688" y="253.96261" style="fill: #ffffff; stroke: #6a6a6a; stroke-width: 0.8"/>
    </g>
   </g>
   <g id="PathCollection_6">
    <g clip-path="url(#p985d5a67f7)">
     <use xlink:href="#maa20aca406" x="583.993687" y="209.677033" style="fill: #ffffff; stroke: #6a6a6a; stroke-width: 0.8"/>
    </g>
   </g>
   <g id="legend_1">
    <g id="patch_9">
     <path d="M 531.6855 71.265375 
L 626.533687 71.265375 
Q 630.493687 71.265375 630.493687 67.305375 
L 630.493687 11.16 
Q 630.493687 7.2 626.533687 7.2 
L 531.6855 7.2 
Q 527.7255 7.2 527.7255 11.16 
L 527.7255 67.305375 
Q 527.7255 71.265375 531.6855 71.265375 
z
" style="fill: #ffffff; opacity: 0.8; stroke: #cccccc; stroke-width: 0.8; stroke-linejoin: miter"/>
    </g>
    <g id="patch_10">
     <path d="M 535.6455 30.164906 
L 575.2455 30.164906 
L 575.2455 16.304906 
L 535.6455 16.304906 
z
" style="fill: #96cac1; stroke: #6a6a6a; stroke-width: 0.5; stroke-linejoin: miter"/>
    </g>
    <g id="text_14">
     <!-- 0.0 -->
     <g style="fill: #262626" transform="translate(591.0855 30.164906) scale(0.198 -0.198)">
      <use xlink:href="#DejaVuSans-30"/>
      <use xlink:href="#DejaVuSans-2e" x="63.623047"/>
      <use xlink:href="#DejaVuSans-30" x="95.410156"/>
     </g>
    </g>
    <g id="patch_11">
     <path d="M 535.6455 59.227594 
L 575.2455 59.227594 
L 575.2455 45.367594 
L 535.6455 45.367594 
z
" style="fill: #f6f6bc; stroke: #6a6a6a; stroke-width: 0.5; stroke-linejoin: miter"/>
    </g>
    <g id="text_15">
     <!-- 1.0 -->
     <g style="fill: #262626" transform="translate(591.0855 59.227594) scale(0.198 -0.198)">
      <use xlink:href="#DejaVuSans-31"/>
      <use xlink:href="#DejaVuSans-2e" x="63.623047"/>
      <use xlink:href="#DejaVuSans-30" x="95.410156"/>
     </g>
    </g>
   </g>
  </g>
 </g>
 <defs>
  <clipPath id="p985d5a67f7">
   <rect x="72.493688" y="7.2" width="558" height="332.64"/>
  </clipPath>
 </defs>
</svg>
