<?xml version="1.0" encoding="utf-8" standalone="no"?>
<!DOCTYPE svg PUBLIC "-//W3C//DTD SVG 1.1//EN"
  "http://www.w3.org/Graphics/SVG/1.1/DTD/svg11.dtd">
<svg xmlns:xlink="http://www.w3.org/1999/xlink" width="637.693688pt" height="399.407438pt" viewBox="0 0 637.693688 399.407438" xmlns="http://www.w3.org/2000/svg" version="1.1">
 <metadata>
  <rdf:RDF xmlns:dc="http://purl.org/dc/elements/1.1/" xmlns:cc="http://creativecommons.org/ns#" xmlns:rdf="http://www.w3.org/1999/02/22-rdf-syntax-ns#">
   <cc:Work>
    <dc:type rdf:resource="http://purl.org/dc/dcmitype/StillImage"/>
    <dc:date>2023-05-08T14:10:23.366312</dc:date>
    <dc:format>image/svg+xml</dc:format>
    <dc:creator>
     <cc:Agent>
      <dc:title>Matplotlib v3.7.1, https://matplotlib.org/</dc:title>
     </cc:Agent>
    </dc:creator>
   </cc:Work>
  </rdf:RDF>
 </metadata>
 <defs>
  <style type="text/css">*{stroke-linejoin: round; stroke-linecap: butt}</style>
 </defs>
 <g id="figure_1">
  <g id="patch_1">
   <path d="M 0 399.407438 
L 637.693688 399.407438 
L 637.693688 0 
L 0 0 
L 0 399.407438 
z
" style="fill: none"/>
  </g>
  <g id="axes_1">
   <g id="patch_2">
    <path d="M 72.493688 339.84 
L 630.493687 339.84 
L 630.493687 7.2 
L 72.493688 7.2 
L 72.493688 339.84 
z
" style="fill: none"/>
   </g>
   <g id="matplotlib.axis_1">
    <g id="xtick_1">
     <g id="line2d_1">
      <defs>
       <path id="mcde79ceaa5" d="M 0 0 
L 0 4.8 
" style="stroke: #262626; stroke-width: 2.5"/>
      </defs>
      <g>
       <use xlink:href="#mcde79ceaa5" x="118.993688" y="339.84" style="fill: #262626; stroke: #262626; stroke-width: 2.5"/>
      </g>
     </g>
     <g id="text_1">
      <!-- 0 -->
      <g style="fill: #262626" transform="translate(112.694813 363.184906) scale(0.198 -0.198)">
       <defs>
        <path id="DejaVuSans-30" d="M 2034 4250 
Q 1547 4250 1301 3770 
Q 1056 3291 1056 2328 
Q 1056 1369 1301 889 
Q 1547 409 2034 409 
Q 2525 409 2770 889 
Q 3016 1369 3016 2328 
Q 3016 3291 2770 3770 
Q 2525 4250 2034 4250 
z
M 2034 4750 
Q 2819 4750 3233 4129 
Q 3647 3509 3647 2328 
Q 3647 1150 3233 529 
Q 2819 -91 2034 -91 
Q 1250 -91 836 529 
Q 422 1150 422 2328 
Q 422 3509 836 4129 
Q 1250 4750 2034 4750 
z
" transform="scale(0.015625)"/>
       </defs>
       <use xlink:href="#DejaVuSans-30"/>
      </g>
     </g>
    </g>
    <g id="xtick_2">
     <g id="line2d_2">
      <g>
       <use xlink:href="#mcde79ceaa5" x="211.993688" y="339.84" style="fill: #262626; stroke: #262626; stroke-width: 2.5"/>
      </g>
     </g>
     <g id="text_2">
      <!-- 1 -->
      <g style="fill: #262626" transform="translate(205.694813 363.184906) scale(0.198 -0.198)">
       <defs>
        <path id="DejaVuSans-31" d="M 794 531 
L 1825 531 
L 1825 4091 
L 703 3866 
L 703 4441 
L 1819 4666 
L 2450 4666 
L 2450 531 
L 3481 531 
L 3481 0 
L 794 0 
L 794 531 
z
" transform="scale(0.015625)"/>
       </defs>
       <use xlink:href="#DejaVuSans-31"/>
      </g>
     </g>
    </g>
    <g id="xtick_3">
     <g id="line2d_3">
      <g>
       <use xlink:href="#mcde79ceaa5" x="304.993688" y="339.84" style="fill: #262626; stroke: #262626; stroke-width: 2.5"/>
      </g>
     </g>
     <g id="text_3">
      <!-- 6 -->
      <g style="fill: #262626" transform="translate(298.694813 363.184906) scale(0.198 -0.198)">
       <defs>
        <path id="DejaVuSans-36" d="M 2113 2584 
Q 1688 2584 1439 2293 
Q 1191 2003 1191 1497 
Q 1191 994 1439 701 
Q 1688 409 2113 409 
Q 2538 409 2786 701 
Q 3034 994 3034 1497 
Q 3034 2003 2786 2293 
Q 2538 2584 2113 2584 
z
M 3366 4563 
L 3366 3988 
Q 3128 4100 2886 4159 
Q 2644 4219 2406 4219 
Q 1781 4219 1451 3797 
Q 1122 3375 1075 2522 
Q 1259 2794 1537 2939 
Q 1816 3084 2150 3084 
Q 2853 3084 3261 2657 
Q 3669 2231 3669 1497 
Q 3669 778 3244 343 
Q 2819 -91 2113 -91 
Q 1303 -91 875 529 
Q 447 1150 447 2328 
Q 447 3434 972 4092 
Q 1497 4750 2381 4750 
Q 2619 4750 2861 4703 
Q 3103 4656 3366 4563 
z
" transform="scale(0.015625)"/>
       </defs>
       <use xlink:href="#DejaVuSans-36"/>
      </g>
     </g>
    </g>
    <g id="xtick_4">
     <g id="line2d_4">
      <g>
       <use xlink:href="#mcde79ceaa5" x="397.993688" y="339.84" style="fill: #262626; stroke: #262626; stroke-width: 2.5"/>
      </g>
     </g>
     <g id="text_4">
      <!-- 9 -->
      <g style="fill: #262626" transform="translate(391.694813 363.184906) scale(0.198 -0.198)">
       <defs>
        <path id="DejaVuSans-39" d="M 703 97 
L 703 672 
Q 941 559 1184 500 
Q 1428 441 1663 441 
Q 2288 441 2617 861 
Q 2947 1281 2994 2138 
Q 2813 1869 2534 1725 
Q 2256 1581 1919 1581 
Q 1219 1581 811 2004 
Q 403 2428 403 3163 
Q 403 3881 828 4315 
Q 1253 4750 1959 4750 
Q 2769 4750 3195 4129 
Q 3622 3509 3622 2328 
Q 3622 1225 3098 567 
Q 2575 -91 1691 -91 
Q 1453 -91 1209 -44 
Q 966 3 703 97 
z
M 1959 2075 
Q 2384 2075 2632 2365 
Q 2881 2656 2881 3163 
Q 2881 3666 2632 3958 
Q 2384 4250 1959 4250 
Q 1534 4250 1286 3958 
Q 1038 3666 1038 3163 
Q 1038 2656 1286 2365 
Q 1534 2075 1959 2075 
z
" transform="scale(0.015625)"/>
       </defs>
       <use xlink:href="#DejaVuSans-39"/>
      </g>
     </g>
    </g>
    <g id="xtick_5">
     <g id="line2d_5">
      <g>
       <use xlink:href="#mcde79ceaa5" x="490.993688" y="339.84" style="fill: #262626; stroke: #262626; stroke-width: 2.5"/>
      </g>
     </g>
     <g id="text_5">
      <!-- 10 -->
      <g style="fill: #262626" transform="translate(478.395938 363.184906) scale(0.198 -0.198)">
       <use xlink:href="#DejaVuSans-31"/>
       <use xlink:href="#DejaVuSans-30" x="63.623047"/>
      </g>
     </g>
    </g>
    <g id="xtick_6">
     <g id="line2d_6">
      <g>
       <use xlink:href="#mcde79ceaa5" x="583.993687" y="339.84" style="fill: #262626; stroke: #262626; stroke-width: 2.5"/>
      </g>
     </g>
     <g id="text_6">
      <!-- 11 -->
      <g style="fill: #262626" transform="translate(571.395937 363.184906) scale(0.198 -0.198)">
       <use xlink:href="#DejaVuSans-31"/>
       <use xlink:href="#DejaVuSans-31" x="63.623047"/>
      </g>
     </g>
    </g>
    <g id="text_7">
     <!-- cluster -->
     <g style="fill: #262626" transform="translate(314.76525 387.715313) scale(0.216 -0.216)">
      <defs>
       <path id="DejaVuSans-63" d="M 3122 3366 
L 3122 2828 
Q 2878 2963 2633 3030 
Q 2388 3097 2138 3097 
Q 1578 3097 1268 2742 
Q 959 2388 959 1747 
Q 959 1106 1268 751 
Q 1578 397 2138 397 
Q 2388 397 2633 464 
Q 2878 531 3122 666 
L 3122 134 
Q 2881 22 2623 -34 
Q 2366 -91 2075 -91 
Q 1284 -91 818 406 
Q 353 903 353 1747 
Q 353 2603 823 3093 
Q 1294 3584 2113 3584 
Q 2378 3584 2631 3529 
Q 2884 3475 3122 3366 
z
" transform="scale(0.015625)"/>
       <path id="DejaVuSans-6c" d="M 603 4863 
L 1178 4863 
L 1178 0 
L 603 0 
L 603 4863 
z
" transform="scale(0.015625)"/>
       <path id="DejaVuSans-75" d="M 544 1381 
L 544 3500 
L 1119 3500 
L 1119 1403 
Q 1119 906 1312 657 
Q 1506 409 1894 409 
Q 2359 409 2629 706 
Q 2900 1003 2900 1516 
L 2900 3500 
L 3475 3500 
L 3475 0 
L 2900 0 
L 2900 538 
Q 2691 219 2414 64 
Q 2138 -91 1772 -91 
Q 1169 -91 856 284 
Q 544 659 544 1381 
z
M 1991 3584 
L 1991 3584 
z
" transform="scale(0.015625)"/>
       <path id="DejaVuSans-73" d="M 2834 3397 
L 2834 2853 
Q 2591 2978 2328 3040 
Q 2066 3103 1784 3103 
Q 1356 3103 1142 2972 
Q 928 2841 928 2578 
Q 928 2378 1081 2264 
Q 1234 2150 1697 2047 
L 1894 2003 
Q 2506 1872 2764 1633 
Q 3022 1394 3022 966 
Q 3022 478 2636 193 
Q 2250 -91 1575 -91 
Q 1294 -91 989 -36 
Q 684 19 347 128 
L 347 722 
Q 666 556 975 473 
Q 1284 391 1588 391 
Q 1994 391 2212 530 
Q 2431 669 2431 922 
Q 2431 1156 2273 1281 
Q 2116 1406 1581 1522 
L 1381 1569 
Q 847 1681 609 1914 
Q 372 2147 372 2553 
Q 372 3047 722 3315 
Q 1072 3584 1716 3584 
Q 2034 3584 2315 3537 
Q 2597 3491 2834 3397 
z
" transform="scale(0.015625)"/>
       <path id="DejaVuSans-74" d="M 1172 4494 
L 1172 3500 
L 2356 3500 
L 2356 3053 
L 1172 3053 
L 1172 1153 
Q 1172 725 1289 603 
Q 1406 481 1766 481 
L 2356 481 
L 2356 0 
L 1766 0 
Q 1100 0 847 248 
Q 594 497 594 1153 
L 594 3053 
L 172 3053 
L 172 3500 
L 594 3500 
L 594 4494 
L 1172 4494 
z
" transform="scale(0.015625)"/>
       <path id="DejaVuSans-65" d="M 3597 1894 
L 3597 1613 
L 953 1613 
Q 991 1019 1311 708 
Q 1631 397 2203 397 
Q 2534 397 2845 478 
Q 3156 559 3463 722 
L 3463 178 
Q 3153 47 2828 -22 
Q 2503 -91 2169 -91 
Q 1331 -91 842 396 
Q 353 884 353 1716 
Q 353 2575 817 3079 
Q 1281 3584 2069 3584 
Q 2775 3584 3186 3129 
Q 3597 2675 3597 1894 
z
M 3022 2063 
Q 3016 2534 2758 2815 
Q 2500 3097 2075 3097 
Q 1594 3097 1305 2825 
Q 1016 2553 972 2059 
L 3022 2063 
z
" transform="scale(0.015625)"/>
       <path id="DejaVuSans-72" d="M 2631 2963 
Q 2534 3019 2420 3045 
Q 2306 3072 2169 3072 
Q 1681 3072 1420 2755 
Q 1159 2438 1159 1844 
L 1159 0 
L 581 0 
L 581 3500 
L 1159 3500 
L 1159 2956 
Q 1341 3275 1631 3429 
Q 1922 3584 2338 3584 
Q 2397 3584 2469 3576 
Q 2541 3569 2628 3553 
L 2631 2963 
z
" transform="scale(0.015625)"/>
      </defs>
      <use xlink:href="#DejaVuSans-63"/>
      <use xlink:href="#DejaVuSans-6c" x="54.980469"/>
      <use xlink:href="#DejaVuSans-75" x="82.763672"/>
      <use xlink:href="#DejaVuSans-73" x="146.142578"/>
      <use xlink:href="#DejaVuSans-74" x="198.242188"/>
      <use xlink:href="#DejaVuSans-65" x="237.451172"/>
      <use xlink:href="#DejaVuSans-72" x="298.974609"/>
     </g>
    </g>
   </g>
   <g id="matplotlib.axis_2">
    <g id="ytick_1">
     <g id="line2d_7">
      <defs>
       <path id="mb037e35869" d="M 0 0 
L -4.8 0 
" style="stroke: #262626; stroke-width: 2.5"/>
      </defs>
      <g>
       <use xlink:href="#mb037e35869" x="72.493688" y="326.509208" style="fill: #262626; stroke: #262626; stroke-width: 2.5"/>
      </g>
     </g>
     <g id="text_8">
      <!-- 0.0 -->
      <g style="fill: #262626" transform="translate(32.7055 334.031661) scale(0.198 -0.198)">
       <defs>
        <path id="DejaVuSans-2e" d="M 684 794 
L 1344 794 
L 1344 0 
L 684 0 
L 684 794 
z
" transform="scale(0.015625)"/>
       </defs>
       <use xlink:href="#DejaVuSans-30"/>
       <use xlink:href="#DejaVuSans-2e" x="63.623047"/>
       <use xlink:href="#DejaVuSans-30" x="95.410156"/>
      </g>
     </g>
    </g>
    <g id="ytick_2">
     <g id="line2d_8">
      <g>
       <use xlink:href="#mb037e35869" x="72.493688" y="261.908742" style="fill: #262626; stroke: #262626; stroke-width: 2.5"/>
      </g>
     </g>
     <g id="text_9">
      <!-- 0.2 -->
      <g style="fill: #262626" transform="translate(32.7055 269.431195) scale(0.198 -0.198)">
       <defs>
        <path id="DejaVuSans-32" d="M 1228 531 
L 3431 531 
L 3431 0 
L 469 0 
L 469 531 
Q 828 903 1448 1529 
Q 2069 2156 2228 2338 
Q 2531 2678 2651 2914 
Q 2772 3150 2772 3378 
Q 2772 3750 2511 3984 
Q 2250 4219 1831 4219 
Q 1534 4219 1204 4116 
Q 875 4013 500 3803 
L 500 4441 
Q 881 4594 1212 4672 
Q 1544 4750 1819 4750 
Q 2544 4750 2975 4387 
Q 3406 4025 3406 3419 
Q 3406 3131 3298 2873 
Q 3191 2616 2906 2266 
Q 2828 2175 2409 1742 
Q 1991 1309 1228 531 
z
" transform="scale(0.015625)"/>
       </defs>
       <use xlink:href="#DejaVuSans-30"/>
       <use xlink:href="#DejaVuSans-2e" x="63.623047"/>
       <use xlink:href="#DejaVuSans-32" x="95.410156"/>
      </g>
     </g>
    </g>
    <g id="ytick_3">
     <g id="line2d_9">
      <g>
       <use xlink:href="#mb037e35869" x="72.493688" y="197.308276" style="fill: #262626; stroke: #262626; stroke-width: 2.5"/>
      </g>
     </g>
     <g id="text_10">
      <!-- 0.4 -->
      <g style="fill: #262626" transform="translate(32.7055 204.83073) scale(0.198 -0.198)">
       <defs>
        <path id="DejaVuSans-34" d="M 2419 4116 
L 825 1625 
L 2419 1625 
L 2419 4116 
z
M 2253 4666 
L 3047 4666 
L 3047 1625 
L 3713 1625 
L 3713 1100 
L 3047 1100 
L 3047 0 
L 2419 0 
L 2419 1100 
L 313 1100 
L 313 1709 
L 2253 4666 
z
" transform="scale(0.015625)"/>
       </defs>
       <use xlink:href="#DejaVuSans-30"/>
       <use xlink:href="#DejaVuSans-2e" x="63.623047"/>
       <use xlink:href="#DejaVuSans-34" x="95.410156"/>
      </g>
     </g>
    </g>
    <g id="ytick_4">
     <g id="line2d_10">
      <g>
       <use xlink:href="#mb037e35869" x="72.493688" y="132.707811" style="fill: #262626; stroke: #262626; stroke-width: 2.5"/>
      </g>
     </g>
     <g id="text_11">
      <!-- 0.6 -->
      <g style="fill: #262626" transform="translate(32.7055 140.230264) scale(0.198 -0.198)">
       <use xlink:href="#DejaVuSans-30"/>
       <use xlink:href="#DejaVuSans-2e" x="63.623047"/>
       <use xlink:href="#DejaVuSans-36" x="95.410156"/>
      </g>
     </g>
    </g>
    <g id="ytick_5">
     <g id="line2d_11">
      <g>
       <use xlink:href="#mb037e35869" x="72.493688" y="68.107345" style="fill: #262626; stroke: #262626; stroke-width: 2.5"/>
      </g>
     </g>
     <g id="text_12">
      <!-- 0.8 -->
      <g style="fill: #262626" transform="translate(32.7055 75.629798) scale(0.198 -0.198)">
       <defs>
        <path id="DejaVuSans-38" d="M 2034 2216 
Q 1584 2216 1326 1975 
Q 1069 1734 1069 1313 
Q 1069 891 1326 650 
Q 1584 409 2034 409 
Q 2484 409 2743 651 
Q 3003 894 3003 1313 
Q 3003 1734 2745 1975 
Q 2488 2216 2034 2216 
z
M 1403 2484 
Q 997 2584 770 2862 
Q 544 3141 544 3541 
Q 544 4100 942 4425 
Q 1341 4750 2034 4750 
Q 2731 4750 3128 4425 
Q 3525 4100 3525 3541 
Q 3525 3141 3298 2862 
Q 3072 2584 2669 2484 
Q 3125 2378 3379 2068 
Q 3634 1759 3634 1313 
Q 3634 634 3220 271 
Q 2806 -91 2034 -91 
Q 1263 -91 848 271 
Q 434 634 434 1313 
Q 434 1759 690 2068 
Q 947 2378 1403 2484 
z
M 1172 3481 
Q 1172 3119 1398 2916 
Q 1625 2713 2034 2713 
Q 2441 2713 2670 2916 
Q 2900 3119 2900 3481 
Q 2900 3844 2670 4047 
Q 2441 4250 2034 4250 
Q 1625 4250 1398 4047 
Q 1172 3844 1172 3481 
z
" transform="scale(0.015625)"/>
       </defs>
       <use xlink:href="#DejaVuSans-30"/>
       <use xlink:href="#DejaVuSans-2e" x="63.623047"/>
       <use xlink:href="#DejaVuSans-38" x="95.410156"/>
      </g>
     </g>
    </g>
    <g id="text_13">
     <!-- p_hat -->
     <g style="fill: #262626" transform="translate(23.612625 203.473125) rotate(-90) scale(0.216 -0.216)">
      <defs>
       <path id="DejaVuSans-70" d="M 1159 525 
L 1159 -1331 
L 581 -1331 
L 581 3500 
L 1159 3500 
L 1159 2969 
Q 1341 3281 1617 3432 
Q 1894 3584 2278 3584 
Q 2916 3584 3314 3078 
Q 3713 2572 3713 1747 
Q 3713 922 3314 415 
Q 2916 -91 2278 -91 
Q 1894 -91 1617 61 
Q 1341 213 1159 525 
z
M 3116 1747 
Q 3116 2381 2855 2742 
Q 2594 3103 2138 3103 
Q 1681 3103 1420 2742 
Q 1159 2381 1159 1747 
Q 1159 1113 1420 752 
Q 1681 391 2138 391 
Q 2594 391 2855 752 
Q 3116 1113 3116 1747 
z
" transform="scale(0.015625)"/>
       <path id="DejaVuSans-5f" d="M 3263 -1063 
L 3263 -1509 
L -63 -1509 
L -63 -1063 
L 3263 -1063 
z
" transform="scale(0.015625)"/>
       <path id="DejaVuSans-68" d="M 3513 2113 
L 3513 0 
L 2938 0 
L 2938 2094 
Q 2938 2591 2744 2837 
Q 2550 3084 2163 3084 
Q 1697 3084 1428 2787 
Q 1159 2491 1159 1978 
L 1159 0 
L 581 0 
L 581 4863 
L 1159 4863 
L 1159 2956 
Q 1366 3272 1645 3428 
Q 1925 3584 2291 3584 
Q 2894 3584 3203 3211 
Q 3513 2838 3513 2113 
z
" transform="scale(0.015625)"/>
       <path id="DejaVuSans-61" d="M 2194 1759 
Q 1497 1759 1228 1600 
Q 959 1441 959 1056 
Q 959 750 1161 570 
Q 1363 391 1709 391 
Q 2188 391 2477 730 
Q 2766 1069 2766 1631 
L 2766 1759 
L 2194 1759 
z
M 3341 1997 
L 3341 0 
L 2766 0 
L 2766 531 
Q 2569 213 2275 61 
Q 1981 -91 1556 -91 
Q 1019 -91 701 211 
Q 384 513 384 1019 
Q 384 1609 779 1909 
Q 1175 2209 1959 2209 
L 2766 2209 
L 2766 2266 
Q 2766 2663 2505 2880 
Q 2244 3097 1772 3097 
Q 1472 3097 1187 3025 
Q 903 2953 641 2809 
L 641 3341 
Q 956 3463 1253 3523 
Q 1550 3584 1831 3584 
Q 2591 3584 2966 3190 
Q 3341 2797 3341 1997 
z
" transform="scale(0.015625)"/>
      </defs>
      <use xlink:href="#DejaVuSans-70"/>
      <use xlink:href="#DejaVuSans-5f" x="63.476562"/>
      <use xlink:href="#DejaVuSans-68" x="113.476562"/>
      <use xlink:href="#DejaVuSans-61" x="176.855469"/>
      <use xlink:href="#DejaVuSans-74" x="238.134766"/>
     </g>
    </g>
   </g>
   <g id="patch_3">
    <path d="M 118.993688 326.509208 
L 118.993688 326.509208 
L 118.993688 326.509208 
L 118.993688 326.509208 
z
" clip-path="url(#p4475e20581)" style="fill: #224fdf; stroke: #4c4c4c; stroke-width: 0.5; stroke-linejoin: miter"/>
   </g>
   <g id="PolyCollection_1">
    <defs>
     <path id="m9d92a847ef" d="M 118.993688 -80.474772 
L 118.176914 -80.474772 
L 117.968256 -83.298093 
L 117.707553 -86.121414 
L 117.385541 -88.944735 
L 116.99373 -91.768056 
L 116.525259 -94.591377 
L 115.975673 -97.414698 
L 115.343506 -100.238019 
L 114.630584 -103.06134 
L 113.841973 -105.884661 
L 112.985601 -108.707981 
L 112.071584 -111.531302 
L 111.111375 -114.354623 
L 110.116857 -117.177944 
L 109.099508 -120.001265 
L 108.069752 -122.824586 
L 107.036557 -125.647907 
L 106.007326 -128.471228 
L 104.988052 -131.294549 
L 103.983676 -134.11787 
L 102.99857 -136.941191 
L 102.037009 -139.764511 
L 101.103529 -142.587832 
L 100.203061 -145.411153 
L 99.340763 -148.234474 
L 98.521561 -151.057795 
L 97.749436 -153.881116 
L 97.026615 -156.704437 
L 96.352824 -159.527758 
L 95.724812 -162.351079 
L 95.136284 -165.1744 
L 94.578335 -167.997721 
L 94.040353 -170.821041 
L 93.511254 -173.644362 
L 92.980848 -176.467683 
L 92.441095 -179.291004 
L 91.887023 -182.114325 
L 91.31718 -184.937646 
L 90.733578 -187.760967 
L 90.141205 -190.584288 
L 89.547301 -193.407609 
L 88.960615 -196.23093 
L 88.390873 -199.054251 
L 87.848603 -201.877571 
L 87.345323 -204.700892 
L 86.893973 -207.524213 
L 86.509317 -210.347534 
L 86.207998 -213.170855 
L 86.007951 -215.994176 
L 85.927021 -218.817497 
L 85.980844 -221.640818 
L 86.180277 -224.464139 
L 86.528852 -227.28746 
L 87.02082 -230.11078 
L 87.64028 -232.934101 
L 88.36172 -235.757422 
L 89.152018 -238.580743 
L 89.973646 -241.404064 
L 90.788605 -244.227385 
L 91.562461 -247.050706 
L 92.26787 -249.874027 
L 92.887098 -252.697348 
L 93.413235 -255.520669 
L 93.85006 -258.34399 
L 94.210682 -261.16731 
L 94.515275 -263.990631 
L 94.788259 -266.813952 
L 95.055302 -269.637273 
L 95.340473 -272.460594 
L 95.663802 -275.283915 
L 96.039458 -278.107236 
L 96.474689 -280.930557 
L 96.969608 -283.753878 
L 97.517876 -286.577199 
L 98.108216 -289.40052 
L 98.726606 -292.22384 
L 99.358873 -295.047161 
L 99.993323 -297.870482 
L 100.622949 -300.693803 
L 101.24684 -303.517124 
L 101.870473 -306.340445 
L 102.504805 -309.163766 
L 103.164282 -311.987087 
L 103.86412 -314.810408 
L 104.617358 -317.633729 
L 105.432225 -320.45705 
L 106.31031 -323.28037 
L 107.245832 -326.103691 
L 108.226101 -328.927012 
L 109.233 -331.750333 
L 110.245176 -334.573654 
L 111.240494 -337.396975 
L 112.198324 -340.220296 
L 113.101346 -343.043617 
L 113.936644 -345.866938 
L 114.696079 -348.690259 
L 115.376025 -351.51358 
L 115.976653 -354.3369 
L 116.50099 -357.160221 
L 116.953951 -359.983542 
L 118.993688 -359.983542 
L 118.993688 -359.983542 
L 118.993688 -357.160221 
L 118.993688 -354.3369 
L 118.993688 -351.51358 
L 118.993688 -348.690259 
L 118.993688 -345.866938 
L 118.993688 -343.043617 
L 118.993688 -340.220296 
L 118.993688 -337.396975 
L 118.993688 -334.573654 
L 118.993688 -331.750333 
L 118.993688 -328.927012 
L 118.993688 -326.103691 
L 118.993688 -323.28037 
L 118.993688 -320.45705 
L 118.993688 -317.633729 
L 118.993688 -314.810408 
L 118.993688 -311.987087 
L 118.993688 -309.163766 
L 118.993688 -306.340445 
L 118.993688 -303.517124 
L 118.993688 -300.693803 
L 118.993688 -297.870482 
L 118.993688 -295.047161 
L 118.993688 -292.22384 
L 118.993688 -289.40052 
L 118.993688 -286.577199 
L 118.993688 -283.753878 
L 118.993688 -280.930557 
L 118.993688 -278.107236 
L 118.993688 -275.283915 
L 118.993688 -272.460594 
L 118.993688 -269.637273 
L 118.993688 -266.813952 
L 118.993688 -263.990631 
L 118.993688 -261.16731 
L 118.993688 -258.34399 
L 118.993688 -255.520669 
L 118.993688 -252.697348 
L 118.993688 -249.874027 
L 118.993688 -247.050706 
L 118.993688 -244.227385 
L 118.993688 -241.404064 
L 118.993688 -238.580743 
L 118.993688 -235.757422 
L 118.993688 -232.934101 
L 118.993688 -230.11078 
L 118.993688 -227.28746 
L 118.993688 -224.464139 
L 118.993688 -221.640818 
L 118.993688 -218.817497 
L 118.993688 -215.994176 
L 118.993688 -213.170855 
L 118.993688 -210.347534 
L 118.993688 -207.524213 
L 118.993688 -204.700892 
L 118.993688 -201.877571 
L 118.993688 -199.054251 
L 118.993688 -196.23093 
L 118.993688 -193.407609 
L 118.993688 -190.584288 
L 118.993688 -187.760967 
L 118.993688 -184.937646 
L 118.993688 -182.114325 
L 118.993688 -179.291004 
L 118.993688 -176.467683 
L 118.993688 -173.644362 
L 118.993688 -170.821041 
L 118.993688 -167.997721 
L 118.993688 -165.1744 
L 118.993688 -162.351079 
L 118.993688 -159.527758 
L 118.993688 -156.704437 
L 118.993688 -153.881116 
L 118.993688 -151.057795 
L 118.993688 -148.234474 
L 118.993688 -145.411153 
L 118.993688 -142.587832 
L 118.993688 -139.764511 
L 118.993688 -136.941191 
L 118.993688 -134.11787 
L 118.993688 -131.294549 
L 118.993688 -128.471228 
L 118.993688 -125.647907 
L 118.993688 -122.824586 
L 118.993688 -120.001265 
L 118.993688 -117.177944 
L 118.993688 -114.354623 
L 118.993688 -111.531302 
L 118.993688 -108.707981 
L 118.993688 -105.884661 
L 118.993688 -103.06134 
L 118.993688 -100.238019 
L 118.993688 -97.414698 
L 118.993688 -94.591377 
L 118.993688 -91.768056 
L 118.993688 -88.944735 
L 118.993688 -86.121414 
L 118.993688 -83.298093 
L 118.993688 -80.474772 
z
" style="stroke: #4c4c4c"/>
    </defs>
    <g clip-path="url(#p4475e20581)">
     <use xlink:href="#m9d92a847ef" x="0" y="399.407438" style="fill: #224fdf; stroke: #4c4c4c"/>
    </g>
   </g>
   <g id="patch_4">
    <path d="M 118.993688 326.509208 
L 118.993688 326.509208 
L 118.993688 326.509208 
L 118.993688 326.509208 
z
" clip-path="url(#p4475e20581)" style="fill: #df7d20; stroke: #4c4c4c; stroke-width: 0.5; stroke-linejoin: miter"/>
   </g>
   <g id="PolyCollection_2">
    <defs>
     <path id="m519f36da3a" d="M 121.241178 -115.687233 
L 118.993688 -115.687233 
L 118.993688 -118.327639 
L 118.993688 -120.968045 
L 118.993688 -123.608451 
L 118.993688 -126.248857 
L 118.993688 -128.889263 
L 118.993688 -131.529669 
L 118.993688 -134.170076 
L 118.993688 -136.810482 
L 118.993688 -139.450888 
L 118.993688 -142.091294 
L 118.993688 -144.7317 
L 118.993688 -147.372106 
L 118.993688 -150.012512 
L 118.993688 -152.652918 
L 118.993688 -155.293324 
L 118.993688 -157.93373 
L 118.993688 -160.574137 
L 118.993688 -163.214543 
L 118.993688 -165.854949 
L 118.993688 -168.495355 
L 118.993688 -171.135761 
L 118.993688 -173.776167 
L 118.993688 -176.416573 
L 118.993688 -179.056979 
L 118.993688 -181.697385 
L 118.993688 -184.337792 
L 118.993688 -186.978198 
L 118.993688 -189.618604 
L 118.993688 -192.25901 
L 118.993688 -194.899416 
L 118.993688 -197.539822 
L 118.993688 -200.180228 
L 118.993688 -202.820634 
L 118.993688 -205.46104 
L 118.993688 -208.101447 
L 118.993688 -210.741853 
L 118.993688 -213.382259 
L 118.993688 -216.022665 
L 118.993688 -218.663071 
L 118.993688 -221.303477 
L 118.993688 -223.943883 
L 118.993688 -226.584289 
L 118.993688 -229.224695 
L 118.993688 -231.865102 
L 118.993688 -234.505508 
L 118.993688 -237.145914 
L 118.993688 -239.78632 
L 118.993688 -242.426726 
L 118.993688 -245.067132 
L 118.993688 -247.707538 
L 118.993688 -250.347944 
L 118.993688 -252.98835 
L 118.993688 -255.628757 
L 118.993688 -258.269163 
L 118.993688 -260.909569 
L 118.993688 -263.549975 
L 118.993688 -266.190381 
L 118.993688 -268.830787 
L 118.993688 -271.471193 
L 118.993688 -274.111599 
L 118.993688 -276.752005 
L 118.993688 -279.392411 
L 118.993688 -282.032818 
L 118.993688 -284.673224 
L 118.993688 -287.31363 
L 118.993688 -289.954036 
L 118.993688 -292.594442 
L 118.993688 -295.234848 
L 118.993688 -297.875254 
L 118.993688 -300.51566 
L 118.993688 -303.156066 
L 118.993688 -305.796473 
L 118.993688 -308.436879 
L 118.993688 -311.077285 
L 118.993688 -313.717691 
L 118.993688 -316.358097 
L 118.993688 -318.998503 
L 118.993688 -321.638909 
L 118.993688 -324.279315 
L 118.993688 -326.919721 
L 118.993688 -329.560128 
L 118.993688 -332.200534 
L 118.993688 -334.84094 
L 118.993688 -337.481346 
L 118.993688 -340.121752 
L 118.993688 -342.762158 
L 118.993688 -345.402564 
L 118.993688 -348.04297 
L 118.993688 -350.683376 
L 118.993688 -353.323783 
L 118.993688 -355.964189 
L 118.993688 -358.604595 
L 118.993688 -361.245001 
L 118.993688 -363.885407 
L 118.993688 -366.525813 
L 118.993688 -369.166219 
L 118.993688 -371.806625 
L 118.993688 -374.447031 
L 118.993688 -377.087438 
L 121.844694 -377.087438 
L 121.844694 -377.087438 
L 122.520178 -374.447031 
L 123.301336 -371.806625 
L 124.19204 -369.166219 
L 125.194283 -366.525813 
L 126.308417 -363.885407 
L 127.53353 -361.245001 
L 128.867773 -358.604595 
L 130.308441 -355.964189 
L 131.85167 -353.323783 
L 133.491652 -350.683376 
L 135.2195 -348.04297 
L 137.021968 -345.402564 
L 138.880412 -342.762158 
L 140.770359 -340.121752 
L 142.661991 -337.481346 
L 144.52164 -334.84094 
L 146.314165 -332.200534 
L 148.005818 -329.560128 
L 149.56709 -326.919721 
L 150.974959 -324.279315 
L 152.214159 -321.638909 
L 153.277263 -318.998503 
L 154.163712 -316.358097 
L 154.878138 -313.717691 
L 155.428471 -311.077285 
L 155.824307 -308.436879 
L 156.07587 -305.796473 
L 156.193688 -303.156066 
L 156.188872 -300.51566 
L 156.073746 -297.875254 
L 155.862489 -295.234848 
L 155.571525 -292.594442 
L 155.219487 -289.954036 
L 154.826704 -287.31363 
L 154.414316 -284.673224 
L 154.003152 -282.032818 
L 153.612568 -279.392411 
L 153.259377 -276.752005 
L 152.956999 -274.111599 
L 152.714868 -271.471193 
L 152.53809 -268.830787 
L 152.427289 -266.190381 
L 152.378572 -263.549975 
L 152.383531 -260.909569 
L 152.429275 -258.269163 
L 152.498523 -255.628757 
L 152.569896 -252.98835 
L 152.618564 -250.347944 
L 152.617429 -247.707538 
L 152.538885 -245.067132 
L 152.357108 -242.426726 
L 152.050581 -239.78632 
L 151.604485 -237.145914 
L 151.012465 -234.505508 
L 150.277394 -231.865102 
L 149.410924 -229.224695 
L 148.43185 -226.584289 
L 147.363597 -223.943883 
L 146.231312 -221.303477 
L 145.059096 -218.663071 
L 143.867856 -216.022665 
L 142.674068 -213.382259 
L 141.489535 -210.741853 
L 140.322003 -208.101447 
L 139.176339 -205.46104 
L 138.055961 -202.820634 
L 136.964164 -200.180228 
L 135.905101 -197.539822 
L 134.884285 -194.899416 
L 133.908539 -192.25901 
L 132.98547 -189.618604 
L 132.122587 -186.978198 
L 131.326242 -184.337792 
L 130.600622 -181.697385 
L 129.946978 -179.056979 
L 129.36327 -176.416573 
L 128.844304 -173.776167 
L 128.382346 -171.135761 
L 127.968097 -168.495355 
L 127.591824 -165.854949 
L 127.244428 -163.214543 
L 126.918235 -160.574137 
L 126.607365 -157.93373 
L 126.307641 -155.293324 
L 126.016118 -152.652918 
L 125.730383 -150.012512 
L 125.447841 -147.372106 
L 125.165193 -144.7317 
L 124.878258 -142.091294 
L 124.582206 -139.450888 
L 124.272148 -136.810482 
L 123.943965 -134.170076 
L 123.59518 -131.529669 
L 123.225664 -128.889263 
L 122.838025 -126.248857 
L 122.43757 -123.608451 
L 122.031854 -120.968045 
L 121.629892 -118.327639 
L 121.241178 -115.687233 
z
" style="stroke: #4c4c4c"/>
    </defs>
    <g clip-path="url(#p4475e20581)">
     <use xlink:href="#m519f36da3a" x="0" y="399.407438" style="fill: #df7d20; stroke: #4c4c4c"/>
    </g>
   </g>
   <g id="PolyCollection_3">
    <defs>
     <path id="m14964e736f" d="M 211.993688 -88.48139 
L 209.266412 -88.48139 
L 208.573518 -90.602919 
L 207.773635 -92.724449 
L 206.86807 -94.845978 
L 205.861774 -96.967508 
L 204.762524 -99.089037 
L 203.579585 -101.210567 
L 202.322196 -103.332096 
L 200.998383 -105.453626 
L 199.61453 -107.575156 
L 198.176042 -109.696685 
L 196.68902 -111.818215 
L 195.162575 -113.939744 
L 193.611104 -116.061274 
L 192.055754 -118.182803 
L 190.524465 -120.304333 
L 189.0503 -122.425862 
L 187.668156 -124.547392 
L 186.410383 -126.668921 
L 185.30205 -128.790451 
L 184.356732 -130.91198 
L 183.573628 -133.03351 
L 182.936605 -135.155039 
L 182.415504 -137.276569 
L 181.969678 -139.398099 
L 181.553329 -141.519628 
L 181.121902 -143.641158 
L 180.638506 -145.762687 
L 180.079319 -147.884217 
L 179.437048 -150.005746 
L 178.721928 -152.127276 
L 177.960191 -154.248805 
L 177.190427 -156.370335 
L 176.458597 -158.491864 
L 175.812551 -160.613394 
L 175.296853 -162.734923 
L 174.948476 -164.856453 
L 174.793688 -166.977982 
L 174.846253 -169.099512 
L 175.106987 -171.221042 
L 175.564623 -173.342571 
L 176.197938 -175.464101 
L 176.97893 -177.58563 
L 177.876724 -179.70716 
L 178.861689 -181.828689 
L 179.909118 -183.950219 
L 181.001874 -186.071748 
L 182.131515 -188.193278 
L 183.297694 -190.314807 
L 184.505922 -192.436337 
L 185.764112 -194.557866 
L 187.07848 -196.679396 
L 188.449571 -198.800926 
L 189.869133 -200.922455 
L 191.31848 -203.043985 
L 192.768768 -205.165514 
L 194.183289 -207.287044 
L 195.52151 -209.408573 
L 196.744251 -211.530103 
L 197.81909 -213.651632 
L 198.725023 -215.773162 
L 199.455501 -217.894691 
L 200.019281 -220.016221 
L 200.438963 -222.13775 
L 200.74753 -224.25928 
L 200.983581 -226.380809 
L 201.186136 -228.502339 
L 201.389899 -230.623869 
L 201.621714 -232.745398 
L 201.898623 -234.866928 
L 202.227623 -236.988457 
L 202.606875 -239.109987 
L 203.027898 -241.231516 
L 203.478187 -243.353046 
L 203.943706 -245.474575 
L 204.410887 -247.596105 
L 204.867966 -249.717634 
L 205.305715 -251.839164 
L 205.717731 -253.960693 
L 206.10051 -256.082223 
L 206.453425 -258.203752 
L 206.778636 -260.325282 
L 207.080814 -262.446812 
L 207.366559 -264.568341 
L 207.643424 -266.689871 
L 207.91863 -268.8114 
L 208.197671 -270.93293 
L 208.48316 -273.054459 
L 208.77423 -275.175989 
L 209.066699 -277.297518 
L 209.354011 -279.419048 
L 209.62872 -281.540577 
L 209.884145 -283.662107 
L 210.115763 -285.783636 
L 210.322004 -287.905166 
L 210.504281 -290.026695 
L 210.666315 -292.148225 
L 210.813003 -294.269755 
L 210.949167 -296.391284 
L 211.078515 -298.512814 
L 211.993688 -298.512814 
L 211.993688 -298.512814 
L 211.993688 -296.391284 
L 211.993688 -294.269755 
L 211.993688 -292.148225 
L 211.993688 -290.026695 
L 211.993688 -287.905166 
L 211.993688 -285.783636 
L 211.993688 -283.662107 
L 211.993688 -281.540577 
L 211.993688 -279.419048 
L 211.993688 -277.297518 
L 211.993688 -275.175989 
L 211.993688 -273.054459 
L 211.993688 -270.93293 
L 211.993688 -268.8114 
L 211.993688 -266.689871 
L 211.993688 -264.568341 
L 211.993688 -262.446812 
L 211.993688 -260.325282 
L 211.993688 -258.203752 
L 211.993688 -256.082223 
L 211.993688 -253.960693 
L 211.993688 -251.839164 
L 211.993688 -249.717634 
L 211.993688 -247.596105 
L 211.993688 -245.474575 
L 211.993688 -243.353046 
L 211.993688 -241.231516 
L 211.993688 -239.109987 
L 211.993688 -236.988457 
L 211.993688 -234.866928 
L 211.993688 -232.745398 
L 211.993688 -230.623869 
L 211.993688 -228.502339 
L 211.993688 -226.380809 
L 211.993688 -224.25928 
L 211.993688 -222.13775 
L 211.993688 -220.016221 
L 211.993688 -217.894691 
L 211.993688 -215.773162 
L 211.993688 -213.651632 
L 211.993688 -211.530103 
L 211.993688 -209.408573 
L 211.993688 -207.287044 
L 211.993688 -205.165514 
L 211.993688 -203.043985 
L 211.993688 -200.922455 
L 211.993688 -198.800926 
L 211.993688 -196.679396 
L 211.993688 -194.557866 
L 211.993688 -192.436337 
L 211.993688 -190.314807 
L 211.993688 -188.193278 
L 211.993688 -186.071748 
L 211.993688 -183.950219 
L 211.993688 -181.828689 
L 211.993688 -179.70716 
L 211.993688 -177.58563 
L 211.993688 -175.464101 
L 211.993688 -173.342571 
L 211.993688 -171.221042 
L 211.993688 -169.099512 
L 211.993688 -166.977982 
L 211.993688 -164.856453 
L 211.993688 -162.734923 
L 211.993688 -160.613394 
L 211.993688 -158.491864 
L 211.993688 -156.370335 
L 211.993688 -154.248805 
L 211.993688 -152.127276 
L 211.993688 -150.005746 
L 211.993688 -147.884217 
L 211.993688 -145.762687 
L 211.993688 -143.641158 
L 211.993688 -141.519628 
L 211.993688 -139.398099 
L 211.993688 -137.276569 
L 211.993688 -135.155039 
L 211.993688 -133.03351 
L 211.993688 -130.91198 
L 211.993688 -128.790451 
L 211.993688 -126.668921 
L 211.993688 -124.547392 
L 211.993688 -122.425862 
L 211.993688 -120.304333 
L 211.993688 -118.182803 
L 211.993688 -116.061274 
L 211.993688 -113.939744 
L 211.993688 -111.818215 
L 211.993688 -109.696685 
L 211.993688 -107.575156 
L 211.993688 -105.453626 
L 211.993688 -103.332096 
L 211.993688 -101.210567 
L 211.993688 -99.089037 
L 211.993688 -96.967508 
L 211.993688 -94.845978 
L 211.993688 -92.724449 
L 211.993688 -90.602919 
L 211.993688 -88.48139 
z
" style="stroke: #4c4c4c"/>
    </defs>
    <g clip-path="url(#p4475e20581)">
     <use xlink:href="#m14964e736f" x="0" y="399.407438" style="fill: #224fdf; stroke: #4c4c4c"/>
    </g>
   </g>
   <g id="PolyCollection_4">
    <defs>
     <path id="m860a06633c" d="M 213.486052 -110.315198 
L 211.993688 -110.315198 
L 211.993688 -112.440289 
L 211.993688 -114.56538 
L 211.993688 -116.690471 
L 211.993688 -118.815562 
L 211.993688 -120.940653 
L 211.993688 -123.065744 
L 211.993688 -125.190835 
L 211.993688 -127.315927 
L 211.993688 -129.441018 
L 211.993688 -131.566109 
L 211.993688 -133.6912 
L 211.993688 -135.816291 
L 211.993688 -137.941382 
L 211.993688 -140.066473 
L 211.993688 -142.191564 
L 211.993688 -144.316655 
L 211.993688 -146.441746 
L 211.993688 -148.566837 
L 211.993688 -150.691928 
L 211.993688 -152.817019 
L 211.993688 -154.94211 
L 211.993688 -157.067202 
L 211.993688 -159.192293 
L 211.993688 -161.317384 
L 211.993688 -163.442475 
L 211.993688 -165.567566 
L 211.993688 -167.692657 
L 211.993688 -169.817748 
L 211.993688 -171.942839 
L 211.993688 -174.06793 
L 211.993688 -176.193021 
L 211.993688 -178.318112 
L 211.993688 -180.443203 
L 211.993688 -182.568294 
L 211.993688 -184.693385 
L 211.993688 -186.818477 
L 211.993688 -188.943568 
L 211.993688 -191.068659 
L 211.993688 -193.19375 
L 211.993688 -195.318841 
L 211.993688 -197.443932 
L 211.993688 -199.569023 
L 211.993688 -201.694114 
L 211.993688 -203.819205 
L 211.993688 -205.944296 
L 211.993688 -208.069387 
L 211.993688 -210.194478 
L 211.993688 -212.319569 
L 211.993688 -214.44466 
L 211.993688 -216.569752 
L 211.993688 -218.694843 
L 211.993688 -220.819934 
L 211.993688 -222.945025 
L 211.993688 -225.070116 
L 211.993688 -227.195207 
L 211.993688 -229.320298 
L 211.993688 -231.445389 
L 211.993688 -233.57048 
L 211.993688 -235.695571 
L 211.993688 -237.820662 
L 211.993688 -239.945753 
L 211.993688 -242.070844 
L 211.993688 -244.195935 
L 211.993688 -246.321027 
L 211.993688 -248.446118 
L 211.993688 -250.571209 
L 211.993688 -252.6963 
L 211.993688 -254.821391 
L 211.993688 -256.946482 
L 211.993688 -259.071573 
L 211.993688 -261.196664 
L 211.993688 -263.321755 
L 211.993688 -265.446846 
L 211.993688 -267.571937 
L 211.993688 -269.697028 
L 211.993688 -271.822119 
L 211.993688 -273.947211 
L 211.993688 -276.072302 
L 211.993688 -278.197393 
L 211.993688 -280.322484 
L 211.993688 -282.447575 
L 211.993688 -284.572666 
L 211.993688 -286.697757 
L 211.993688 -288.822848 
L 211.993688 -290.947939 
L 211.993688 -293.07303 
L 211.993688 -295.198121 
L 211.993688 -297.323212 
L 211.993688 -299.448303 
L 211.993688 -301.573394 
L 211.993688 -303.698486 
L 211.993688 -305.823577 
L 211.993688 -307.948668 
L 211.993688 -310.073759 
L 211.993688 -312.19885 
L 211.993688 -314.323941 
L 211.993688 -316.449032 
L 211.993688 -318.574123 
L 211.993688 -320.699214 
L 212.693165 -320.699214 
L 212.693165 -320.699214 
L 212.76495 -318.574123 
L 212.836126 -316.449032 
L 212.907134 -314.323941 
L 212.978886 -312.19885 
L 213.052715 -310.073759 
L 213.130316 -307.948668 
L 213.213673 -305.823577 
L 213.304995 -303.698486 
L 213.406644 -301.573394 
L 213.521073 -299.448303 
L 213.650772 -297.323212 
L 213.798223 -295.198121 
L 213.965875 -293.07303 
L 214.156135 -290.947939 
L 214.371366 -288.822848 
L 214.613867 -286.697757 
L 214.885836 -284.572666 
L 215.189291 -282.447575 
L 215.525949 -280.322484 
L 215.897091 -278.197393 
L 216.303411 -276.072302 
L 216.74488 -273.947211 
L 217.220618 -271.822119 
L 217.728783 -269.697028 
L 218.266447 -267.571937 
L 218.829456 -265.446846 
L 219.4123 -263.321755 
L 220.008025 -261.196664 
L 220.608279 -259.071573 
L 221.203572 -256.946482 
L 221.783829 -254.821391 
L 222.339233 -252.6963 
L 222.861317 -250.571209 
L 223.34412 -248.446118 
L 223.78522 -246.321027 
L 224.186371 -244.195935 
L 224.553581 -242.070844 
L 224.896472 -239.945753 
L 225.226997 -237.820662 
L 225.557633 -235.695571 
L 225.899356 -233.57048 
L 226.259733 -231.445389 
L 226.641473 -229.320298 
L 227.041712 -227.195207 
L 227.452173 -225.070116 
L 227.860212 -222.945025 
L 228.250596 -220.819934 
L 228.607748 -218.694843 
L 228.918127 -216.569752 
L 229.172382 -214.44466 
L 229.366974 -212.319569 
L 229.505025 -210.194478 
L 229.596281 -208.069387 
L 229.656174 -205.944296 
L 229.704104 -203.819205 
L 229.76115 -201.694114 
L 229.847476 -199.569023 
L 229.979755 -197.443932 
L 230.168908 -195.318841 
L 230.418447 -193.19375 
L 230.723622 -191.068659 
L 231.071475 -188.943568 
L 231.441825 -186.818477 
L 231.809033 -184.693385 
L 232.144361 -182.568294 
L 232.418626 -180.443203 
L 232.604834 -178.318112 
L 232.680517 -176.193021 
L 232.629536 -174.06793 
L 232.443224 -171.942839 
L 232.120801 -169.817748 
L 231.669109 -167.692657 
L 231.101728 -165.567566 
L 230.4376 -163.442475 
L 229.699276 -161.317384 
L 228.910931 -159.192293 
L 228.096304 -157.067202 
L 227.276737 -154.94211 
L 226.469494 -152.817019 
L 225.68656 -150.691928 
L 224.93405 -148.566837 
L 224.212334 -146.441746 
L 223.516854 -144.316655 
L 222.83953 -142.191564 
L 222.17056 -140.066473 
L 221.500336 -137.941382 
L 220.821219 -135.816291 
L 220.128907 -133.6912 
L 219.423228 -131.566109 
L 218.70828 -129.441018 
L 217.991944 -127.315927 
L 217.284885 -125.190835 
L 216.599249 -123.065744 
L 215.947243 -120.940653 
L 215.339838 -118.815562 
L 214.785747 -116.690471 
L 214.290784 -114.56538 
L 213.857643 -112.440289 
L 213.486052 -110.315198 
z
" style="stroke: #4c4c4c"/>
    </defs>
    <g clip-path="url(#p4475e20581)">
     <use xlink:href="#m860a06633c" x="0" y="399.407438" style="fill: #df7d20; stroke: #4c4c4c"/>
    </g>
   </g>
   <g id="PolyCollection_5">
    <defs>
     <path id="m2c603af619" d="M 304.993688 -114.318205 
L 302.960339 -114.318205 
L 302.522574 -116.610176 
L 302.014016 -118.902147 
L 301.430255 -121.194118 
L 300.768933 -123.486089 
L 300.030091 -125.778061 
L 299.216185 -128.070032 
L 298.331716 -130.362003 
L 297.382516 -132.653974 
L 296.374792 -134.945945 
L 295.314158 -137.237916 
L 294.204891 -139.529887 
L 293.049644 -141.821858 
L 291.849786 -144.113829 
L 290.606366 -146.4058 
L 289.321581 -148.697771 
L 288.000453 -150.989743 
L 286.652335 -153.281714 
L 285.291863 -155.573685 
L 283.939025 -157.865656 
L 282.618212 -160.157627 
L 281.356264 -162.449598 
L 280.179775 -164.741569 
L 279.112053 -167.03354 
L 278.170201 -169.325511 
L 277.362802 -171.617482 
L 276.688562 -173.909453 
L 276.136121 -176.201425 
L 275.685061 -178.493396 
L 275.307959 -180.785367 
L 274.973208 -183.077338 
L 274.648257 -185.369309 
L 274.302892 -187.66128 
L 273.912231 -189.953251 
L 273.459146 -192.245222 
L 272.935919 -194.537193 
L 272.344984 -196.829164 
L 271.698731 -199.121135 
L 271.018358 -201.413107 
L 270.331888 -203.705078 
L 269.671504 -205.997049 
L 269.070473 -208.28902 
L 268.559942 -210.580991 
L 268.165998 -212.872962 
L 267.907312 -215.164933 
L 267.793688 -217.456904 
L 267.825692 -219.748875 
L 267.995417 -222.040846 
L 268.288242 -224.332817 
L 268.685322 -226.624789 
L 269.166407 -228.91676 
L 269.712533 -231.208731 
L 270.308185 -233.500702 
L 270.942603 -235.792673 
L 271.610083 -238.084644 
L 272.309305 -240.376615 
L 273.041904 -242.668586 
L 273.81064 -244.960557 
L 274.617558 -247.252528 
L 275.462541 -249.544499 
L 276.342506 -251.836471 
L 277.251378 -254.128442 
L 278.180777 -256.420413 
L 279.121195 -258.712384 
L 280.063375 -261.004355 
L 280.999557 -263.296326 
L 281.924331 -265.588297 
L 282.834949 -267.880268 
L 283.731058 -270.172239 
L 284.613978 -272.46421 
L 285.485701 -274.756181 
L 286.347847 -277.048153 
L 287.200797 -279.340124 
L 288.043166 -281.632095 
L 288.871715 -283.924066 
L 289.681713 -286.216037 
L 290.467685 -288.508008 
L 291.224417 -290.799979 
L 291.948033 -293.09195 
L 292.636943 -295.383921 
L 293.292482 -297.675892 
L 293.919061 -299.967863 
L 294.523782 -302.259835 
L 295.115519 -304.551806 
L 295.703597 -306.843777 
L 296.2963 -309.135748 
L 296.899445 -311.427719 
L 297.515328 -313.71969 
L 298.142198 -316.011661 
L 298.774404 -318.303632 
L 299.403147 -320.595603 
L 300.017714 -322.887574 
L 300.606944 -325.179545 
L 301.160668 -327.471517 
L 301.67088 -329.763488 
L 302.132465 -332.055459 
L 302.543427 -334.34743 
L 302.904636 -336.639401 
L 303.219228 -338.931372 
L 303.491796 -341.223343 
L 304.993688 -341.223343 
L 304.993688 -341.223343 
L 304.993688 -338.931372 
L 304.993688 -336.639401 
L 304.993688 -334.34743 
L 304.993688 -332.055459 
L 304.993688 -329.763488 
L 304.993688 -327.471517 
L 304.993688 -325.179545 
L 304.993688 -322.887574 
L 304.993688 -320.595603 
L 304.993688 -318.303632 
L 304.993688 -316.011661 
L 304.993688 -313.71969 
L 304.993688 -311.427719 
L 304.993688 -309.135748 
L 304.993688 -306.843777 
L 304.993688 -304.551806 
L 304.993688 -302.259835 
L 304.993688 -299.967863 
L 304.993688 -297.675892 
L 304.993688 -295.383921 
L 304.993688 -293.09195 
L 304.993688 -290.799979 
L 304.993688 -288.508008 
L 304.993688 -286.216037 
L 304.993688 -283.924066 
L 304.993688 -281.632095 
L 304.993688 -279.340124 
L 304.993688 -277.048153 
L 304.993688 -274.756181 
L 304.993688 -272.46421 
L 304.993688 -270.172239 
L 304.993688 -267.880268 
L 304.993688 -265.588297 
L 304.993688 -263.296326 
L 304.993688 -261.004355 
L 304.993688 -258.712384 
L 304.993688 -256.420413 
L 304.993688 -254.128442 
L 304.993688 -251.836471 
L 304.993688 -249.544499 
L 304.993688 -247.252528 
L 304.993688 -244.960557 
L 304.993688 -242.668586 
L 304.993688 -240.376615 
L 304.993688 -238.084644 
L 304.993688 -235.792673 
L 304.993688 -233.500702 
L 304.993688 -231.208731 
L 304.993688 -228.91676 
L 304.993688 -226.624789 
L 304.993688 -224.332817 
L 304.993688 -222.040846 
L 304.993688 -219.748875 
L 304.993688 -217.456904 
L 304.993688 -215.164933 
L 304.993688 -212.872962 
L 304.993688 -210.580991 
L 304.993688 -208.28902 
L 304.993688 -205.997049 
L 304.993688 -203.705078 
L 304.993688 -201.413107 
L 304.993688 -199.121135 
L 304.993688 -196.829164 
L 304.993688 -194.537193 
L 304.993688 -192.245222 
L 304.993688 -189.953251 
L 304.993688 -187.66128 
L 304.993688 -185.369309 
L 304.993688 -183.077338 
L 304.993688 -180.785367 
L 304.993688 -178.493396 
L 304.993688 -176.201425 
L 304.993688 -173.909453 
L 304.993688 -171.617482 
L 304.993688 -169.325511 
L 304.993688 -167.03354 
L 304.993688 -164.741569 
L 304.993688 -162.449598 
L 304.993688 -160.157627 
L 304.993688 -157.865656 
L 304.993688 -155.573685 
L 304.993688 -153.281714 
L 304.993688 -150.989743 
L 304.993688 -148.697771 
L 304.993688 -146.4058 
L 304.993688 -144.113829 
L 304.993688 -141.821858 
L 304.993688 -139.529887 
L 304.993688 -137.237916 
L 304.993688 -134.945945 
L 304.993688 -132.653974 
L 304.993688 -130.362003 
L 304.993688 -128.070032 
L 304.993688 -125.778061 
L 304.993688 -123.486089 
L 304.993688 -121.194118 
L 304.993688 -118.902147 
L 304.993688 -116.610176 
L 304.993688 -114.318205 
z
" style="stroke: #4c4c4c"/>
    </defs>
    <g clip-path="url(#p4475e20581)">
     <use xlink:href="#m2c603af619" x="0" y="399.407438" style="fill: #224fdf; stroke: #4c4c4c"/>
    </g>
   </g>
   <g id="PolyCollection_6">
    <defs>
     <path id="mca5edba641" d="M 306.95562 -128.249111 
L 304.993688 -128.249111 
L 304.993688 -130.703703 
L 304.993688 -133.158295 
L 304.993688 -135.612886 
L 304.993688 -138.067478 
L 304.993688 -140.522069 
L 304.993688 -142.976661 
L 304.993688 -145.431253 
L 304.993688 -147.885844 
L 304.993688 -150.340436 
L 304.993688 -152.795028 
L 304.993688 -155.249619 
L 304.993688 -157.704211 
L 304.993688 -160.158802 
L 304.993688 -162.613394 
L 304.993688 -165.067986 
L 304.993688 -167.522577 
L 304.993688 -169.977169 
L 304.993688 -172.431761 
L 304.993688 -174.886352 
L 304.993688 -177.340944 
L 304.993688 -179.795536 
L 304.993688 -182.250127 
L 304.993688 -184.704719 
L 304.993688 -187.15931 
L 304.993688 -189.613902 
L 304.993688 -192.068494 
L 304.993688 -194.523085 
L 304.993688 -196.977677 
L 304.993688 -199.432269 
L 304.993688 -201.88686 
L 304.993688 -204.341452 
L 304.993688 -206.796043 
L 304.993688 -209.250635 
L 304.993688 -211.705227 
L 304.993688 -214.159818 
L 304.993688 -216.61441 
L 304.993688 -219.069002 
L 304.993688 -221.523593 
L 304.993688 -223.978185 
L 304.993688 -226.432777 
L 304.993688 -228.887368 
L 304.993688 -231.34196 
L 304.993688 -233.796551 
L 304.993688 -236.251143 
L 304.993688 -238.705735 
L 304.993688 -241.160326 
L 304.993688 -243.614918 
L 304.993688 -246.06951 
L 304.993688 -248.524101 
L 304.993688 -250.978693 
L 304.993688 -253.433285 
L 304.993688 -255.887876 
L 304.993688 -258.342468 
L 304.993688 -260.797059 
L 304.993688 -263.251651 
L 304.993688 -265.706243 
L 304.993688 -268.160834 
L 304.993688 -270.615426 
L 304.993688 -273.070018 
L 304.993688 -275.524609 
L 304.993688 -277.979201 
L 304.993688 -280.433792 
L 304.993688 -282.888384 
L 304.993688 -285.342976 
L 304.993688 -287.797567 
L 304.993688 -290.252159 
L 304.993688 -292.706751 
L 304.993688 -295.161342 
L 304.993688 -297.615934 
L 304.993688 -300.070526 
L 304.993688 -302.525117 
L 304.993688 -304.979709 
L 304.993688 -307.4343 
L 304.993688 -309.888892 
L 304.993688 -312.343484 
L 304.993688 -314.798075 
L 304.993688 -317.252667 
L 304.993688 -319.707259 
L 304.993688 -322.16185 
L 304.993688 -324.616442 
L 304.993688 -327.071034 
L 304.993688 -329.525625 
L 304.993688 -331.980217 
L 304.993688 -334.434808 
L 304.993688 -336.8894 
L 304.993688 -339.343992 
L 304.993688 -341.798583 
L 304.993688 -344.253175 
L 304.993688 -346.707767 
L 304.993688 -349.162358 
L 304.993688 -351.61695 
L 304.993688 -354.071541 
L 304.993688 -356.526133 
L 304.993688 -358.980725 
L 304.993688 -361.435316 
L 304.993688 -363.889908 
L 304.993688 -366.3445 
L 304.993688 -368.799091 
L 304.993688 -371.253683 
L 305.989795 -371.253683 
L 305.989795 -371.253683 
L 306.17183 -368.799091 
L 306.382859 -366.3445 
L 306.627456 -363.889908 
L 306.910434 -361.435316 
L 307.236727 -358.980725 
L 307.61131 -356.526133 
L 308.039166 -354.071541 
L 308.525263 -351.61695 
L 309.07449 -349.162358 
L 309.691512 -346.707767 
L 310.380465 -344.253175 
L 311.144508 -341.798583 
L 311.985233 -339.343992 
L 312.902028 -336.8894 
L 313.891501 -334.434808 
L 314.947112 -331.980217 
L 316.059146 -329.525625 
L 317.215111 -327.071034 
L 318.400598 -324.616442 
L 319.600532 -322.16185 
L 320.800681 -319.707259 
L 321.989211 -317.252667 
L 323.158011 -314.798075 
L 324.303559 -312.343484 
L 325.427092 -309.888892 
L 326.533967 -307.4343 
L 327.632221 -304.979709 
L 328.730468 -302.525117 
L 329.835414 -300.070526 
L 330.949366 -297.615934 
L 332.068147 -295.161342 
L 333.179809 -292.706751 
L 334.264408 -290.252159 
L 335.294989 -287.797567 
L 336.239695 -285.342976 
L 337.064781 -282.888384 
L 337.73814 -280.433792 
L 338.232885 -277.979201 
L 338.530539 -275.524609 
L 338.623409 -273.070018 
L 338.515862 -270.615426 
L 338.224365 -268.160834 
L 337.776265 -265.706243 
L 337.207477 -263.251651 
L 336.559314 -260.797059 
L 335.874805 -258.342468 
L 335.194901 -255.887876 
L 334.554954 -253.433285 
L 333.981843 -250.978693 
L 333.492025 -248.524101 
L 333.090707 -246.06951 
L 332.772153 -243.614918 
L 332.521062 -241.160326 
L 332.314781 -238.705735 
L 332.126065 -236.251143 
L 331.926067 -233.796551 
L 331.68722 -231.34196 
L 331.385763 -228.887368 
L 331.003696 -226.432777 
L 330.530053 -223.978185 
L 329.961407 -221.523593 
L 329.301628 -219.069002 
L 328.560946 -216.61441 
L 327.754436 -214.159818 
L 326.900096 -211.705227 
L 326.016753 -209.250635 
L 325.122044 -206.796043 
L 324.230724 -204.341452 
L 323.353498 -201.88686 
L 322.496508 -199.432269 
L 321.661487 -196.977677 
L 320.846508 -194.523085 
L 320.047152 -192.068494 
L 319.257887 -189.613902 
L 318.473452 -187.15931 
L 317.690051 -184.704719 
L 316.906234 -182.250127 
L 316.123394 -179.795536 
L 315.345866 -177.340944 
L 314.580636 -174.886352 
L 313.836729 -172.431761 
L 313.124318 -169.977169 
L 312.453645 -167.522577 
L 311.833861 -165.067986 
L 311.271899 -162.613394 
L 310.771535 -160.158802 
L 310.332775 -157.704211 
L 309.951676 -155.249619 
L 309.620676 -152.795028 
L 309.329406 -150.340436 
L 309.065884 -147.885844 
L 308.817925 -145.431253 
L 308.574543 -142.976661 
L 308.327134 -140.522069 
L 308.070277 -138.067478 
L 307.802044 -135.612886 
L 307.523819 -133.158295 
L 307.239699 -130.703703 
L 306.95562 -128.249111 
z
" style="stroke: #4c4c4c"/>
    </defs>
    <g clip-path="url(#p4475e20581)">
     <use xlink:href="#mca5edba641" x="0" y="399.407438" style="fill: #df7d20; stroke: #4c4c4c"/>
    </g>
   </g>
   <g id="PolyCollection_7">
    <defs>
     <path id="m25486238c9" d="M 397.993688 -82.536162 
L 394.539662 -82.536162 
L 393.699975 -84.519183 
L 392.708165 -86.502205 
L 391.54868 -88.485227 
L 390.208424 -90.468248 
L 388.678737 -92.45127 
L 386.957641 -94.434292 
L 385.052109 -96.417313 
L 382.979972 -98.400335 
L 380.77104 -100.383357 
L 378.467047 -102.366378 
L 376.120125 -104.3494 
L 373.789756 -106.332422 
L 371.538417 -108.315443 
L 369.426416 -110.298465 
L 367.506631 -112.281487 
L 365.819946 -114.264509 
L 364.392083 -116.24753 
L 363.232284 -118.230552 
L 362.333953 -120.213574 
L 361.676997 -122.196595 
L 361.231335 -124.179617 
L 360.960884 -126.162639 
L 360.827398 -128.14566 
L 360.793688 -130.128682 
L 360.826009 -132.111704 
L 360.895648 -134.094725 
L 360.979897 -136.077747 
L 361.062648 -138.060769 
L 361.134796 -140.04379 
L 361.194519 -142.026812 
L 361.247348 -144.009834 
L 361.305904 -145.992855 
L 361.389116 -147.975877 
L 361.520808 -149.958899 
L 361.727647 -151.94192 
L 362.03654 -153.924942 
L 362.471727 -155.907964 
L 363.051859 -157.890985 
L 363.78743 -159.874007 
L 364.678935 -161.857029 
L 365.71604 -163.84005 
L 366.878002 -165.823072 
L 368.135343 -167.806094 
L 369.452678 -169.789115 
L 370.79232 -171.772137 
L 372.118198 -173.755159 
L 373.399489 -175.73818 
L 374.613439 -177.721202 
L 375.746921 -179.704224 
L 376.796551 -181.687245 
L 377.767405 -183.670267 
L 378.670648 -185.653289 
L 379.520569 -187.63631 
L 380.331584 -189.619332 
L 381.115753 -191.602354 
L 381.881188 -193.585375 
L 382.631506 -195.568397 
L 383.36627 -197.551419 
L 384.082128 -199.53444 
L 384.774263 -201.517462 
L 385.437748 -203.500484 
L 386.0685 -205.483505 
L 386.663686 -207.466527 
L 387.221631 -209.449549 
L 387.741428 -211.43257 
L 388.222518 -213.415592 
L 388.664491 -215.398614 
L 389.067258 -217.381635 
L 389.43156 -219.364657 
L 389.759668 -221.347679 
L 390.056013 -223.3307 
L 390.327488 -225.313722 
L 390.58323 -227.296744 
L 390.833862 -229.279766 
L 391.090292 -231.262787 
L 391.362303 -233.245809 
L 391.657224 -235.228831 
L 391.978949 -237.211852 
L 392.327466 -239.194874 
L 392.698978 -241.177896 
L 393.086532 -243.160917 
L 393.481014 -245.143939 
L 393.872323 -247.126961 
L 394.250533 -249.109982 
L 394.606901 -251.093004 
L 394.934625 -253.076026 
L 395.229315 -255.059047 
L 395.489163 -257.042069 
L 395.71485 -259.025091 
L 395.909225 -261.008112 
L 396.076791 -262.991134 
L 396.223087 -264.974156 
L 396.354016 -266.957177 
L 396.475197 -268.940199 
L 396.59142 -270.923221 
L 396.706256 -272.906242 
L 396.821858 -274.889264 
L 396.938945 -276.872286 
L 397.056968 -278.855307 
L 397.993688 -278.855307 
L 397.993688 -278.855307 
L 397.993688 -276.872286 
L 397.993688 -274.889264 
L 397.993688 -272.906242 
L 397.993688 -270.923221 
L 397.993688 -268.940199 
L 397.993688 -266.957177 
L 397.993688 -264.974156 
L 397.993688 -262.991134 
L 397.993688 -261.008112 
L 397.993688 -259.025091 
L 397.993688 -257.042069 
L 397.993688 -255.059047 
L 397.993688 -253.076026 
L 397.993688 -251.093004 
L 397.993688 -249.109982 
L 397.993688 -247.126961 
L 397.993688 -245.143939 
L 397.993688 -243.160917 
L 397.993688 -241.177896 
L 397.993688 -239.194874 
L 397.993688 -237.211852 
L 397.993688 -235.228831 
L 397.993688 -233.245809 
L 397.993688 -231.262787 
L 397.993688 -229.279766 
L 397.993688 -227.296744 
L 397.993688 -225.313722 
L 397.993688 -223.3307 
L 397.993688 -221.347679 
L 397.993688 -219.364657 
L 397.993688 -217.381635 
L 397.993688 -215.398614 
L 397.993688 -213.415592 
L 397.993688 -211.43257 
L 397.993688 -209.449549 
L 397.993688 -207.466527 
L 397.993688 -205.483505 
L 397.993688 -203.500484 
L 397.993688 -201.517462 
L 397.993688 -199.53444 
L 397.993688 -197.551419 
L 397.993688 -195.568397 
L 397.993688 -193.585375 
L 397.993688 -191.602354 
L 397.993688 -189.619332 
L 397.993688 -187.63631 
L 397.993688 -185.653289 
L 397.993688 -183.670267 
L 397.993688 -181.687245 
L 397.993688 -179.704224 
L 397.993688 -177.721202 
L 397.993688 -175.73818 
L 397.993688 -173.755159 
L 397.993688 -171.772137 
L 397.993688 -169.789115 
L 397.993688 -167.806094 
L 397.993688 -165.823072 
L 397.993688 -163.84005 
L 397.993688 -161.857029 
L 397.993688 -159.874007 
L 397.993688 -157.890985 
L 397.993688 -155.907964 
L 397.993688 -153.924942 
L 397.993688 -151.94192 
L 397.993688 -149.958899 
L 397.993688 -147.975877 
L 397.993688 -145.992855 
L 397.993688 -144.009834 
L 397.993688 -142.026812 
L 397.993688 -140.04379 
L 397.993688 -138.060769 
L 397.993688 -136.077747 
L 397.993688 -134.094725 
L 397.993688 -132.111704 
L 397.993688 -130.128682 
L 397.993688 -128.14566 
L 397.993688 -126.162639 
L 397.993688 -124.179617 
L 397.993688 -122.196595 
L 397.993688 -120.213574 
L 397.993688 -118.230552 
L 397.993688 -116.24753 
L 397.993688 -114.264509 
L 397.993688 -112.281487 
L 397.993688 -110.298465 
L 397.993688 -108.315443 
L 397.993688 -106.332422 
L 397.993688 -104.3494 
L 397.993688 -102.366378 
L 397.993688 -100.383357 
L 397.993688 -98.400335 
L 397.993688 -96.417313 
L 397.993688 -94.434292 
L 397.993688 -92.45127 
L 397.993688 -90.468248 
L 397.993688 -88.485227 
L 397.993688 -86.502205 
L 397.993688 -84.519183 
L 397.993688 -82.536162 
z
" style="stroke: #4c4c4c"/>
    </defs>
    <g clip-path="url(#p4475e20581)">
     <use xlink:href="#m25486238c9" x="0" y="399.407438" style="fill: #224fdf; stroke: #4c4c4c"/>
    </g>
   </g>
   <g id="PolyCollection_8">
    <defs>
     <path id="m59e4dfe9fa" d="M 400.238052 -97.854469 
L 397.993688 -97.854469 
L 397.993688 -99.668752 
L 397.993688 -101.483035 
L 397.993688 -103.297319 
L 397.993688 -105.111602 
L 397.993688 -106.925885 
L 397.993688 -108.740168 
L 397.993688 -110.554451 
L 397.993688 -112.368734 
L 397.993688 -114.183017 
L 397.993688 -115.997301 
L 397.993688 -117.811584 
L 397.993688 -119.625867 
L 397.993688 -121.44015 
L 397.993688 -123.254433 
L 397.993688 -125.068716 
L 397.993688 -126.883 
L 397.993688 -128.697283 
L 397.993688 -130.511566 
L 397.993688 -132.325849 
L 397.993688 -134.140132 
L 397.993688 -135.954415 
L 397.993688 -137.768698 
L 397.993688 -139.582982 
L 397.993688 -141.397265 
L 397.993688 -143.211548 
L 397.993688 -145.025831 
L 397.993688 -146.840114 
L 397.993688 -148.654397 
L 397.993688 -150.46868 
L 397.993688 -152.282964 
L 397.993688 -154.097247 
L 397.993688 -155.91153 
L 397.993688 -157.725813 
L 397.993688 -159.540096 
L 397.993688 -161.354379 
L 397.993688 -163.168662 
L 397.993688 -164.982946 
L 397.993688 -166.797229 
L 397.993688 -168.611512 
L 397.993688 -170.425795 
L 397.993688 -172.240078 
L 397.993688 -174.054361 
L 397.993688 -175.868645 
L 397.993688 -177.682928 
L 397.993688 -179.497211 
L 397.993688 -181.311494 
L 397.993688 -183.125777 
L 397.993688 -184.94006 
L 397.993688 -186.754343 
L 397.993688 -188.568627 
L 397.993688 -190.38291 
L 397.993688 -192.197193 
L 397.993688 -194.011476 
L 397.993688 -195.825759 
L 397.993688 -197.640042 
L 397.993688 -199.454325 
L 397.993688 -201.268609 
L 397.993688 -203.082892 
L 397.993688 -204.897175 
L 397.993688 -206.711458 
L 397.993688 -208.525741 
L 397.993688 -210.340024 
L 397.993688 -212.154307 
L 397.993688 -213.968591 
L 397.993688 -215.782874 
L 397.993688 -217.597157 
L 397.993688 -219.41144 
L 397.993688 -221.225723 
L 397.993688 -223.040006 
L 397.993688 -224.854289 
L 397.993688 -226.668573 
L 397.993688 -228.482856 
L 397.993688 -230.297139 
L 397.993688 -232.111422 
L 397.993688 -233.925705 
L 397.993688 -235.739988 
L 397.993688 -237.554272 
L 397.993688 -239.368555 
L 397.993688 -241.182838 
L 397.993688 -242.997121 
L 397.993688 -244.811404 
L 397.993688 -246.625687 
L 397.993688 -248.43997 
L 397.993688 -250.254254 
L 397.993688 -252.068537 
L 397.993688 -253.88282 
L 397.993688 -255.697103 
L 397.993688 -257.511386 
L 397.993688 -259.325669 
L 397.993688 -261.139952 
L 397.993688 -262.954236 
L 397.993688 -264.768519 
L 397.993688 -266.582802 
L 397.993688 -268.397085 
L 397.993688 -270.211368 
L 397.993688 -272.025651 
L 397.993688 -273.839934 
L 397.993688 -275.654218 
L 397.993688 -277.468501 
L 399.004777 -277.468501 
L 399.004777 -277.468501 
L 399.131314 -275.654218 
L 399.264986 -273.839934 
L 399.405087 -272.025651 
L 399.550828 -270.211368 
L 399.701384 -268.397085 
L 399.855963 -266.582802 
L 400.013878 -264.768519 
L 400.174617 -262.954236 
L 400.337903 -261.139952 
L 400.503741 -259.325669 
L 400.67242 -257.511386 
L 400.844487 -255.697103 
L 401.020678 -253.88282 
L 401.201812 -252.068537 
L 401.388656 -250.254254 
L 401.581782 -248.43997 
L 401.78142 -246.625687 
L 401.987339 -244.811404 
L 402.198772 -242.997121 
L 402.414379 -241.182838 
L 402.632284 -239.368555 
L 402.850162 -237.554272 
L 403.065387 -235.739988 
L 403.275209 -233.925705 
L 403.476974 -232.111422 
L 403.668335 -230.297139 
L 403.84747 -228.482856 
L 404.013264 -226.668573 
L 404.165462 -224.854289 
L 404.304779 -223.040006 
L 404.432951 -221.225723 
L 404.552742 -219.41144 
L 404.667886 -217.597157 
L 404.782977 -215.782874 
L 404.903305 -213.968591 
L 405.034627 -212.154307 
L 405.182903 -210.340024 
L 405.353981 -208.525741 
L 405.553256 -206.711458 
L 405.785318 -204.897175 
L 406.053612 -203.082892 
L 406.360128 -201.268609 
L 406.705157 -199.454325 
L 407.087127 -197.640042 
L 407.502548 -195.825759 
L 407.946076 -194.011476 
L 408.410702 -192.197193 
L 408.888061 -190.38291 
L 409.368854 -188.568627 
L 409.843346 -186.754343 
L 410.301916 -184.94006 
L 410.735622 -183.125777 
L 411.136726 -181.311494 
L 411.49915 -179.497211 
L 411.818811 -177.682928 
L 412.093808 -175.868645 
L 412.324434 -174.054361 
L 412.513015 -172.240078 
L 412.663565 -170.425795 
L 412.781303 -168.611512 
L 412.872057 -166.797229 
L 412.941608 -164.982946 
L 412.995049 -163.168662 
L 413.036202 -161.354379 
L 413.067158 -159.540096 
L 413.087994 -157.725813 
L 413.096685 -155.91153 
L 413.089214 -154.097247 
L 413.059896 -152.282964 
L 413.001848 -150.46868 
L 412.907593 -148.654397 
L 412.769719 -146.840114 
L 412.581535 -145.025831 
L 412.337681 -143.211548 
L 412.034622 -141.397265 
L 411.670998 -139.582982 
L 411.247805 -137.768698 
L 410.768399 -135.954415 
L 410.238331 -134.140132 
L 409.665026 -132.325849 
L 409.057358 -130.511566 
L 408.425141 -128.697283 
L 407.778582 -126.883 
L 407.127753 -125.068716 
L 406.482105 -123.254433 
L 405.850058 -121.44015 
L 405.238701 -119.625867 
L 404.653604 -117.811584 
L 404.098746 -115.997301 
L 403.576556 -114.183017 
L 403.08805 -112.368734 
L 402.633037 -110.554451 
L 402.210379 -108.740168 
L 401.818267 -106.925885 
L 401.4545 -105.111602 
L 401.116737 -103.297319 
L 400.802708 -101.483035 
L 400.510379 -99.668752 
L 400.238052 -97.854469 
z
" style="stroke: #4c4c4c"/>
    </defs>
    <g clip-path="url(#p4475e20581)">
     <use xlink:href="#m59e4dfe9fa" x="0" y="399.407438" style="fill: #df7d20; stroke: #4c4c4c"/>
    </g>
   </g>
   <g id="PolyCollection_9">
    <defs>
     <path id="m0db6e027eb" d="M 490.993688 -74.687438 
L 490.297628 -74.687438 
L 490.226102 -76.547811 
L 490.155345 -78.408185 
L 490.075328 -80.268559 
L 489.97155 -82.128933 
L 489.82608 -83.989307 
L 489.618921 -85.849681 
L 489.329437 -87.710054 
L 488.937666 -89.570428 
L 488.425488 -91.430802 
L 487.77773 -93.291176 
L 486.983222 -95.15155 
L 486.03565 -97.011924 
L 484.933935 -98.872298 
L 483.681813 -100.732671 
L 482.286488 -102.593045 
L 480.756605 -104.453419 
L 479.100124 -106.313793 
L 477.322958 -108.174167 
L 475.429117 -110.034541 
L 473.422731 -111.894915 
L 471.311738 -113.755288 
L 469.112484 -115.615662 
L 466.854072 -117.476036 
L 464.581198 -119.33641 
L 462.354356 -121.196784 
L 460.246725 -123.057158 
L 458.337617 -124.917532 
L 456.70324 -126.777905 
L 455.406308 -128.638279 
L 454.486716 -130.498653 
L 453.955501 -132.359027 
L 453.793688 -134.219401 
L 453.95628 -136.079775 
L 454.380251 -137.940149 
L 454.994375 -139.800522 
L 455.728623 -141.660896 
L 456.521544 -143.52127 
L 457.325159 -145.381644 
L 458.107728 -147.242018 
L 458.85508 -149.102392 
L 459.5708 -150.962766 
L 460.275014 -152.823139 
L 461.001206 -154.683513 
L 461.79066 -156.543887 
L 462.684817 -158.404261 
L 463.716645 -160.264635 
L 464.902778 -162.125009 
L 466.23827 -163.985383 
L 467.695427 -165.845756 
L 469.227266 -167.70613 
L 470.7751 -169.566504 
L 472.278707 -171.426878 
L 473.686849 -173.287252 
L 474.965746 -175.147626 
L 476.103556 -177.007999 
L 477.109897 -178.868373 
L 478.010694 -180.728747 
L 478.839835 -182.589121 
L 479.62989 -184.449495 
L 480.404319 -186.309869 
L 481.173059 -188.170243 
L 481.932395 -190.030616 
L 482.668768 -191.89099 
L 483.36505 -193.751364 
L 484.007164 -195.611738 
L 484.588927 -197.472112 
L 485.113674 -199.332486 
L 485.592347 -201.19286 
L 486.038998 -203.053233 
L 486.465439 -204.913607 
L 486.877016 -206.773981 
L 487.270939 -208.634355 
L 487.637614 -210.494729 
L 487.964365 -212.355103 
L 488.240162 -214.215477 
L 488.459742 -216.07585 
L 488.625854 -217.936224 
L 488.749031 -219.796598 
L 488.845147 -221.656972 
L 488.931651 -223.517346 
L 489.023665 -225.37772 
L 489.131072 -227.238094 
L 489.257262 -229.098467 
L 489.399648 -230.958841 
L 489.551509 -232.819215 
L 489.704432 -234.679589 
L 489.850549 -236.539963 
L 489.984019 -238.400337 
L 490.101557 -240.260711 
L 490.202149 -242.121084 
L 490.286324 -243.981458 
L 490.355412 -245.841832 
L 490.41108 -247.702206 
L 490.455235 -249.56258 
L 490.490172 -251.422954 
L 490.518743 -253.283328 
L 490.544292 -255.143701 
L 490.570297 -257.004075 
L 490.599758 -258.864449 
L 490.993688 -258.864449 
L 490.993688 -258.864449 
L 490.993688 -257.004075 
L 490.993688 -255.143701 
L 490.993688 -253.283328 
L 490.993688 -251.422954 
L 490.993688 -249.56258 
L 490.993688 -247.702206 
L 490.993688 -245.841832 
L 490.993688 -243.981458 
L 490.993688 -242.121084 
L 490.993688 -240.260711 
L 490.993688 -238.400337 
L 490.993688 -236.539963 
L 490.993688 -234.679589 
L 490.993688 -232.819215 
L 490.993688 -230.958841 
L 490.993688 -229.098467 
L 490.993688 -227.238094 
L 490.993688 -225.37772 
L 490.993688 -223.517346 
L 490.993688 -221.656972 
L 490.993688 -219.796598 
L 490.993688 -217.936224 
L 490.993688 -216.07585 
L 490.993688 -214.215477 
L 490.993688 -212.355103 
L 490.993688 -210.494729 
L 490.993688 -208.634355 
L 490.993688 -206.773981 
L 490.993688 -204.913607 
L 490.993688 -203.053233 
L 490.993688 -201.19286 
L 490.993688 -199.332486 
L 490.993688 -197.472112 
L 490.993688 -195.611738 
L 490.993688 -193.751364 
L 490.993688 -191.89099 
L 490.993688 -190.030616 
L 490.993688 -188.170243 
L 490.993688 -186.309869 
L 490.993688 -184.449495 
L 490.993688 -182.589121 
L 490.993688 -180.728747 
L 490.993688 -178.868373 
L 490.993688 -177.007999 
L 490.993688 -175.147626 
L 490.993688 -173.287252 
L 490.993688 -171.426878 
L 490.993688 -169.566504 
L 490.993688 -167.70613 
L 490.993688 -165.845756 
L 490.993688 -163.985383 
L 490.993688 -162.125009 
L 490.993688 -160.264635 
L 490.993688 -158.404261 
L 490.993688 -156.543887 
L 490.993688 -154.683513 
L 490.993688 -152.823139 
L 490.993688 -150.962766 
L 490.993688 -149.102392 
L 490.993688 -147.242018 
L 490.993688 -145.381644 
L 490.993688 -143.52127 
L 490.993688 -141.660896 
L 490.993688 -139.800522 
L 490.993688 -137.940149 
L 490.993688 -136.079775 
L 490.993688 -134.219401 
L 490.993688 -132.359027 
L 490.993688 -130.498653 
L 490.993688 -128.638279 
L 490.993688 -126.777905 
L 490.993688 -124.917532 
L 490.993688 -123.057158 
L 490.993688 -121.196784 
L 490.993688 -119.33641 
L 490.993688 -117.476036 
L 490.993688 -115.615662 
L 490.993688 -113.755288 
L 490.993688 -111.894915 
L 490.993688 -110.034541 
L 490.993688 -108.174167 
L 490.993688 -106.313793 
L 490.993688 -104.453419 
L 490.993688 -102.593045 
L 490.993688 -100.732671 
L 490.993688 -98.872298 
L 490.993688 -97.011924 
L 490.993688 -95.15155 
L 490.993688 -93.291176 
L 490.993688 -91.430802 
L 490.993688 -89.570428 
L 490.993688 -87.710054 
L 490.993688 -85.849681 
L 490.993688 -83.989307 
L 490.993688 -82.128933 
L 490.993688 -80.268559 
L 490.993688 -78.408185 
L 490.993688 -76.547811 
L 490.993688 -74.687438 
z
" style="stroke: #4c4c4c"/>
    </defs>
    <g clip-path="url(#p4475e20581)">
     <use xlink:href="#m0db6e027eb" x="0" y="399.407438" style="fill: #224fdf; stroke: #4c4c4c"/>
    </g>
   </g>
   <g id="PolyCollection_10">
    <defs>
     <path id="m10d3fb0532" d="M 493.406731 -107.929653 
L 490.993688 -107.929653 
L 490.993688 -109.468791 
L 490.993688 -111.007929 
L 490.993688 -112.547067 
L 490.993688 -114.086205 
L 490.993688 -115.625343 
L 490.993688 -117.164482 
L 490.993688 -118.70362 
L 490.993688 -120.242758 
L 490.993688 -121.781896 
L 490.993688 -123.321034 
L 490.993688 -124.860172 
L 490.993688 -126.39931 
L 490.993688 -127.938448 
L 490.993688 -129.477586 
L 490.993688 -131.016725 
L 490.993688 -132.555863 
L 490.993688 -134.095001 
L 490.993688 -135.634139 
L 490.993688 -137.173277 
L 490.993688 -138.712415 
L 490.993688 -140.251553 
L 490.993688 -141.790691 
L 490.993688 -143.329829 
L 490.993688 -144.868967 
L 490.993688 -146.408106 
L 490.993688 -147.947244 
L 490.993688 -149.486382 
L 490.993688 -151.02552 
L 490.993688 -152.564658 
L 490.993688 -154.103796 
L 490.993688 -155.642934 
L 490.993688 -157.182072 
L 490.993688 -158.72121 
L 490.993688 -160.260348 
L 490.993688 -161.799487 
L 490.993688 -163.338625 
L 490.993688 -164.877763 
L 490.993688 -166.416901 
L 490.993688 -167.956039 
L 490.993688 -169.495177 
L 490.993688 -171.034315 
L 490.993688 -172.573453 
L 490.993688 -174.112591 
L 490.993688 -175.65173 
L 490.993688 -177.190868 
L 490.993688 -178.730006 
L 490.993688 -180.269144 
L 490.993688 -181.808282 
L 490.993688 -183.34742 
L 490.993688 -184.886558 
L 490.993688 -186.425696 
L 490.993688 -187.964834 
L 490.993688 -189.503972 
L 490.993688 -191.043111 
L 490.993688 -192.582249 
L 490.993688 -194.121387 
L 490.993688 -195.660525 
L 490.993688 -197.199663 
L 490.993688 -198.738801 
L 490.993688 -200.277939 
L 490.993688 -201.817077 
L 490.993688 -203.356215 
L 490.993688 -204.895353 
L 490.993688 -206.434492 
L 490.993688 -207.97363 
L 490.993688 -209.512768 
L 490.993688 -211.051906 
L 490.993688 -212.591044 
L 490.993688 -214.130182 
L 490.993688 -215.66932 
L 490.993688 -217.208458 
L 490.993688 -218.747596 
L 490.993688 -220.286734 
L 490.993688 -221.825873 
L 490.993688 -223.365011 
L 490.993688 -224.904149 
L 490.993688 -226.443287 
L 490.993688 -227.982425 
L 490.993688 -229.521563 
L 490.993688 -231.060701 
L 490.993688 -232.599839 
L 490.993688 -234.138977 
L 490.993688 -235.678116 
L 490.993688 -237.217254 
L 490.993688 -238.756392 
L 490.993688 -240.29553 
L 490.993688 -241.834668 
L 490.993688 -243.373806 
L 490.993688 -244.912944 
L 490.993688 -246.452082 
L 490.993688 -247.99122 
L 490.993688 -249.530358 
L 490.993688 -251.069497 
L 490.993688 -252.608635 
L 490.993688 -254.147773 
L 490.993688 -255.686911 
L 490.993688 -257.226049 
L 490.993688 -258.765187 
L 490.993688 -260.304325 
L 491.245199 -260.304325 
L 491.245199 -260.304325 
L 491.243179 -258.765187 
L 491.236822 -257.226049 
L 491.22658 -255.686911 
L 491.213151 -254.147773 
L 491.197435 -252.608635 
L 491.180483 -251.069497 
L 491.163448 -249.530358 
L 491.147533 -247.99122 
L 491.133954 -246.452082 
L 491.12391 -244.912944 
L 491.118574 -243.373806 
L 491.119091 -241.834668 
L 491.12658 -240.29553 
L 491.142146 -238.756392 
L 491.16688 -237.217254 
L 491.20185 -235.678116 
L 491.248082 -234.138977 
L 491.306512 -232.599839 
L 491.377927 -231.060701 
L 491.462881 -229.521563 
L 491.561606 -227.982425 
L 491.67392 -226.443287 
L 491.799132 -224.904149 
L 491.935988 -223.365011 
L 492.082636 -221.825873 
L 492.236652 -220.286734 
L 492.395124 -218.747596 
L 492.554791 -217.208458 
L 492.712252 -215.66932 
L 492.86422 -214.130182 
L 493.007794 -212.591044 
L 493.140746 -211.051906 
L 493.261762 -209.512768 
L 493.370622 -207.97363 
L 493.46829 -206.434492 
L 493.556896 -204.895353 
L 493.639592 -203.356215 
L 493.720321 -201.817077 
L 493.803488 -200.277939 
L 493.893605 -198.738801 
L 493.994917 -197.199663 
L 494.111091 -195.660525 
L 494.244973 -194.121387 
L 494.398459 -192.582249 
L 494.572484 -191.043111 
L 494.767116 -189.503972 
L 494.981739 -187.964834 
L 495.215282 -186.425696 
L 495.466449 -184.886558 
L 495.733916 -183.34742 
L 496.016456 -181.808282 
L 496.312965 -180.269144 
L 496.622406 -178.730006 
L 496.943655 -177.190868 
L 497.275301 -175.65173 
L 497.615425 -174.112591 
L 497.961395 -172.573453 
L 498.309722 -171.034315 
L 498.655993 -169.495177 
L 498.994915 -167.956039 
L 499.32045 -166.416901 
L 499.626056 -164.877763 
L 499.904997 -163.338625 
L 500.150698 -161.799487 
L 500.357124 -160.260348 
L 500.519137 -158.72121 
L 500.632818 -157.182072 
L 500.695716 -155.642934 
L 500.707021 -154.103796 
L 500.667631 -152.564658 
L 500.580132 -151.02552 
L 500.448665 -149.486382 
L 500.278711 -147.947244 
L 500.076788 -146.408106 
L 499.850086 -144.868967 
L 499.606054 -143.329829 
L 499.351969 -141.790691 
L 499.09451 -140.251553 
L 498.839361 -138.712415 
L 498.590884 -137.173277 
L 498.351872 -135.634139 
L 498.123423 -134.095001 
L 497.904928 -132.555863 
L 497.694208 -131.016725 
L 497.487767 -129.477586 
L 497.281165 -127.938448 
L 497.069468 -126.39931 
L 496.847751 -124.860172 
L 496.61159 -123.321034 
L 496.357521 -121.781896 
L 496.0834 -120.242758 
L 495.788646 -118.70362 
L 495.474331 -117.164482 
L 495.143131 -115.625343 
L 494.799131 -114.086205 
L 494.447509 -112.547067 
L 494.094151 -111.007929 
L 493.745219 -109.468791 
L 493.406731 -107.929653 
z
" style="stroke: #4c4c4c"/>
    </defs>
    <g clip-path="url(#p4475e20581)">
     <use xlink:href="#m10d3fb0532" x="0" y="399.407438" style="fill: #df7d20; stroke: #4c4c4c"/>
    </g>
   </g>
   <g id="PolyCollection_11">
    <defs>
     <path id="m12cf767084" d="M 583.993687 -115.489304 
L 577.79384 -115.489304 
L 577.068685 -117.123242 
L 576.304746 -118.75718 
L 575.49524 -120.391117 
L 574.631454 -122.025055 
L 573.703668 -123.658993 
L 572.702321 -125.292931 
L 571.619245 -126.926868 
L 570.448819 -128.560806 
L 569.188888 -130.194744 
L 567.841345 -131.828682 
L 566.412333 -133.462619 
L 564.912096 -135.096557 
L 563.354549 -136.730495 
L 561.756686 -138.364432 
L 560.137927 -139.99837 
L 558.519502 -141.632308 
L 556.92391 -143.266246 
L 555.374437 -144.900183 
L 553.894697 -146.534121 
L 552.508079 -148.168059 
L 551.237063 -149.801997 
L 550.102312 -151.435934 
L 549.121567 -153.069872 
L 548.308415 -154.70381 
L 547.671029 -156.337747 
L 547.211081 -157.971685 
L 546.922992 -159.605623 
L 546.793687 -161.239561 
L 546.802977 -162.873498 
L 546.924593 -164.507436 
L 547.12785 -166.141374 
L 547.379808 -167.775311 
L 547.64773 -169.409249 
L 547.901615 -171.043187 
L 548.116546 -172.677125 
L 548.274625 -174.311062 
L 548.36628 -175.945 
L 548.390847 -177.578938 
L 548.356354 -179.212876 
L 548.278553 -180.846813 
L 548.179318 -182.480751 
L 548.084594 -184.114689 
L 548.022112 -185.748626 
L 548.019119 -187.382564 
L 548.10033 -189.016502 
L 548.286287 -190.65044 
L 548.592235 -192.284377 
L 549.02756 -193.918315 
L 549.595754 -195.552253 
L 550.294835 -197.186191 
L 551.118082 -198.820128 
L 552.054955 -200.454066 
L 553.092055 -202.088004 
L 554.213998 -203.721941 
L 555.404145 -205.355879 
L 556.645129 -206.989817 
L 557.919196 -208.623755 
L 559.208414 -210.257692 
L 560.494821 -211.89163 
L 561.760604 -213.525568 
L 562.988404 -215.159505 
L 564.161783 -216.793443 
L 565.265887 -218.427381 
L 566.288256 -220.061319 
L 567.219694 -221.695256 
L 568.055059 -223.329194 
L 568.793855 -224.963132 
L 569.440458 -226.59707 
L 570.003915 -228.231007 
L 570.497266 -229.864945 
L 570.936449 -231.498883 
L 571.338886 -233.13282 
L 571.721936 -234.766758 
L 572.10139 -236.400696 
L 572.490206 -238.034634 
L 572.897627 -239.668571 
L 573.328763 -241.302509 
L 573.784662 -242.936447 
L 574.262802 -244.570385 
L 574.75791 -246.204322 
L 575.262947 -247.83826 
L 575.77013 -249.472198 
L 576.271849 -251.106135 
L 576.761393 -252.740073 
L 577.233433 -254.374011 
L 577.684248 -256.007949 
L 578.111744 -257.641886 
L 578.515294 -259.275824 
L 578.895482 -260.909762 
L 579.253794 -262.543699 
L 579.592307 -264.177637 
L 579.9134 -265.811575 
L 580.219514 -267.445513 
L 580.512941 -269.07945 
L 580.795659 -270.713388 
L 581.069208 -272.347326 
L 581.334584 -273.981264 
L 581.592192 -275.615201 
L 581.84183 -277.249139 
L 583.993687 -277.249139 
L 583.993687 -277.249139 
L 583.993687 -275.615201 
L 583.993687 -273.981264 
L 583.993687 -272.347326 
L 583.993687 -270.713388 
L 583.993687 -269.07945 
L 583.993687 -267.445513 
L 583.993687 -265.811575 
L 583.993687 -264.177637 
L 583.993687 -262.543699 
L 583.993687 -260.909762 
L 583.993687 -259.275824 
L 583.993687 -257.641886 
L 583.993687 -256.007949 
L 583.993687 -254.374011 
L 583.993687 -252.740073 
L 583.993687 -251.106135 
L 583.993687 -249.472198 
L 583.993687 -247.83826 
L 583.993687 -246.204322 
L 583.993687 -244.570385 
L 583.993687 -242.936447 
L 583.993687 -241.302509 
L 583.993687 -239.668571 
L 583.993687 -238.034634 
L 583.993687 -236.400696 
L 583.993687 -234.766758 
L 583.993687 -233.13282 
L 583.993687 -231.498883 
L 583.993687 -229.864945 
L 583.993687 -228.231007 
L 583.993687 -226.59707 
L 583.993687 -224.963132 
L 583.993687 -223.329194 
L 583.993687 -221.695256 
L 583.993687 -220.061319 
L 583.993687 -218.427381 
L 583.993687 -216.793443 
L 583.993687 -215.159505 
L 583.993687 -213.525568 
L 583.993687 -211.89163 
L 583.993687 -210.257692 
L 583.993687 -208.623755 
L 583.993687 -206.989817 
L 583.993687 -205.355879 
L 583.993687 -203.721941 
L 583.993687 -202.088004 
L 583.993687 -200.454066 
L 583.993687 -198.820128 
L 583.993687 -197.186191 
L 583.993687 -195.552253 
L 583.993687 -193.918315 
L 583.993687 -192.284377 
L 583.993687 -190.65044 
L 583.993687 -189.016502 
L 583.993687 -187.382564 
L 583.993687 -185.748626 
L 583.993687 -184.114689 
L 583.993687 -182.480751 
L 583.993687 -180.846813 
L 583.993687 -179.212876 
L 583.993687 -177.578938 
L 583.993687 -175.945 
L 583.993687 -174.311062 
L 583.993687 -172.677125 
L 583.993687 -171.043187 
L 583.993687 -169.409249 
L 583.993687 -167.775311 
L 583.993687 -166.141374 
L 583.993687 -164.507436 
L 583.993687 -162.873498 
L 583.993687 -161.239561 
L 583.993687 -159.605623 
L 583.993687 -157.971685 
L 583.993687 -156.337747 
L 583.993687 -154.70381 
L 583.993687 -153.069872 
L 583.993687 -151.435934 
L 583.993687 -149.801997 
L 583.993687 -148.168059 
L 583.993687 -146.534121 
L 583.993687 -144.900183 
L 583.993687 -143.266246 
L 583.993687 -141.632308 
L 583.993687 -139.99837 
L 583.993687 -138.364432 
L 583.993687 -136.730495 
L 583.993687 -135.096557 
L 583.993687 -133.462619 
L 583.993687 -131.828682 
L 583.993687 -130.194744 
L 583.993687 -128.560806 
L 583.993687 -126.926868 
L 583.993687 -125.292931 
L 583.993687 -123.658993 
L 583.993687 -122.025055 
L 583.993687 -120.391117 
L 583.993687 -118.75718 
L 583.993687 -117.123242 
L 583.993687 -115.489304 
z
" style="stroke: #4c4c4c"/>
    </defs>
    <g clip-path="url(#p4475e20581)">
     <use xlink:href="#m12cf767084" x="0" y="399.407438" style="fill: #224fdf; stroke: #4c4c4c"/>
    </g>
   </g>
   <g id="PolyCollection_12">
    <defs>
     <path id="mf706efdbd7" d="M 585.705889 -115.311072 
L 583.993687 -115.311072 
L 583.993687 -117.431196 
L 583.993687 -119.55132 
L 583.993687 -121.671444 
L 583.993687 -123.791569 
L 583.993687 -125.911693 
L 583.993687 -128.031817 
L 583.993687 -130.151941 
L 583.993687 -132.272066 
L 583.993687 -134.39219 
L 583.993687 -136.512314 
L 583.993687 -138.632438 
L 583.993687 -140.752562 
L 583.993687 -142.872687 
L 583.993687 -144.992811 
L 583.993687 -147.112935 
L 583.993687 -149.233059 
L 583.993687 -151.353184 
L 583.993687 -153.473308 
L 583.993687 -155.593432 
L 583.993687 -157.713556 
L 583.993687 -159.833681 
L 583.993687 -161.953805 
L 583.993687 -164.073929 
L 583.993687 -166.194053 
L 583.993687 -168.314177 
L 583.993687 -170.434302 
L 583.993687 -172.554426 
L 583.993687 -174.67455 
L 583.993687 -176.794674 
L 583.993687 -178.914799 
L 583.993687 -181.034923 
L 583.993687 -183.155047 
L 583.993687 -185.275171 
L 583.993687 -187.395296 
L 583.993687 -189.51542 
L 583.993687 -191.635544 
L 583.993687 -193.755668 
L 583.993687 -195.875793 
L 583.993687 -197.995917 
L 583.993687 -200.116041 
L 583.993687 -202.236165 
L 583.993687 -204.356289 
L 583.993687 -206.476414 
L 583.993687 -208.596538 
L 583.993687 -210.716662 
L 583.993687 -212.836786 
L 583.993687 -214.956911 
L 583.993687 -217.077035 
L 583.993687 -219.197159 
L 583.993687 -221.317283 
L 583.993687 -223.437408 
L 583.993687 -225.557532 
L 583.993687 -227.677656 
L 583.993687 -229.79778 
L 583.993687 -231.917904 
L 583.993687 -234.038029 
L 583.993687 -236.158153 
L 583.993687 -238.278277 
L 583.993687 -240.398401 
L 583.993687 -242.518526 
L 583.993687 -244.63865 
L 583.993687 -246.758774 
L 583.993687 -248.878898 
L 583.993687 -250.999023 
L 583.993687 -253.119147 
L 583.993687 -255.239271 
L 583.993687 -257.359395 
L 583.993687 -259.479519 
L 583.993687 -261.599644 
L 583.993687 -263.719768 
L 583.993687 -265.839892 
L 583.993687 -267.960016 
L 583.993687 -270.080141 
L 583.993687 -272.200265 
L 583.993687 -274.320389 
L 583.993687 -276.440513 
L 583.993687 -278.560638 
L 583.993687 -280.680762 
L 583.993687 -282.800886 
L 583.993687 -284.92101 
L 583.993687 -287.041135 
L 583.993687 -289.161259 
L 583.993687 -291.281383 
L 583.993687 -293.401507 
L 583.993687 -295.521631 
L 583.993687 -297.641756 
L 583.993687 -299.76188 
L 583.993687 -301.882004 
L 583.993687 -304.002128 
L 583.993687 -306.122253 
L 583.993687 -308.242377 
L 583.993687 -310.362501 
L 583.993687 -312.482625 
L 583.993687 -314.60275 
L 583.993687 -316.722874 
L 583.993687 -318.842998 
L 583.993687 -320.963122 
L 583.993687 -323.083246 
L 583.993687 -325.203371 
L 585.782482 -325.203371 
L 585.782482 -325.203371 
L 586.03002 -323.083246 
L 586.292745 -320.963122 
L 586.569023 -318.842998 
L 586.856869 -316.722874 
L 587.153935 -314.60275 
L 587.457515 -312.482625 
L 587.764584 -310.362501 
L 588.071891 -308.242377 
L 588.37612 -306.122253 
L 588.674123 -304.002128 
L 588.96323 -301.882004 
L 589.2416 -299.76188 
L 589.508589 -297.641756 
L 589.765081 -295.521631 
L 590.013729 -293.401507 
L 590.259034 -291.281383 
L 590.507243 -289.161259 
L 590.766013 -287.041135 
L 591.043863 -284.92101 
L 591.349435 -282.800886 
L 591.690651 -280.680762 
L 592.073829 -278.560638 
L 592.502893 -276.440513 
L 592.97877 -274.320389 
L 593.499064 -272.200265 
L 594.058075 -270.080141 
L 594.647186 -267.960016 
L 595.255576 -265.839892 
L 595.871203 -263.719768 
L 596.481935 -261.599644 
L 597.076706 -259.479519 
L 597.646544 -257.359395 
L 598.185361 -255.239271 
L 598.690403 -253.119147 
L 599.16231 -250.999023 
L 599.6048 -248.878898 
L 600.02401 -246.758774 
L 600.427604 -244.63865 
L 600.823747 -242.518526 
L 601.220088 -240.398401 
L 601.622852 -238.278277 
L 602.036158 -236.158153 
L 602.461599 -234.038029 
L 602.898142 -231.917904 
L 603.34231 -229.79778 
L 603.788626 -227.677656 
L 604.230243 -225.557532 
L 604.659688 -223.437408 
L 605.069626 -221.317283 
L 605.453574 -219.197159 
L 605.806469 -217.077035 
L 606.125047 -214.956911 
L 606.407973 -212.836786 
L 606.655714 -210.716662 
L 606.870149 -208.596538 
L 607.053956 -206.476414 
L 607.209835 -204.356289 
L 607.339646 -202.236165 
L 607.44356 -200.116041 
L 607.519353 -197.995917 
L 607.561925 -195.875793 
L 607.563153 -193.755668 
L 607.512146 -191.635544 
L 607.395908 -189.51542 
L 607.200395 -187.395296 
L 606.911878 -185.275171 
L 606.518482 -183.155047 
L 606.011727 -181.034923 
L 605.387877 -178.914799 
L 604.648929 -176.794674 
L 603.803071 -174.67455 
L 602.864528 -172.554426 
L 601.85278 -170.434302 
L 600.791216 -168.314177 
L 599.705363 -166.194053 
L 598.620901 -164.073929 
L 597.56169 -161.953805 
L 596.548028 -159.833681 
L 595.595355 -157.713556 
L 594.71351 -155.593432 
L 593.906596 -153.473308 
L 593.17344 -151.353184 
L 592.508518 -149.233059 
L 591.903212 -147.112935 
L 591.347206 -144.992811 
L 590.829851 -142.872687 
L 590.341339 -140.752562 
L 589.873573 -138.632438 
L 589.420698 -136.512314 
L 588.979266 -134.39219 
L 588.54809 -132.272066 
L 588.12787 -130.151941 
L 587.720666 -128.031817 
L 587.329327 -125.911693 
L 586.95695 -123.791569 
L 586.606427 -121.671444 
L 586.280117 -119.55132 
L 585.979655 -117.431196 
L 585.705889 -115.311072 
z
" style="stroke: #4c4c4c"/>
    </defs>
    <g clip-path="url(#p4475e20581)">
     <use xlink:href="#mf706efdbd7" x="0" y="399.407438" style="fill: #df7d20; stroke: #4c4c4c"/>
    </g>
   </g>
   <g id="line2d_12">
    <path d="M 118.993688 318.932665 
L 118.993688 22.32 
" clip-path="url(#p4475e20581)" style="fill: none; stroke: #4c4c4c; stroke-linecap: round"/>
   </g>
   <g id="line2d_13">
    <path d="M 118.993688 196.542992 
L 118.993688 105.817816 
" clip-path="url(#p4475e20581)" style="fill: none; stroke: #4c4c4c; stroke-width: 3; stroke-linecap: round"/>
   </g>
   <g id="line2d_14">
    <path d="M 211.993688 310.926048 
L 211.993688 108.856842 
" clip-path="url(#p4475e20581)" style="fill: none; stroke: #4c4c4c; stroke-linecap: round"/>
   </g>
   <g id="line2d_15">
    <path d="M 211.993688 249.233296 
L 211.993688 191.984113 
" clip-path="url(#p4475e20581)" style="fill: none; stroke: #4c4c4c; stroke-width: 3; stroke-linecap: round"/>
   </g>
   <g id="line2d_16">
    <path d="M 304.993688 285.089232 
L 304.993688 28.153755 
" clip-path="url(#p4475e20581)" style="fill: none; stroke: #4c4c4c; stroke-linecap: round"/>
   </g>
   <g id="line2d_17">
    <path d="M 304.993688 198.722108 
L 304.993688 126.349241 
" clip-path="url(#p4475e20581)" style="fill: none; stroke: #4c4c4c; stroke-width: 3; stroke-linecap: round"/>
   </g>
   <g id="line2d_18">
    <path d="M 397.993688 316.871276 
L 397.993688 139.181482 
" clip-path="url(#p4475e20581)" style="fill: none; stroke: #4c4c4c; stroke-linecap: round"/>
   </g>
   <g id="line2d_19">
    <path d="M 397.993688 268.882673 
L 397.993688 216.970562 
" clip-path="url(#p4475e20581)" style="fill: none; stroke: #4c4c4c; stroke-width: 3; stroke-linecap: round"/>
   </g>
   <g id="line2d_20">
    <path d="M 490.993688 321.02737 
L 490.993688 185.908314 
" clip-path="url(#p4475e20581)" style="fill: none; stroke: #4c4c4c; stroke-linecap: round"/>
   </g>
   <g id="line2d_21">
    <path d="M 490.993688 270.128307 
L 490.993688 234.373225 
" clip-path="url(#p4475e20581)" style="fill: none; stroke: #4c4c4c; stroke-width: 3; stroke-linecap: round"/>
   </g>
   <g id="line2d_22">
    <path d="M 583.993687 284.096366 
L 583.993687 100.287755 
" clip-path="url(#p4475e20581)" style="fill: none; stroke: #4c4c4c; stroke-linecap: round"/>
   </g>
   <g id="line2d_23">
    <path d="M 583.993687 235.967762 
L 583.993687 181.3316 
" clip-path="url(#p4475e20581)" style="fill: none; stroke: #4c4c4c; stroke-width: 3; stroke-linecap: round"/>
   </g>
   <g id="patch_5">
    <path d="M 72.493688 339.84 
L 72.493688 7.2 
" style="fill: none; stroke: #262626; stroke-width: 2.5; stroke-linejoin: miter; stroke-linecap: square"/>
   </g>
   <g id="patch_6">
    <path d="M 630.493687 339.84 
L 630.493687 7.2 
" style="fill: none; stroke: #262626; stroke-width: 2.5; stroke-linejoin: miter; stroke-linecap: square"/>
   </g>
   <g id="patch_7">
    <path d="M 72.493688 339.84 
L 630.493687 339.84 
" style="fill: none; stroke: #262626; stroke-width: 2.5; stroke-linejoin: miter; stroke-linecap: square"/>
   </g>
   <g id="patch_8">
    <path d="M 72.493688 7.2 
L 630.493687 7.2 
" style="fill: none; stroke: #262626; stroke-width: 2.5; stroke-linejoin: miter; stroke-linecap: square"/>
   </g>
   <g id="PathCollection_1">
    <defs>
     <path id="m06bc3d8b2f" d="M 0 1 
C 0.265203 1 0.51958 0.894634 0.707107 0.707107 
C 0.894634 0.51958 1 0.265203 1 0 
C 1 -0.265203 0.894634 -0.51958 0.707107 -0.707107 
C 0.51958 -0.894634 0.265203 -1 0 -1 
C -0.265203 -1 -0.51958 -0.894634 -0.707107 -0.707107 
C -0.894634 -0.51958 -1 -0.265203 -1 0 
C -1 0.265203 -0.894634 0.51958 -0.707107 0.707107 
C -0.51958 0.894634 -0.265203 1 0 1 
z
" style="stroke: #4c4c4c; stroke-width: 0.8"/>
    </defs>
    <g clip-path="url(#p4475e20581)">
     <use xlink:href="#m06bc3d8b2f" x="118.993688" y="152.889937" style="fill: #ffffff; stroke: #4c4c4c; stroke-width: 0.8"/>
    </g>
   </g>
   <g id="PathCollection_2">
    <g clip-path="url(#p4475e20581)">
     <use xlink:href="#m06bc3d8b2f" x="211.993688" y="223.32866" style="fill: #ffffff; stroke: #4c4c4c; stroke-width: 0.8"/>
    </g>
   </g>
   <g id="PathCollection_3">
    <g clip-path="url(#p4475e20581)">
     <use xlink:href="#m06bc3d8b2f" x="304.993688" y="163.887982" style="fill: #ffffff; stroke: #4c4c4c; stroke-width: 0.8"/>
    </g>
   </g>
   <g id="PathCollection_4">
    <g clip-path="url(#p4475e20581)">
     <use xlink:href="#m06bc3d8b2f" x="397.993688" y="245.971812" style="fill: #ffffff; stroke: #4c4c4c; stroke-width: 0.8"/>
    </g>
   </g>
   <g id="PathCollection_5">
    <g clip-path="url(#p4475e20581)">
     <use xlink:href="#m06bc3d8b2f" x="490.993688" y="253.96261" style="fill: #ffffff; stroke: #4c4c4c; stroke-width: 0.8"/>
    </g>
   </g>
   <g id="PathCollection_6">
    <g clip-path="url(#p4475e20581)">
     <use xlink:href="#m06bc3d8b2f" x="583.993687" y="209.677033" style="fill: #ffffff; stroke: #4c4c4c; stroke-width: 0.8"/>
    </g>
   </g>
   <g id="legend_1">
    <g id="patch_9">
     <path d="M 460.037344 72.36675 
L 626.533688 72.36675 
Q 630.493688 72.36675 630.493688 68.40675 
L 630.493688 11.16 
Q 630.493688 7.2 626.533688 7.2 
L 460.037344 7.2 
Q 456.077344 7.2 456.077344 11.16 
L 456.077344 68.40675 
Q 456.077344 72.36675 460.037344 72.36675 
z
" style="fill: #ffffff; opacity: 0.8; stroke: #cccccc; stroke-width: 0.8; stroke-linejoin: miter"/>
    </g>
    <g id="patch_10">
     <path d="M 463.997344 30.164906 
L 503.597344 30.164906 
L 503.597344 16.304906 
L 463.997344 16.304906 
z
" style="fill: #224fdf; stroke: #4c4c4c; stroke-width: 0.5; stroke-linejoin: miter"/>
    </g>
    <g id="text_14">
     <!-- CHIR_D30 -->
     <g style="fill: #262626" transform="translate(519.437344 30.164906) scale(0.198 -0.198)">
      <defs>
       <path id="DejaVuSans-43" d="M 4122 4306 
L 4122 3641 
Q 3803 3938 3442 4084 
Q 3081 4231 2675 4231 
Q 1875 4231 1450 3742 
Q 1025 3253 1025 2328 
Q 1025 1406 1450 917 
Q 1875 428 2675 428 
Q 3081 428 3442 575 
Q 3803 722 4122 1019 
L 4122 359 
Q 3791 134 3420 21 
Q 3050 -91 2638 -91 
Q 1578 -91 968 557 
Q 359 1206 359 2328 
Q 359 3453 968 4101 
Q 1578 4750 2638 4750 
Q 3056 4750 3426 4639 
Q 3797 4528 4122 4306 
z
" transform="scale(0.015625)"/>
       <path id="DejaVuSans-48" d="M 628 4666 
L 1259 4666 
L 1259 2753 
L 3553 2753 
L 3553 4666 
L 4184 4666 
L 4184 0 
L 3553 0 
L 3553 2222 
L 1259 2222 
L 1259 0 
L 628 0 
L 628 4666 
z
" transform="scale(0.015625)"/>
       <path id="DejaVuSans-49" d="M 628 4666 
L 1259 4666 
L 1259 0 
L 628 0 
L 628 4666 
z
" transform="scale(0.015625)"/>
       <path id="DejaVuSans-52" d="M 2841 2188 
Q 3044 2119 3236 1894 
Q 3428 1669 3622 1275 
L 4263 0 
L 3584 0 
L 2988 1197 
Q 2756 1666 2539 1819 
Q 2322 1972 1947 1972 
L 1259 1972 
L 1259 0 
L 628 0 
L 628 4666 
L 2053 4666 
Q 2853 4666 3247 4331 
Q 3641 3997 3641 3322 
Q 3641 2881 3436 2590 
Q 3231 2300 2841 2188 
z
M 1259 4147 
L 1259 2491 
L 2053 2491 
Q 2509 2491 2742 2702 
Q 2975 2913 2975 3322 
Q 2975 3731 2742 3939 
Q 2509 4147 2053 4147 
L 1259 4147 
z
" transform="scale(0.015625)"/>
       <path id="DejaVuSans-44" d="M 1259 4147 
L 1259 519 
L 2022 519 
Q 2988 519 3436 956 
Q 3884 1394 3884 2338 
Q 3884 3275 3436 3711 
Q 2988 4147 2022 4147 
L 1259 4147 
z
M 628 4666 
L 1925 4666 
Q 3281 4666 3915 4102 
Q 4550 3538 4550 2338 
Q 4550 1131 3912 565 
Q 3275 0 1925 0 
L 628 0 
L 628 4666 
z
" transform="scale(0.015625)"/>
       <path id="DejaVuSans-33" d="M 2597 2516 
Q 3050 2419 3304 2112 
Q 3559 1806 3559 1356 
Q 3559 666 3084 287 
Q 2609 -91 1734 -91 
Q 1441 -91 1130 -33 
Q 819 25 488 141 
L 488 750 
Q 750 597 1062 519 
Q 1375 441 1716 441 
Q 2309 441 2620 675 
Q 2931 909 2931 1356 
Q 2931 1769 2642 2001 
Q 2353 2234 1838 2234 
L 1294 2234 
L 1294 2753 
L 1863 2753 
Q 2328 2753 2575 2939 
Q 2822 3125 2822 3475 
Q 2822 3834 2567 4026 
Q 2313 4219 1838 4219 
Q 1578 4219 1281 4162 
Q 984 4106 628 3988 
L 628 4550 
Q 988 4650 1302 4700 
Q 1616 4750 1894 4750 
Q 2613 4750 3031 4423 
Q 3450 4097 3450 3541 
Q 3450 3153 3228 2886 
Q 3006 2619 2597 2516 
z
" transform="scale(0.015625)"/>
      </defs>
      <use xlink:href="#DejaVuSans-43"/>
      <use xlink:href="#DejaVuSans-48" x="69.824219"/>
      <use xlink:href="#DejaVuSans-49" x="145.019531"/>
      <use xlink:href="#DejaVuSans-52" x="174.511719"/>
      <use xlink:href="#DejaVuSans-5f" x="243.994141"/>
      <use xlink:href="#DejaVuSans-44" x="293.994141"/>
      <use xlink:href="#DejaVuSans-33" x="370.996094"/>
      <use xlink:href="#DejaVuSans-30" x="434.619141"/>
     </g>
    </g>
    <g id="patch_11">
     <path d="M 463.997344 59.778281 
L 503.597344 59.778281 
L 503.597344 45.918281 
L 463.997344 45.918281 
z
" style="fill: #df7d20; stroke: #4c4c4c; stroke-width: 0.5; stroke-linejoin: miter"/>
    </g>
    <g id="text_15">
     <!-- FZD5_D30 -->
     <g style="fill: #262626" transform="translate(519.437344 59.778281) scale(0.198 -0.198)">
      <defs>
       <path id="DejaVuSans-46" d="M 628 4666 
L 3309 4666 
L 3309 4134 
L 1259 4134 
L 1259 2759 
L 3109 2759 
L 3109 2228 
L 1259 2228 
L 1259 0 
L 628 0 
L 628 4666 
z
" transform="scale(0.015625)"/>
       <path id="DejaVuSans-5a" d="M 359 4666 
L 4025 4666 
L 4025 4184 
L 1075 531 
L 4097 531 
L 4097 0 
L 288 0 
L 288 481 
L 3238 4134 
L 359 4134 
L 359 4666 
z
" transform="scale(0.015625)"/>
       <path id="DejaVuSans-35" d="M 691 4666 
L 3169 4666 
L 3169 4134 
L 1269 4134 
L 1269 2991 
Q 1406 3038 1543 3061 
Q 1681 3084 1819 3084 
Q 2600 3084 3056 2656 
Q 3513 2228 3513 1497 
Q 3513 744 3044 326 
Q 2575 -91 1722 -91 
Q 1428 -91 1123 -41 
Q 819 9 494 109 
L 494 744 
Q 775 591 1075 516 
Q 1375 441 1709 441 
Q 2250 441 2565 725 
Q 2881 1009 2881 1497 
Q 2881 1984 2565 2268 
Q 2250 2553 1709 2553 
Q 1456 2553 1204 2497 
Q 953 2441 691 2322 
L 691 4666 
z
" transform="scale(0.015625)"/>
      </defs>
      <use xlink:href="#DejaVuSans-46"/>
      <use xlink:href="#DejaVuSans-5a" x="57.519531"/>
      <use xlink:href="#DejaVuSans-44" x="126.025391"/>
      <use xlink:href="#DejaVuSans-35" x="203.027344"/>
      <use xlink:href="#DejaVuSans-5f" x="266.650391"/>
      <use xlink:href="#DejaVuSans-44" x="316.650391"/>
      <use xlink:href="#DejaVuSans-33" x="393.652344"/>
      <use xlink:href="#DejaVuSans-30" x="457.275391"/>
     </g>
    </g>
   </g>
  </g>
 </g>
 <defs>
  <clipPath id="p4475e20581">
   <rect x="72.493688" y="7.2" width="558" height="332.64"/>
  </clipPath>
 </defs>
</svg>
