<?xml version="1.0" encoding="utf-8" standalone="no"?>
<!DOCTYPE svg PUBLIC "-//W3C//DTD SVG 1.1//EN"
  "http://www.w3.org/Graphics/SVG/1.1/DTD/svg11.dtd">
<svg xmlns:xlink="http://www.w3.org/1999/xlink" width="358.092937pt" height="319.263781pt" viewBox="0 0 358.092937 319.263781" xmlns="http://www.w3.org/2000/svg" version="1.1">
 <metadata>
  <rdf:RDF xmlns:dc="http://purl.org/dc/elements/1.1/" xmlns:cc="http://creativecommons.org/ns#" xmlns:rdf="http://www.w3.org/1999/02/22-rdf-syntax-ns#">
   <cc:Work>
    <dc:type rdf:resource="http://purl.org/dc/dcmitype/StillImage"/>
    <dc:date>2023-06-19T21:15:19.601082</dc:date>
    <dc:format>image/svg+xml</dc:format>
    <dc:creator>
     <cc:Agent>
      <dc:title>Matplotlib v3.7.1, https://matplotlib.org/</dc:title>
     </cc:Agent>
    </dc:creator>
   </cc:Work>
  </rdf:RDF>
 </metadata>
 <defs>
  <style type="text/css">*{stroke-linejoin: round; stroke-linecap: butt}</style>
 </defs>
 <g id="figure_1">
  <g id="patch_1">
   <path d="M 0 319.263781 
L 358.092938 319.263781 
L 358.092938 0 
L 0 0 
L 0 319.263781 
z
" style="fill: none"/>
  </g>
  <g id="axes_1">
   <g id="patch_2">
    <path d="M 71.892938 284.4 
L 350.892938 284.4 
L 350.892938 7.2 
L 71.892938 7.2 
L 71.892938 284.4 
z
" style="fill: none"/>
   </g>
   <g id="matplotlib.axis_1">
    <g id="xtick_1">
     <g id="line2d_1">
      <defs>
       <path id="ma58f2fcd57" d="M 0 0 
L 0 4.8 
" style="stroke: #262626; stroke-width: 2.5"/>
      </defs>
      <g>
       <use xlink:href="#ma58f2fcd57" x="118.392938" y="284.4" style="fill: #262626; stroke: #262626; stroke-width: 2.5"/>
      </g>
     </g>
     <g id="text_1">
      <!-- CHIR_L0 -->
      <g style="fill: #262626" transform="translate(77.470359 307.395312) scale(0.198 -0.198)">
       <defs>
        <path id="DejaVuSans-43" d="M 4122 4306 
L 4122 3641 
Q 3803 3938 3442 4084 
Q 3081 4231 2675 4231 
Q 1875 4231 1450 3742 
Q 1025 3253 1025 2328 
Q 1025 1406 1450 917 
Q 1875 428 2675 428 
Q 3081 428 3442 575 
Q 3803 722 4122 1019 
L 4122 359 
Q 3791 134 3420 21 
Q 3050 -91 2638 -91 
Q 1578 -91 968 557 
Q 359 1206 359 2328 
Q 359 3453 968 4101 
Q 1578 4750 2638 4750 
Q 3056 4750 3426 4639 
Q 3797 4528 4122 4306 
z
" transform="scale(0.015625)"/>
        <path id="DejaVuSans-48" d="M 628 4666 
L 1259 4666 
L 1259 2753 
L 3553 2753 
L 3553 4666 
L 4184 4666 
L 4184 0 
L 3553 0 
L 3553 2222 
L 1259 2222 
L 1259 0 
L 628 0 
L 628 4666 
z
" transform="scale(0.015625)"/>
        <path id="DejaVuSans-49" d="M 628 4666 
L 1259 4666 
L 1259 0 
L 628 0 
L 628 4666 
z
" transform="scale(0.015625)"/>
        <path id="DejaVuSans-52" d="M 2841 2188 
Q 3044 2119 3236 1894 
Q 3428 1669 3622 1275 
L 4263 0 
L 3584 0 
L 2988 1197 
Q 2756 1666 2539 1819 
Q 2322 1972 1947 1972 
L 1259 1972 
L 1259 0 
L 628 0 
L 628 4666 
L 2053 4666 
Q 2853 4666 3247 4331 
Q 3641 3997 3641 3322 
Q 3641 2881 3436 2590 
Q 3231 2300 2841 2188 
z
M 1259 4147 
L 1259 2491 
L 2053 2491 
Q 2509 2491 2742 2702 
Q 2975 2913 2975 3322 
Q 2975 3731 2742 3939 
Q 2509 4147 2053 4147 
L 1259 4147 
z
" transform="scale(0.015625)"/>
        <path id="DejaVuSans-5f" d="M 3263 -1063 
L 3263 -1509 
L -63 -1509 
L -63 -1063 
L 3263 -1063 
z
" transform="scale(0.015625)"/>
        <path id="DejaVuSans-4c" d="M 628 4666 
L 1259 4666 
L 1259 531 
L 3531 531 
L 3531 0 
L 628 0 
L 628 4666 
z
" transform="scale(0.015625)"/>
        <path id="DejaVuSans-30" d="M 2034 4250 
Q 1547 4250 1301 3770 
Q 1056 3291 1056 2328 
Q 1056 1369 1301 889 
Q 1547 409 2034 409 
Q 2525 409 2770 889 
Q 3016 1369 3016 2328 
Q 3016 3291 2770 3770 
Q 2525 4250 2034 4250 
z
M 2034 4750 
Q 2819 4750 3233 4129 
Q 3647 3509 3647 2328 
Q 3647 1150 3233 529 
Q 2819 -91 2034 -91 
Q 1250 -91 836 529 
Q 422 1150 422 2328 
Q 422 3509 836 4129 
Q 1250 4750 2034 4750 
z
" transform="scale(0.015625)"/>
       </defs>
       <use xlink:href="#DejaVuSans-43"/>
       <use xlink:href="#DejaVuSans-48" x="69.824219"/>
       <use xlink:href="#DejaVuSans-49" x="145.019531"/>
       <use xlink:href="#DejaVuSans-52" x="174.511719"/>
       <use xlink:href="#DejaVuSans-5f" x="243.994141"/>
       <use xlink:href="#DejaVuSans-4c" x="293.994141"/>
       <use xlink:href="#DejaVuSans-30" x="349.707031"/>
      </g>
     </g>
    </g>
    <g id="xtick_2">
     <g id="line2d_2">
      <g>
       <use xlink:href="#ma58f2fcd57" x="211.392938" y="284.4" style="fill: #262626; stroke: #262626; stroke-width: 2.5"/>
      </g>
     </g>
     <g id="text_2">
      <!-- F5_L0 -->
      <g style="fill: #262626" transform="translate(182.634984 307.395312) scale(0.198 -0.198)">
       <defs>
        <path id="DejaVuSans-46" d="M 628 4666 
L 3309 4666 
L 3309 4134 
L 1259 4134 
L 1259 2759 
L 3109 2759 
L 3109 2228 
L 1259 2228 
L 1259 0 
L 628 0 
L 628 4666 
z
" transform="scale(0.015625)"/>
        <path id="DejaVuSans-35" d="M 691 4666 
L 3169 4666 
L 3169 4134 
L 1269 4134 
L 1269 2991 
Q 1406 3038 1543 3061 
Q 1681 3084 1819 3084 
Q 2600 3084 3056 2656 
Q 3513 2228 3513 1497 
Q 3513 744 3044 326 
Q 2575 -91 1722 -91 
Q 1428 -91 1123 -41 
Q 819 9 494 109 
L 494 744 
Q 775 591 1075 516 
Q 1375 441 1709 441 
Q 2250 441 2565 725 
Q 2881 1009 2881 1497 
Q 2881 1984 2565 2268 
Q 2250 2553 1709 2553 
Q 1456 2553 1204 2497 
Q 953 2441 691 2322 
L 691 4666 
z
" transform="scale(0.015625)"/>
       </defs>
       <use xlink:href="#DejaVuSans-46"/>
       <use xlink:href="#DejaVuSans-35" x="57.519531"/>
       <use xlink:href="#DejaVuSans-5f" x="121.142578"/>
       <use xlink:href="#DejaVuSans-4c" x="171.142578"/>
       <use xlink:href="#DejaVuSans-30" x="226.855469"/>
      </g>
     </g>
    </g>
    <g id="xtick_3">
     <g id="line2d_3">
      <g>
       <use xlink:href="#ma58f2fcd57" x="304.392938" y="284.4" style="fill: #262626; stroke: #262626; stroke-width: 2.5"/>
      </g>
     </g>
     <g id="text_3">
      <!-- F5_L1 -->
      <g style="fill: #262626" transform="translate(275.634984 307.194219) scale(0.198 -0.198)">
       <defs>
        <path id="DejaVuSans-31" d="M 794 531 
L 1825 531 
L 1825 4091 
L 703 3866 
L 703 4441 
L 1819 4666 
L 2450 4666 
L 2450 531 
L 3481 531 
L 3481 0 
L 794 0 
L 794 531 
z
" transform="scale(0.015625)"/>
       </defs>
       <use xlink:href="#DejaVuSans-46"/>
       <use xlink:href="#DejaVuSans-35" x="57.519531"/>
       <use xlink:href="#DejaVuSans-5f" x="121.142578"/>
       <use xlink:href="#DejaVuSans-4c" x="171.142578"/>
       <use xlink:href="#DejaVuSans-31" x="226.855469"/>
      </g>
     </g>
    </g>
   </g>
   <g id="matplotlib.axis_2">
    <g id="ytick_1">
     <g id="line2d_4">
      <defs>
       <path id="m7112e0f688" d="M 0 0 
L -4.8 0 
" style="stroke: #262626; stroke-width: 2.5"/>
      </defs>
      <g>
       <use xlink:href="#m7112e0f688" x="71.892938" y="273.291007" style="fill: #262626; stroke: #262626; stroke-width: 2.5"/>
      </g>
     </g>
     <g id="text_4">
      <!-- 0.0 -->
      <g style="fill: #262626" transform="translate(32.10475 280.81346) scale(0.198 -0.198)">
       <defs>
        <path id="DejaVuSans-2e" d="M 684 794 
L 1344 794 
L 1344 0 
L 684 0 
L 684 794 
z
" transform="scale(0.015625)"/>
       </defs>
       <use xlink:href="#DejaVuSans-30"/>
       <use xlink:href="#DejaVuSans-2e" x="63.623047"/>
       <use xlink:href="#DejaVuSans-30" x="95.410156"/>
      </g>
     </g>
    </g>
    <g id="ytick_2">
     <g id="line2d_5">
      <g>
       <use xlink:href="#m7112e0f688" x="71.892938" y="219.457285" style="fill: #262626; stroke: #262626; stroke-width: 2.5"/>
      </g>
     </g>
     <g id="text_5">
      <!-- 0.2 -->
      <g style="fill: #262626" transform="translate(32.10475 226.979738) scale(0.198 -0.198)">
       <defs>
        <path id="DejaVuSans-32" d="M 1228 531 
L 3431 531 
L 3431 0 
L 469 0 
L 469 531 
Q 828 903 1448 1529 
Q 2069 2156 2228 2338 
Q 2531 2678 2651 2914 
Q 2772 3150 2772 3378 
Q 2772 3750 2511 3984 
Q 2250 4219 1831 4219 
Q 1534 4219 1204 4116 
Q 875 4013 500 3803 
L 500 4441 
Q 881 4594 1212 4672 
Q 1544 4750 1819 4750 
Q 2544 4750 2975 4387 
Q 3406 4025 3406 3419 
Q 3406 3131 3298 2873 
Q 3191 2616 2906 2266 
Q 2828 2175 2409 1742 
Q 1991 1309 1228 531 
z
" transform="scale(0.015625)"/>
       </defs>
       <use xlink:href="#DejaVuSans-30"/>
       <use xlink:href="#DejaVuSans-2e" x="63.623047"/>
       <use xlink:href="#DejaVuSans-32" x="95.410156"/>
      </g>
     </g>
    </g>
    <g id="ytick_3">
     <g id="line2d_6">
      <g>
       <use xlink:href="#m7112e0f688" x="71.892938" y="165.623564" style="fill: #262626; stroke: #262626; stroke-width: 2.5"/>
      </g>
     </g>
     <g id="text_6">
      <!-- 0.4 -->
      <g style="fill: #262626" transform="translate(32.10475 173.146017) scale(0.198 -0.198)">
       <defs>
        <path id="DejaVuSans-34" d="M 2419 4116 
L 825 1625 
L 2419 1625 
L 2419 4116 
z
M 2253 4666 
L 3047 4666 
L 3047 1625 
L 3713 1625 
L 3713 1100 
L 3047 1100 
L 3047 0 
L 2419 0 
L 2419 1100 
L 313 1100 
L 313 1709 
L 2253 4666 
z
" transform="scale(0.015625)"/>
       </defs>
       <use xlink:href="#DejaVuSans-30"/>
       <use xlink:href="#DejaVuSans-2e" x="63.623047"/>
       <use xlink:href="#DejaVuSans-34" x="95.410156"/>
      </g>
     </g>
    </g>
    <g id="ytick_4">
     <g id="line2d_7">
      <g>
       <use xlink:href="#m7112e0f688" x="71.892938" y="111.789842" style="fill: #262626; stroke: #262626; stroke-width: 2.5"/>
      </g>
     </g>
     <g id="text_7">
      <!-- 0.6 -->
      <g style="fill: #262626" transform="translate(32.10475 119.312295) scale(0.198 -0.198)">
       <defs>
        <path id="DejaVuSans-36" d="M 2113 2584 
Q 1688 2584 1439 2293 
Q 1191 2003 1191 1497 
Q 1191 994 1439 701 
Q 1688 409 2113 409 
Q 2538 409 2786 701 
Q 3034 994 3034 1497 
Q 3034 2003 2786 2293 
Q 2538 2584 2113 2584 
z
M 3366 4563 
L 3366 3988 
Q 3128 4100 2886 4159 
Q 2644 4219 2406 4219 
Q 1781 4219 1451 3797 
Q 1122 3375 1075 2522 
Q 1259 2794 1537 2939 
Q 1816 3084 2150 3084 
Q 2853 3084 3261 2657 
Q 3669 2231 3669 1497 
Q 3669 778 3244 343 
Q 2819 -91 2113 -91 
Q 1303 -91 875 529 
Q 447 1150 447 2328 
Q 447 3434 972 4092 
Q 1497 4750 2381 4750 
Q 2619 4750 2861 4703 
Q 3103 4656 3366 4563 
z
" transform="scale(0.015625)"/>
       </defs>
       <use xlink:href="#DejaVuSans-30"/>
       <use xlink:href="#DejaVuSans-2e" x="63.623047"/>
       <use xlink:href="#DejaVuSans-36" x="95.410156"/>
      </g>
     </g>
    </g>
    <g id="ytick_5">
     <g id="line2d_8">
      <g>
       <use xlink:href="#m7112e0f688" x="71.892938" y="57.956121" style="fill: #262626; stroke: #262626; stroke-width: 2.5"/>
      </g>
     </g>
     <g id="text_8">
      <!-- 0.8 -->
      <g style="fill: #262626" transform="translate(32.10475 65.478574) scale(0.198 -0.198)">
       <defs>
        <path id="DejaVuSans-38" d="M 2034 2216 
Q 1584 2216 1326 1975 
Q 1069 1734 1069 1313 
Q 1069 891 1326 650 
Q 1584 409 2034 409 
Q 2484 409 2743 651 
Q 3003 894 3003 1313 
Q 3003 1734 2745 1975 
Q 2488 2216 2034 2216 
z
M 1403 2484 
Q 997 2584 770 2862 
Q 544 3141 544 3541 
Q 544 4100 942 4425 
Q 1341 4750 2034 4750 
Q 2731 4750 3128 4425 
Q 3525 4100 3525 3541 
Q 3525 3141 3298 2862 
Q 3072 2584 2669 2484 
Q 3125 2378 3379 2068 
Q 3634 1759 3634 1313 
Q 3634 634 3220 271 
Q 2806 -91 2034 -91 
Q 1263 -91 848 271 
Q 434 634 434 1313 
Q 434 1759 690 2068 
Q 947 2378 1403 2484 
z
M 1172 3481 
Q 1172 3119 1398 2916 
Q 1625 2713 2034 2713 
Q 2441 2713 2670 2916 
Q 2900 3119 2900 3481 
Q 2900 3844 2670 4047 
Q 2441 4250 2034 4250 
Q 1625 4250 1398 4047 
Q 1172 3844 1172 3481 
z
" transform="scale(0.015625)"/>
       </defs>
       <use xlink:href="#DejaVuSans-30"/>
       <use xlink:href="#DejaVuSans-2e" x="63.623047"/>
       <use xlink:href="#DejaVuSans-38" x="95.410156"/>
      </g>
     </g>
    </g>
    <g id="text_9">
     <!-- HiDDEN continuous score -->
     <g style="fill: #262626" transform="translate(23.612625 283.731187) rotate(-90) scale(0.216 -0.216)">
      <defs>
       <path id="DejaVuSans-69" d="M 603 3500 
L 1178 3500 
L 1178 0 
L 603 0 
L 603 3500 
z
M 603 4863 
L 1178 4863 
L 1178 4134 
L 603 4134 
L 603 4863 
z
" transform="scale(0.015625)"/>
       <path id="DejaVuSans-44" d="M 1259 4147 
L 1259 519 
L 2022 519 
Q 2988 519 3436 956 
Q 3884 1394 3884 2338 
Q 3884 3275 3436 3711 
Q 2988 4147 2022 4147 
L 1259 4147 
z
M 628 4666 
L 1925 4666 
Q 3281 4666 3915 4102 
Q 4550 3538 4550 2338 
Q 4550 1131 3912 565 
Q 3275 0 1925 0 
L 628 0 
L 628 4666 
z
" transform="scale(0.015625)"/>
       <path id="DejaVuSans-45" d="M 628 4666 
L 3578 4666 
L 3578 4134 
L 1259 4134 
L 1259 2753 
L 3481 2753 
L 3481 2222 
L 1259 2222 
L 1259 531 
L 3634 531 
L 3634 0 
L 628 0 
L 628 4666 
z
" transform="scale(0.015625)"/>
       <path id="DejaVuSans-4e" d="M 628 4666 
L 1478 4666 
L 3547 763 
L 3547 4666 
L 4159 4666 
L 4159 0 
L 3309 0 
L 1241 3903 
L 1241 0 
L 628 0 
L 628 4666 
z
" transform="scale(0.015625)"/>
       <path id="DejaVuSans-20" transform="scale(0.015625)"/>
       <path id="DejaVuSans-63" d="M 3122 3366 
L 3122 2828 
Q 2878 2963 2633 3030 
Q 2388 3097 2138 3097 
Q 1578 3097 1268 2742 
Q 959 2388 959 1747 
Q 959 1106 1268 751 
Q 1578 397 2138 397 
Q 2388 397 2633 464 
Q 2878 531 3122 666 
L 3122 134 
Q 2881 22 2623 -34 
Q 2366 -91 2075 -91 
Q 1284 -91 818 406 
Q 353 903 353 1747 
Q 353 2603 823 3093 
Q 1294 3584 2113 3584 
Q 2378 3584 2631 3529 
Q 2884 3475 3122 3366 
z
" transform="scale(0.015625)"/>
       <path id="DejaVuSans-6f" d="M 1959 3097 
Q 1497 3097 1228 2736 
Q 959 2375 959 1747 
Q 959 1119 1226 758 
Q 1494 397 1959 397 
Q 2419 397 2687 759 
Q 2956 1122 2956 1747 
Q 2956 2369 2687 2733 
Q 2419 3097 1959 3097 
z
M 1959 3584 
Q 2709 3584 3137 3096 
Q 3566 2609 3566 1747 
Q 3566 888 3137 398 
Q 2709 -91 1959 -91 
Q 1206 -91 779 398 
Q 353 888 353 1747 
Q 353 2609 779 3096 
Q 1206 3584 1959 3584 
z
" transform="scale(0.015625)"/>
       <path id="DejaVuSans-6e" d="M 3513 2113 
L 3513 0 
L 2938 0 
L 2938 2094 
Q 2938 2591 2744 2837 
Q 2550 3084 2163 3084 
Q 1697 3084 1428 2787 
Q 1159 2491 1159 1978 
L 1159 0 
L 581 0 
L 581 3500 
L 1159 3500 
L 1159 2956 
Q 1366 3272 1645 3428 
Q 1925 3584 2291 3584 
Q 2894 3584 3203 3211 
Q 3513 2838 3513 2113 
z
" transform="scale(0.015625)"/>
       <path id="DejaVuSans-74" d="M 1172 4494 
L 1172 3500 
L 2356 3500 
L 2356 3053 
L 1172 3053 
L 1172 1153 
Q 1172 725 1289 603 
Q 1406 481 1766 481 
L 2356 481 
L 2356 0 
L 1766 0 
Q 1100 0 847 248 
Q 594 497 594 1153 
L 594 3053 
L 172 3053 
L 172 3500 
L 594 3500 
L 594 4494 
L 1172 4494 
z
" transform="scale(0.015625)"/>
       <path id="DejaVuSans-75" d="M 544 1381 
L 544 3500 
L 1119 3500 
L 1119 1403 
Q 1119 906 1312 657 
Q 1506 409 1894 409 
Q 2359 409 2629 706 
Q 2900 1003 2900 1516 
L 2900 3500 
L 3475 3500 
L 3475 0 
L 2900 0 
L 2900 538 
Q 2691 219 2414 64 
Q 2138 -91 1772 -91 
Q 1169 -91 856 284 
Q 544 659 544 1381 
z
M 1991 3584 
L 1991 3584 
z
" transform="scale(0.015625)"/>
       <path id="DejaVuSans-73" d="M 2834 3397 
L 2834 2853 
Q 2591 2978 2328 3040 
Q 2066 3103 1784 3103 
Q 1356 3103 1142 2972 
Q 928 2841 928 2578 
Q 928 2378 1081 2264 
Q 1234 2150 1697 2047 
L 1894 2003 
Q 2506 1872 2764 1633 
Q 3022 1394 3022 966 
Q 3022 478 2636 193 
Q 2250 -91 1575 -91 
Q 1294 -91 989 -36 
Q 684 19 347 128 
L 347 722 
Q 666 556 975 473 
Q 1284 391 1588 391 
Q 1994 391 2212 530 
Q 2431 669 2431 922 
Q 2431 1156 2273 1281 
Q 2116 1406 1581 1522 
L 1381 1569 
Q 847 1681 609 1914 
Q 372 2147 372 2553 
Q 372 3047 722 3315 
Q 1072 3584 1716 3584 
Q 2034 3584 2315 3537 
Q 2597 3491 2834 3397 
z
" transform="scale(0.015625)"/>
       <path id="DejaVuSans-72" d="M 2631 2963 
Q 2534 3019 2420 3045 
Q 2306 3072 2169 3072 
Q 1681 3072 1420 2755 
Q 1159 2438 1159 1844 
L 1159 0 
L 581 0 
L 581 3500 
L 1159 3500 
L 1159 2956 
Q 1341 3275 1631 3429 
Q 1922 3584 2338 3584 
Q 2397 3584 2469 3576 
Q 2541 3569 2628 3553 
L 2631 2963 
z
" transform="scale(0.015625)"/>
       <path id="DejaVuSans-65" d="M 3597 1894 
L 3597 1613 
L 953 1613 
Q 991 1019 1311 708 
Q 1631 397 2203 397 
Q 2534 397 2845 478 
Q 3156 559 3463 722 
L 3463 178 
Q 3153 47 2828 -22 
Q 2503 -91 2169 -91 
Q 1331 -91 842 396 
Q 353 884 353 1716 
Q 353 2575 817 3079 
Q 1281 3584 2069 3584 
Q 2775 3584 3186 3129 
Q 3597 2675 3597 1894 
z
M 3022 2063 
Q 3016 2534 2758 2815 
Q 2500 3097 2075 3097 
Q 1594 3097 1305 2825 
Q 1016 2553 972 2059 
L 3022 2063 
z
" transform="scale(0.015625)"/>
      </defs>
      <use xlink:href="#DejaVuSans-48"/>
      <use xlink:href="#DejaVuSans-69" x="75.195312"/>
      <use xlink:href="#DejaVuSans-44" x="102.978516"/>
      <use xlink:href="#DejaVuSans-44" x="179.980469"/>
      <use xlink:href="#DejaVuSans-45" x="256.982422"/>
      <use xlink:href="#DejaVuSans-4e" x="320.166016"/>
      <use xlink:href="#DejaVuSans-20" x="394.970703"/>
      <use xlink:href="#DejaVuSans-63" x="426.757812"/>
      <use xlink:href="#DejaVuSans-6f" x="481.738281"/>
      <use xlink:href="#DejaVuSans-6e" x="542.919922"/>
      <use xlink:href="#DejaVuSans-74" x="606.298828"/>
      <use xlink:href="#DejaVuSans-69" x="645.507812"/>
      <use xlink:href="#DejaVuSans-6e" x="673.291016"/>
      <use xlink:href="#DejaVuSans-75" x="736.669922"/>
      <use xlink:href="#DejaVuSans-6f" x="800.048828"/>
      <use xlink:href="#DejaVuSans-75" x="861.230469"/>
      <use xlink:href="#DejaVuSans-73" x="924.609375"/>
      <use xlink:href="#DejaVuSans-20" x="976.708984"/>
      <use xlink:href="#DejaVuSans-73" x="1008.496094"/>
      <use xlink:href="#DejaVuSans-63" x="1060.595703"/>
      <use xlink:href="#DejaVuSans-6f" x="1115.576172"/>
      <use xlink:href="#DejaVuSans-72" x="1176.757812"/>
      <use xlink:href="#DejaVuSans-65" x="1215.621094"/>
     </g>
    </g>
   </g>
   <g id="PolyCollection_1">
    <defs>
     <path id="md63892b6b7" d="M 118.99997 -47.463781 
L 117.785905 -47.463781 
L 117.544347 -49.865264 
L 117.215589 -52.266746 
L 116.768789 -54.668228 
L 116.167118 -57.069711 
L 115.371112 -59.471193 
L 114.3441 -61.872675 
L 113.058924 -64.274158 
L 111.504477 -66.67564 
L 109.690259 -69.077123 
L 107.647441 -71.478605 
L 105.425927 -73.880087 
L 103.088173 -76.28157 
L 100.701643 -78.683052 
L 98.332081 -81.084534 
L 96.039181 -83.486017 
L 93.874916 -85.887499 
L 91.883348 -88.288981 
L 90.09995 -90.690464 
L 88.548826 -93.091946 
L 87.23775 -95.493429 
L 86.153108 -97.894911 
L 85.258353 -100.296393 
L 84.499362 -102.697876 
L 83.817726 -105.099358 
L 83.169163 -107.50084 
L 82.540803 -109.902323 
L 81.960004 -112.303805 
L 81.489638 -114.705287 
L 81.209968 -117.10677 
L 81.192938 -119.508252 
L 81.478168 -121.909735 
L 82.059403 -124.311217 
L 82.885838 -126.712699 
L 83.876875 -129.114182 
L 84.944111 -131.515664 
L 86.012603 -133.917146 
L 87.034903 -136.318629 
L 87.994973 -138.720111 
L 88.903031 -141.121593 
L 89.785076 -143.523076 
L 90.671406 -145.924558 
L 91.587139 -148.326041 
L 92.5458 -150.727523 
L 93.545792 -153.129005 
L 94.569555 -155.530488 
L 95.585847 -157.93197 
L 96.555776 -160.333452 
L 97.442205 -162.734935 
L 98.220415 -165.136417 
L 98.886576 -167.537899 
L 99.460624 -169.939382 
L 99.981932 -172.340864 
L 100.49889 -174.742347 
L 101.055897 -177.143829 
L 101.68225 -179.545311 
L 102.386427 -181.946794 
L 103.156872 -184.348276 
L 103.967775 -186.749758 
L 104.786777 -189.151241 
L 105.581732 -191.552723 
L 106.325207 -193.954205 
L 106.997073 -196.355688 
L 107.586275 -198.75717 
L 108.092264 -201.158653 
L 108.525497 -203.560135 
L 108.905841 -205.961617 
L 109.258425 -208.3631 
L 109.607886 -210.764582 
L 109.97308 -213.166064 
L 110.364255 -215.567547 
L 110.783244 -217.969029 
L 111.225615 -220.370511 
L 111.682835 -222.771994 
L 112.143164 -225.173476 
L 112.591562 -227.574959 
L 113.01015 -229.976441 
L 113.380744 -232.377923 
L 113.689561 -234.779406 
L 113.932478 -237.180888 
L 114.118315 -239.58237 
L 114.268208 -241.983853 
L 114.41084 -244.385335 
L 114.57506 -246.786817 
L 114.782442 -249.1883 
L 115.042228 -251.589782 
L 115.350068 -253.991265 
L 115.690586 -256.392747 
L 116.042524 -258.794229 
L 116.384557 -261.195712 
L 116.69994 -263.597194 
L 116.978881 -265.998676 
L 117.218513 -268.400159 
L 117.421162 -270.801641 
L 117.59194 -273.203123 
L 117.73658 -275.604606 
L 117.860041 -278.006088 
L 117.96595 -280.407571 
L 118.056675 -282.809053 
L 118.133708 -285.210535 
L 118.652167 -285.210535 
L 118.652167 -285.210535 
L 118.7292 -282.809053 
L 118.819925 -280.407571 
L 118.925834 -278.006088 
L 119.049295 -275.604606 
L 119.193935 -273.203123 
L 119.364713 -270.801641 
L 119.567362 -268.400159 
L 119.806994 -265.998676 
L 120.085935 -263.597194 
L 120.401318 -261.195712 
L 120.743351 -258.794229 
L 121.095289 -256.392747 
L 121.435807 -253.991265 
L 121.743647 -251.589782 
L 122.003433 -249.1883 
L 122.210815 -246.786817 
L 122.375035 -244.385335 
L 122.517667 -241.983853 
L 122.66756 -239.58237 
L 122.853397 -237.180888 
L 123.096314 -234.779406 
L 123.405131 -232.377923 
L 123.775725 -229.976441 
L 124.194313 -227.574959 
L 124.642711 -225.173476 
L 125.10304 -222.771994 
L 125.56026 -220.370511 
L 126.002631 -217.969029 
L 126.42162 -215.567547 
L 126.812795 -213.166064 
L 127.177989 -210.764582 
L 127.52745 -208.3631 
L 127.880034 -205.961617 
L 128.260378 -203.560135 
L 128.693611 -201.158653 
L 129.1996 -198.75717 
L 129.788802 -196.355688 
L 130.460668 -193.954205 
L 131.204143 -191.552723 
L 131.999098 -189.151241 
L 132.8181 -186.749758 
L 133.629003 -184.348276 
L 134.399448 -181.946794 
L 135.103625 -179.545311 
L 135.729978 -177.143829 
L 136.286985 -174.742347 
L 136.803943 -172.340864 
L 137.325251 -169.939382 
L 137.899299 -167.537899 
L 138.56546 -165.136417 
L 139.34367 -162.734935 
L 140.230099 -160.333452 
L 141.200028 -157.93197 
L 142.21632 -155.530488 
L 143.240083 -153.129005 
L 144.240075 -150.727523 
L 145.198736 -148.326041 
L 146.114469 -145.924558 
L 147.000799 -143.523076 
L 147.882844 -141.121593 
L 148.790902 -138.720111 
L 149.750972 -136.318629 
L 150.773272 -133.917146 
L 151.841764 -131.515664 
L 152.909 -129.114182 
L 153.900037 -126.712699 
L 154.726472 -124.311217 
L 155.307707 -121.909735 
L 155.592938 -119.508252 
L 155.575907 -117.10677 
L 155.296237 -114.705287 
L 154.825871 -112.303805 
L 154.245072 -109.902323 
L 153.616712 -107.50084 
L 152.968149 -105.099358 
L 152.286513 -102.697876 
L 151.527522 -100.296393 
L 150.632767 -97.894911 
L 149.548125 -95.493429 
L 148.237049 -93.091946 
L 146.685925 -90.690464 
L 144.902527 -88.288981 
L 142.910959 -85.887499 
L 140.746694 -83.486017 
L 138.453794 -81.084534 
L 136.084232 -78.683052 
L 133.697702 -76.28157 
L 131.359948 -73.880087 
L 129.138434 -71.478605 
L 127.095616 -69.077123 
L 125.281398 -66.67564 
L 123.726951 -64.274158 
L 122.441775 -61.872675 
L 121.414763 -59.471193 
L 120.618757 -57.069711 
L 120.017086 -54.668228 
L 119.570286 -52.266746 
L 119.241528 -49.865264 
L 118.99997 -47.463781 
z
" style="stroke: #4c4c4c"/>
    </defs>
    <g clip-path="url(#p459bdc8f01)">
     <use xlink:href="#md63892b6b7" x="0" y="319.263781" style="fill: #b4d4df; stroke: #4c4c4c"/>
    </g>
   </g>
   <g id="PolyCollection_2">
    <defs>
     <path id="m7a3c19fbc1" d="M 212.526618 -66.769641 
L 210.259257 -66.769641 
L 210.073636 -67.886375 
L 209.863365 -69.003108 
L 209.624217 -70.119842 
L 209.351863 -71.236576 
L 209.042262 -72.35331 
L 208.692025 -73.470043 
L 208.29865 -74.586777 
L 207.860588 -75.703511 
L 207.377116 -76.820245 
L 206.848065 -77.936978 
L 206.273453 -79.053712 
L 205.653162 -80.170446 
L 204.986738 -81.28718 
L 204.273412 -82.403913 
L 203.512366 -83.520647 
L 202.7032 -84.637381 
L 201.84652 -85.754115 
L 200.944502 -86.870848 
L 200.001293 -87.987582 
L 199.023157 -89.104316 
L 198.018329 -90.22105 
L 196.996607 -91.337783 
L 195.968797 -92.454517 
L 194.946142 -93.571251 
L 193.939843 -94.687985 
L 192.960744 -95.804718 
L 192.019174 -96.921452 
L 191.124859 -98.038186 
L 190.286793 -99.15492 
L 189.512959 -100.271653 
L 188.809853 -101.388387 
L 188.18181 -102.505121 
L 187.630262 -103.621855 
L 187.153058 -104.738588 
L 186.744042 -105.855322 
L 186.392992 -106.972056 
L 186.086006 -108.08879 
L 185.806293 -109.205523 
L 185.535278 -110.322257 
L 185.253861 -111.438991 
L 184.943683 -112.555725 
L 184.588276 -113.672458 
L 184.174004 -114.789192 
L 183.690809 -115.905926 
L 183.132753 -117.02266 
L 182.498416 -118.139393 
L 181.791181 -119.256127 
L 181.019393 -120.372861 
L 180.196361 -121.489595 
L 179.340131 -122.606328 
L 178.472955 -123.723062 
L 177.620386 -124.839796 
L 176.80999 -125.95653 
L 176.06972 -127.073263 
L 175.426054 -128.189997 
L 174.90207 -129.306731 
L 174.515654 -130.423465 
L 174.278055 -131.540198 
L 174.192938 -132.656932 
L 174.256078 -133.773666 
L 174.455724 -134.8904 
L 174.773583 -136.007133 
L 175.186312 -137.123867 
L 175.667333 -138.240601 
L 176.188739 -139.357335 
L 176.723077 -140.474068 
L 177.244803 -141.590802 
L 177.731281 -142.707536 
L 178.163263 -143.82427 
L 178.524889 -144.941003 
L 178.803364 -146.057737 
L 178.988489 -147.174471 
L 179.072301 -148.291205 
L 179.049022 -149.407938 
L 178.915453 -150.524672 
L 178.671802 -151.641406 
L 178.322829 -152.75814 
L 177.87904 -153.874873 
L 177.357625 -154.991607 
L 176.782854 -156.108341 
L 176.185713 -157.225075 
L 175.602764 -158.341808 
L 175.074322 -159.458542 
L 174.642221 -160.575276 
L 174.347486 -161.69201 
L 174.228197 -162.808743 
L 174.317772 -163.925477 
L 174.643734 -165.042211 
L 175.226894 -166.158945 
L 176.080812 -167.275678 
L 177.211328 -168.392412 
L 178.616039 -169.509146 
L 180.28369 -170.62588 
L 182.193567 -171.742613 
L 184.315115 -172.859347 
L 186.608076 -173.976081 
L 189.023406 -175.092815 
L 191.505146 -176.209548 
L 193.993254 -177.326282 
L 228.792621 -177.326282 
L 228.792621 -177.326282 
L 231.280729 -176.209548 
L 233.762469 -175.092815 
L 236.177799 -173.976081 
L 238.47076 -172.859347 
L 240.592308 -171.742613 
L 242.502185 -170.62588 
L 244.169836 -169.509146 
L 245.574547 -168.392412 
L 246.705063 -167.275678 
L 247.558981 -166.158945 
L 248.142141 -165.042211 
L 248.468103 -163.925477 
L 248.557678 -162.808743 
L 248.438389 -161.69201 
L 248.143654 -160.575276 
L 247.711553 -159.458542 
L 247.183111 -158.341808 
L 246.600162 -157.225075 
L 246.003021 -156.108341 
L 245.42825 -154.991607 
L 244.906835 -153.874873 
L 244.463046 -152.75814 
L 244.114073 -151.641406 
L 243.870422 -150.524672 
L 243.736853 -149.407938 
L 243.713574 -148.291205 
L 243.797386 -147.174471 
L 243.982511 -146.057737 
L 244.260986 -144.941003 
L 244.622612 -143.82427 
L 245.054594 -142.707536 
L 245.541072 -141.590802 
L 246.062798 -140.474068 
L 246.597136 -139.357335 
L 247.118542 -138.240601 
L 247.599563 -137.123867 
L 248.012292 -136.007133 
L 248.330151 -134.8904 
L 248.529797 -133.773666 
L 248.592938 -132.656932 
L 248.50782 -131.540198 
L 248.270221 -130.423465 
L 247.883805 -129.306731 
L 247.359821 -128.189997 
L 246.716155 -127.073263 
L 245.975885 -125.95653 
L 245.165489 -124.839796 
L 244.31292 -123.723062 
L 243.445744 -122.606328 
L 242.589514 -121.489595 
L 241.766482 -120.372861 
L 240.994694 -119.256127 
L 240.287459 -118.139393 
L 239.653122 -117.02266 
L 239.095066 -115.905926 
L 238.611871 -114.789192 
L 238.197599 -113.672458 
L 237.842192 -112.555725 
L 237.532014 -111.438991 
L 237.250597 -110.322257 
L 236.979582 -109.205523 
L 236.699869 -108.08879 
L 236.392883 -106.972056 
L 236.041833 -105.855322 
L 235.632817 -104.738588 
L 235.155613 -103.621855 
L 234.604065 -102.505121 
L 233.976022 -101.388387 
L 233.272916 -100.271653 
L 232.499082 -99.15492 
L 231.661016 -98.038186 
L 230.766701 -96.921452 
L 229.825131 -95.804718 
L 228.846032 -94.687985 
L 227.839733 -93.571251 
L 226.817078 -92.454517 
L 225.789268 -91.337783 
L 224.767546 -90.22105 
L 223.762718 -89.104316 
L 222.784582 -87.987582 
L 221.841373 -86.870848 
L 220.939355 -85.754115 
L 220.082675 -84.637381 
L 219.273509 -83.520647 
L 218.512463 -82.403913 
L 217.799137 -81.28718 
L 217.132713 -80.170446 
L 216.512422 -79.053712 
L 215.93781 -77.936978 
L 215.408759 -76.820245 
L 214.925287 -75.703511 
L 214.487225 -74.586777 
L 214.09385 -73.470043 
L 213.743613 -72.35331 
L 213.434012 -71.236576 
L 213.161658 -70.119842 
L 212.92251 -69.003108 
L 212.712239 -67.886375 
L 212.526618 -66.769641 
z
" style="stroke: #4c4c4c"/>
    </defs>
    <g clip-path="url(#p459bdc8f01)">
     <use xlink:href="#m7a3c19fbc1" x="0" y="319.263781" style="fill: #b4d4df; stroke: #4c4c4c"/>
    </g>
   </g>
   <g id="PolyCollection_3">
    <defs>
     <path id="m8ef4356885" d="M 326.553452 -177.406987 
L 282.232423 -177.406987 
L 279.601989 -178.639884 
L 277.129738 -179.872781 
L 274.885027 -181.105678 
L 272.920046 -182.338575 
L 271.266224 -183.571472 
L 269.93317 -184.804369 
L 268.91014 -186.037266 
L 268.16965 -187.270163 
L 267.672548 -188.50306 
L 267.373728 -189.735957 
L 267.227641 -190.968853 
L 267.192938 -192.20175 
L 267.235738 -193.434647 
L 267.331338 -194.667544 
L 267.464371 -195.900441 
L 267.62767 -197.133338 
L 267.820209 -198.366235 
L 268.044557 -199.599132 
L 268.304304 -200.832029 
L 268.601821 -202.064926 
L 268.936651 -203.297822 
L 269.304694 -204.530719 
L 269.69821 -205.763616 
L 270.106591 -206.996513 
L 270.517694 -208.22941 
L 270.919519 -209.462307 
L 271.301906 -210.695204 
L 271.657986 -211.928101 
L 271.985105 -213.160998 
L 272.285049 -214.393895 
L 272.563507 -215.626792 
L 272.828857 -216.859688 
L 273.090475 -218.092585 
L 273.356901 -219.325482 
L 273.634203 -220.558379 
L 273.924879 -221.791276 
L 274.2275 -223.024173 
L 274.537174 -224.25707 
L 274.84671 -225.489967 
L 275.148242 -226.722864 
L 275.434974 -227.955761 
L 275.702684 -229.188658 
L 275.950715 -230.421554 
L 276.182263 -231.654451 
L 276.403941 -232.887348 
L 276.624709 -234.120245 
L 276.854403 -235.353142 
L 277.102131 -236.586039 
L 277.374826 -237.818936 
L 277.676233 -239.051833 
L 278.006488 -240.28473 
L 278.362396 -241.517627 
L 278.738367 -242.750524 
L 279.127856 -243.98342 
L 279.525075 -245.216317 
L 279.926665 -246.449214 
L 280.333017 -247.682111 
L 280.748967 -248.915008 
L 281.18369 -250.147905 
L 281.649758 -251.380802 
L 282.161475 -252.613699 
L 282.732748 -253.846596 
L 283.374829 -255.079493 
L 284.094323 -256.312389 
L 284.891786 -257.545286 
L 285.761159 -258.778183 
L 286.690104 -260.01108 
L 287.661188 -261.243977 
L 288.653702 -262.476874 
L 289.645805 -263.709771 
L 290.616686 -264.942668 
L 291.548426 -266.175565 
L 292.427354 -267.408462 
L 293.244783 -268.641359 
L 293.997121 -269.874255 
L 294.685434 -271.107152 
L 295.314614 -272.340049 
L 295.892314 -273.572946 
L 296.427793 -274.805843 
L 296.930816 -276.03874 
L 297.410673 -277.271637 
L 297.875383 -278.504534 
L 298.331105 -279.737431 
L 298.781765 -280.970328 
L 299.228915 -282.203225 
L 299.671812 -283.436121 
L 300.107725 -284.669018 
L 300.532426 -285.901915 
L 300.940829 -287.134812 
L 301.327699 -288.367709 
L 301.688347 -289.600606 
L 302.019204 -290.833503 
L 302.318219 -292.0664 
L 302.585011 -293.299297 
L 302.820772 -294.532194 
L 303.027967 -295.765091 
L 303.209883 -296.997987 
L 303.37013 -298.230884 
L 303.512177 -299.463781 
L 305.273698 -299.463781 
L 305.273698 -299.463781 
L 305.415745 -298.230884 
L 305.575992 -296.997987 
L 305.757908 -295.765091 
L 305.965103 -294.532194 
L 306.200864 -293.299297 
L 306.467656 -292.0664 
L 306.766671 -290.833503 
L 307.097528 -289.600606 
L 307.458176 -288.367709 
L 307.845046 -287.134812 
L 308.253449 -285.901915 
L 308.67815 -284.669018 
L 309.114063 -283.436121 
L 309.55696 -282.203225 
L 310.00411 -280.970328 
L 310.45477 -279.737431 
L 310.910492 -278.504534 
L 311.375202 -277.271637 
L 311.855059 -276.03874 
L 312.358082 -274.805843 
L 312.893561 -273.572946 
L 313.471261 -272.340049 
L 314.100441 -271.107152 
L 314.788754 -269.874255 
L 315.541092 -268.641359 
L 316.358521 -267.408462 
L 317.237449 -266.175565 
L 318.169189 -264.942668 
L 319.14007 -263.709771 
L 320.132173 -262.476874 
L 321.124687 -261.243977 
L 322.095771 -260.01108 
L 323.024716 -258.778183 
L 323.894089 -257.545286 
L 324.691552 -256.312389 
L 325.411046 -255.079493 
L 326.053127 -253.846596 
L 326.6244 -252.613699 
L 327.136117 -251.380802 
L 327.602185 -250.147905 
L 328.036908 -248.915008 
L 328.452858 -247.682111 
L 328.85921 -246.449214 
L 329.2608 -245.216317 
L 329.658019 -243.98342 
L 330.047508 -242.750524 
L 330.423479 -241.517627 
L 330.779387 -240.28473 
L 331.109642 -239.051833 
L 331.411049 -237.818936 
L 331.683744 -236.586039 
L 331.931472 -235.353142 
L 332.161166 -234.120245 
L 332.381934 -232.887348 
L 332.603612 -231.654451 
L 332.83516 -230.421554 
L 333.083191 -229.188658 
L 333.350901 -227.955761 
L 333.637633 -226.722864 
L 333.939165 -225.489967 
L 334.248701 -224.25707 
L 334.558375 -223.024173 
L 334.860996 -221.791276 
L 335.151672 -220.558379 
L 335.428974 -219.325482 
L 335.6954 -218.092585 
L 335.957018 -216.859688 
L 336.222368 -215.626792 
L 336.500826 -214.393895 
L 336.80077 -213.160998 
L 337.127889 -211.928101 
L 337.483969 -210.695204 
L 337.866356 -209.462307 
L 338.268181 -208.22941 
L 338.679284 -206.996513 
L 339.087665 -205.763616 
L 339.481181 -204.530719 
L 339.849224 -203.297822 
L 340.184054 -202.064926 
L 340.481571 -200.832029 
L 340.741318 -199.599132 
L 340.965666 -198.366235 
L 341.158205 -197.133338 
L 341.321504 -195.900441 
L 341.454537 -194.667544 
L 341.550137 -193.434647 
L 341.592938 -192.20175 
L 341.558234 -190.968853 
L 341.412147 -189.735957 
L 341.113327 -188.50306 
L 340.616225 -187.270163 
L 339.875735 -186.037266 
L 338.852705 -184.804369 
L 337.519651 -183.571472 
L 335.865829 -182.338575 
L 333.900848 -181.105678 
L 331.656137 -179.872781 
L 329.183886 -178.639884 
L 326.553452 -177.406987 
z
" style="stroke: #4c4c4c"/>
    </defs>
    <g clip-path="url(#p459bdc8f01)">
     <use xlink:href="#m8ef4356885" x="0" y="319.263781" style="fill: #df9c20; stroke: #4c4c4c"/>
    </g>
   </g>
   <g id="line2d_9">
    <path d="M 118.392938 271.8 
L 118.392938 67.778693 
" clip-path="url(#p459bdc8f01)" style="fill: none; stroke: #4c4c4c; stroke-linecap: round"/>
   </g>
   <g id="line2d_10">
    <path d="M 118.392938 214.496024 
L 118.392938 155.775394 
" clip-path="url(#p459bdc8f01)" style="fill: none; stroke: #4c4c4c; stroke-width: 3; stroke-linecap: round"/>
   </g>
   <g id="line2d_11">
    <path d="M 211.392938 252.49414 
L 211.392938 141.937499 
" clip-path="url(#p459bdc8f01)" style="fill: none; stroke: #4c4c4c; stroke-linecap: round"/>
   </g>
   <g id="line2d_12">
    <path d="M 211.392938 203.344525 
L 211.392938 160.480549 
" clip-path="url(#p459bdc8f01)" style="fill: none; stroke: #4c4c4c; stroke-width: 3; stroke-linecap: round"/>
   </g>
   <g id="line2d_13">
    <path d="M 304.392938 141.856794 
L 304.392938 19.8 
" clip-path="url(#p459bdc8f01)" style="fill: none; stroke: #4c4c4c; stroke-linecap: round"/>
   </g>
   <g id="line2d_14">
    <path d="M 304.392938 124.128033 
L 304.392938 79.570557 
" clip-path="url(#p459bdc8f01)" style="fill: none; stroke: #4c4c4c; stroke-width: 3; stroke-linecap: round"/>
   </g>
   <g id="patch_3">
    <path d="M 71.892938 284.4 
L 71.892938 7.2 
" style="fill: none; stroke: #262626; stroke-width: 2.5; stroke-linejoin: miter; stroke-linecap: square"/>
   </g>
   <g id="patch_4">
    <path d="M 350.892938 284.4 
L 350.892938 7.2 
" style="fill: none; stroke: #262626; stroke-width: 2.5; stroke-linejoin: miter; stroke-linecap: square"/>
   </g>
   <g id="patch_5">
    <path d="M 71.892938 284.4 
L 350.892938 284.4 
" style="fill: none; stroke: #262626; stroke-width: 2.5; stroke-linejoin: miter; stroke-linecap: square"/>
   </g>
   <g id="patch_6">
    <path d="M 71.892938 7.2 
L 350.892938 7.2 
" style="fill: none; stroke: #262626; stroke-width: 2.5; stroke-linejoin: miter; stroke-linecap: square"/>
   </g>
   <g id="PathCollection_1">
    <defs>
     <path id="m19134241c1" d="M 0 1 
C 0.265203 1 0.51958 0.894634 0.707107 0.707107 
C 0.894634 0.51958 1 0.265203 1 0 
C 1 -0.265203 0.894634 -0.51958 0.707107 -0.707107 
C 0.51958 -0.894634 0.265203 -1 0 -1 
C -0.265203 -1 -0.51958 -0.894634 -0.707107 -0.707107 
C -0.894634 -0.51958 -1 -0.265203 -1 0 
C -1 0.265203 -0.894634 0.51958 -0.707107 0.707107 
C -0.51958 0.894634 -0.265203 1 0 1 
z
" style="stroke: #4c4c4c; stroke-width: 0.8"/>
    </defs>
    <g clip-path="url(#p459bdc8f01)">
     <use xlink:href="#m19134241c1" x="118.392938" y="189.785166" style="fill: #ffffff; stroke: #4c4c4c; stroke-width: 0.8"/>
    </g>
   </g>
   <g id="PathCollection_2">
    <g clip-path="url(#p459bdc8f01)">
     <use xlink:href="#m19134241c1" x="211.392938" y="182.970254" style="fill: #ffffff; stroke: #4c4c4c; stroke-width: 0.8"/>
    </g>
   </g>
   <g id="PathCollection_3">
    <g clip-path="url(#p459bdc8f01)">
     <use xlink:href="#m19134241c1" x="304.392938" y="103.39198" style="fill: #ffffff; stroke: #4c4c4c; stroke-width: 0.8"/>
    </g>
   </g>
  </g>
 </g>
 <defs>
  <clipPath id="p459bdc8f01">
   <rect x="71.892938" y="7.2" width="279" height="277.2"/>
  </clipPath>
 </defs>
</svg>
