<?xml version="1.0" encoding="utf-8" standalone="no"?>
<!DOCTYPE svg PUBLIC "-//W3C//DTD SVG 1.1//EN"
  "http://www.w3.org/Graphics/SVG/1.1/DTD/svg11.dtd">
<svg xmlns:xlink="http://www.w3.org/1999/xlink" width="560.409281pt" height="316.50475pt" viewBox="0 0 560.409281 316.50475" xmlns="http://www.w3.org/2000/svg" version="1.1">
 <metadata>
  <rdf:RDF xmlns:dc="http://purl.org/dc/elements/1.1/" xmlns:cc="http://creativecommons.org/ns#" xmlns:rdf="http://www.w3.org/1999/02/22-rdf-syntax-ns#">
   <cc:Work>
    <dc:type rdf:resource="http://purl.org/dc/dcmitype/StillImage"/>
    <dc:date>2023-06-19T21:04:16.059604</dc:date>
    <dc:format>image/svg+xml</dc:format>
    <dc:creator>
     <cc:Agent>
      <dc:title>Matplotlib v3.7.1, https://matplotlib.org/</dc:title>
     </cc:Agent>
    </dc:creator>
   </cc:Work>
  </rdf:RDF>
 </metadata>
 <defs>
  <style type="text/css">*{stroke-linejoin: round; stroke-linecap: butt}</style>
 </defs>
 <g id="figure_1">
  <g id="patch_1">
   <path d="M 0 316.50475 
L 560.409281 316.50475 
L 560.409281 0 
L 0 0 
L 0 316.50475 
z
" style="fill: none"/>
  </g>
  <g id="axes_1">
   <g id="patch_2">
    <path d="M 71.892938 284.4 
L 350.892938 284.4 
L 350.892938 7.2 
L 71.892938 7.2 
L 71.892938 284.4 
z
" style="fill: none"/>
   </g>
   <g id="matplotlib.axis_1">
    <g id="text_1">
     <!--   -->
     <g style="fill: #262626" transform="translate(207.960563 304.812625) scale(0.216 -0.216)">
      <defs>
       <path id="DejaVuSans-20" transform="scale(0.015625)"/>
      </defs>
      <use xlink:href="#DejaVuSans-20"/>
     </g>
    </g>
   </g>
   <g id="matplotlib.axis_2">
    <g id="ytick_1">
     <g id="line2d_1">
      <defs>
       <path id="md2de9d9550" d="M 0 0 
L -4.8 0 
" style="stroke: #262626; stroke-width: 2.5"/>
      </defs>
      <g>
       <use xlink:href="#md2de9d9550" x="71.892938" y="273.291007" style="fill: #262626; stroke: #262626; stroke-width: 2.5"/>
      </g>
     </g>
     <g id="text_2">
      <!-- 0.0 -->
      <g style="fill: #262626" transform="translate(32.10475 280.81346) scale(0.198 -0.198)">
       <defs>
        <path id="DejaVuSans-30" d="M 2034 4250 
Q 1547 4250 1301 3770 
Q 1056 3291 1056 2328 
Q 1056 1369 1301 889 
Q 1547 409 2034 409 
Q 2525 409 2770 889 
Q 3016 1369 3016 2328 
Q 3016 3291 2770 3770 
Q 2525 4250 2034 4250 
z
M 2034 4750 
Q 2819 4750 3233 4129 
Q 3647 3509 3647 2328 
Q 3647 1150 3233 529 
Q 2819 -91 2034 -91 
Q 1250 -91 836 529 
Q 422 1150 422 2328 
Q 422 3509 836 4129 
Q 1250 4750 2034 4750 
z
" transform="scale(0.015625)"/>
        <path id="DejaVuSans-2e" d="M 684 794 
L 1344 794 
L 1344 0 
L 684 0 
L 684 794 
z
" transform="scale(0.015625)"/>
       </defs>
       <use xlink:href="#DejaVuSans-30"/>
       <use xlink:href="#DejaVuSans-2e" x="63.623047"/>
       <use xlink:href="#DejaVuSans-30" x="95.410156"/>
      </g>
     </g>
    </g>
    <g id="ytick_2">
     <g id="line2d_2">
      <g>
       <use xlink:href="#md2de9d9550" x="71.892938" y="219.457285" style="fill: #262626; stroke: #262626; stroke-width: 2.5"/>
      </g>
     </g>
     <g id="text_3">
      <!-- 0.2 -->
      <g style="fill: #262626" transform="translate(32.10475 226.979738) scale(0.198 -0.198)">
       <defs>
        <path id="DejaVuSans-32" d="M 1228 531 
L 3431 531 
L 3431 0 
L 469 0 
L 469 531 
Q 828 903 1448 1529 
Q 2069 2156 2228 2338 
Q 2531 2678 2651 2914 
Q 2772 3150 2772 3378 
Q 2772 3750 2511 3984 
Q 2250 4219 1831 4219 
Q 1534 4219 1204 4116 
Q 875 4013 500 3803 
L 500 4441 
Q 881 4594 1212 4672 
Q 1544 4750 1819 4750 
Q 2544 4750 2975 4387 
Q 3406 4025 3406 3419 
Q 3406 3131 3298 2873 
Q 3191 2616 2906 2266 
Q 2828 2175 2409 1742 
Q 1991 1309 1228 531 
z
" transform="scale(0.015625)"/>
       </defs>
       <use xlink:href="#DejaVuSans-30"/>
       <use xlink:href="#DejaVuSans-2e" x="63.623047"/>
       <use xlink:href="#DejaVuSans-32" x="95.410156"/>
      </g>
     </g>
    </g>
    <g id="ytick_3">
     <g id="line2d_3">
      <g>
       <use xlink:href="#md2de9d9550" x="71.892938" y="165.623564" style="fill: #262626; stroke: #262626; stroke-width: 2.5"/>
      </g>
     </g>
     <g id="text_4">
      <!-- 0.4 -->
      <g style="fill: #262626" transform="translate(32.10475 173.146017) scale(0.198 -0.198)">
       <defs>
        <path id="DejaVuSans-34" d="M 2419 4116 
L 825 1625 
L 2419 1625 
L 2419 4116 
z
M 2253 4666 
L 3047 4666 
L 3047 1625 
L 3713 1625 
L 3713 1100 
L 3047 1100 
L 3047 0 
L 2419 0 
L 2419 1100 
L 313 1100 
L 313 1709 
L 2253 4666 
z
" transform="scale(0.015625)"/>
       </defs>
       <use xlink:href="#DejaVuSans-30"/>
       <use xlink:href="#DejaVuSans-2e" x="63.623047"/>
       <use xlink:href="#DejaVuSans-34" x="95.410156"/>
      </g>
     </g>
    </g>
    <g id="ytick_4">
     <g id="line2d_4">
      <g>
       <use xlink:href="#md2de9d9550" x="71.892938" y="111.789842" style="fill: #262626; stroke: #262626; stroke-width: 2.5"/>
      </g>
     </g>
     <g id="text_5">
      <!-- 0.6 -->
      <g style="fill: #262626" transform="translate(32.10475 119.312295) scale(0.198 -0.198)">
       <defs>
        <path id="DejaVuSans-36" d="M 2113 2584 
Q 1688 2584 1439 2293 
Q 1191 2003 1191 1497 
Q 1191 994 1439 701 
Q 1688 409 2113 409 
Q 2538 409 2786 701 
Q 3034 994 3034 1497 
Q 3034 2003 2786 2293 
Q 2538 2584 2113 2584 
z
M 3366 4563 
L 3366 3988 
Q 3128 4100 2886 4159 
Q 2644 4219 2406 4219 
Q 1781 4219 1451 3797 
Q 1122 3375 1075 2522 
Q 1259 2794 1537 2939 
Q 1816 3084 2150 3084 
Q 2853 3084 3261 2657 
Q 3669 2231 3669 1497 
Q 3669 778 3244 343 
Q 2819 -91 2113 -91 
Q 1303 -91 875 529 
Q 447 1150 447 2328 
Q 447 3434 972 4092 
Q 1497 4750 2381 4750 
Q 2619 4750 2861 4703 
Q 3103 4656 3366 4563 
z
" transform="scale(0.015625)"/>
       </defs>
       <use xlink:href="#DejaVuSans-30"/>
       <use xlink:href="#DejaVuSans-2e" x="63.623047"/>
       <use xlink:href="#DejaVuSans-36" x="95.410156"/>
      </g>
     </g>
    </g>
    <g id="ytick_5">
     <g id="line2d_5">
      <g>
       <use xlink:href="#md2de9d9550" x="71.892938" y="57.956121" style="fill: #262626; stroke: #262626; stroke-width: 2.5"/>
      </g>
     </g>
     <g id="text_6">
      <!-- 0.8 -->
      <g style="fill: #262626" transform="translate(32.10475 65.478574) scale(0.198 -0.198)">
       <defs>
        <path id="DejaVuSans-38" d="M 2034 2216 
Q 1584 2216 1326 1975 
Q 1069 1734 1069 1313 
Q 1069 891 1326 650 
Q 1584 409 2034 409 
Q 2484 409 2743 651 
Q 3003 894 3003 1313 
Q 3003 1734 2745 1975 
Q 2488 2216 2034 2216 
z
M 1403 2484 
Q 997 2584 770 2862 
Q 544 3141 544 3541 
Q 544 4100 942 4425 
Q 1341 4750 2034 4750 
Q 2731 4750 3128 4425 
Q 3525 4100 3525 3541 
Q 3525 3141 3298 2862 
Q 3072 2584 2669 2484 
Q 3125 2378 3379 2068 
Q 3634 1759 3634 1313 
Q 3634 634 3220 271 
Q 2806 -91 2034 -91 
Q 1263 -91 848 271 
Q 434 634 434 1313 
Q 434 1759 690 2068 
Q 947 2378 1403 2484 
z
M 1172 3481 
Q 1172 3119 1398 2916 
Q 1625 2713 2034 2713 
Q 2441 2713 2670 2916 
Q 2900 3119 2900 3481 
Q 2900 3844 2670 4047 
Q 2441 4250 2034 4250 
Q 1625 4250 1398 4047 
Q 1172 3844 1172 3481 
z
" transform="scale(0.015625)"/>
       </defs>
       <use xlink:href="#DejaVuSans-30"/>
       <use xlink:href="#DejaVuSans-2e" x="63.623047"/>
       <use xlink:href="#DejaVuSans-38" x="95.410156"/>
      </g>
     </g>
    </g>
    <g id="text_7">
     <!-- HiDDEN continuous score -->
     <g style="fill: #262626" transform="translate(23.612625 283.731188) rotate(-90) scale(0.216 -0.216)">
      <defs>
       <path id="DejaVuSans-48" d="M 628 4666 
L 1259 4666 
L 1259 2753 
L 3553 2753 
L 3553 4666 
L 4184 4666 
L 4184 0 
L 3553 0 
L 3553 2222 
L 1259 2222 
L 1259 0 
L 628 0 
L 628 4666 
z
" transform="scale(0.015625)"/>
       <path id="DejaVuSans-69" d="M 603 3500 
L 1178 3500 
L 1178 0 
L 603 0 
L 603 3500 
z
M 603 4863 
L 1178 4863 
L 1178 4134 
L 603 4134 
L 603 4863 
z
" transform="scale(0.015625)"/>
       <path id="DejaVuSans-44" d="M 1259 4147 
L 1259 519 
L 2022 519 
Q 2988 519 3436 956 
Q 3884 1394 3884 2338 
Q 3884 3275 3436 3711 
Q 2988 4147 2022 4147 
L 1259 4147 
z
M 628 4666 
L 1925 4666 
Q 3281 4666 3915 4102 
Q 4550 3538 4550 2338 
Q 4550 1131 3912 565 
Q 3275 0 1925 0 
L 628 0 
L 628 4666 
z
" transform="scale(0.015625)"/>
       <path id="DejaVuSans-45" d="M 628 4666 
L 3578 4666 
L 3578 4134 
L 1259 4134 
L 1259 2753 
L 3481 2753 
L 3481 2222 
L 1259 2222 
L 1259 531 
L 3634 531 
L 3634 0 
L 628 0 
L 628 4666 
z
" transform="scale(0.015625)"/>
       <path id="DejaVuSans-4e" d="M 628 4666 
L 1478 4666 
L 3547 763 
L 3547 4666 
L 4159 4666 
L 4159 0 
L 3309 0 
L 1241 3903 
L 1241 0 
L 628 0 
L 628 4666 
z
" transform="scale(0.015625)"/>
       <path id="DejaVuSans-63" d="M 3122 3366 
L 3122 2828 
Q 2878 2963 2633 3030 
Q 2388 3097 2138 3097 
Q 1578 3097 1268 2742 
Q 959 2388 959 1747 
Q 959 1106 1268 751 
Q 1578 397 2138 397 
Q 2388 397 2633 464 
Q 2878 531 3122 666 
L 3122 134 
Q 2881 22 2623 -34 
Q 2366 -91 2075 -91 
Q 1284 -91 818 406 
Q 353 903 353 1747 
Q 353 2603 823 3093 
Q 1294 3584 2113 3584 
Q 2378 3584 2631 3529 
Q 2884 3475 3122 3366 
z
" transform="scale(0.015625)"/>
       <path id="DejaVuSans-6f" d="M 1959 3097 
Q 1497 3097 1228 2736 
Q 959 2375 959 1747 
Q 959 1119 1226 758 
Q 1494 397 1959 397 
Q 2419 397 2687 759 
Q 2956 1122 2956 1747 
Q 2956 2369 2687 2733 
Q 2419 3097 1959 3097 
z
M 1959 3584 
Q 2709 3584 3137 3096 
Q 3566 2609 3566 1747 
Q 3566 888 3137 398 
Q 2709 -91 1959 -91 
Q 1206 -91 779 398 
Q 353 888 353 1747 
Q 353 2609 779 3096 
Q 1206 3584 1959 3584 
z
" transform="scale(0.015625)"/>
       <path id="DejaVuSans-6e" d="M 3513 2113 
L 3513 0 
L 2938 0 
L 2938 2094 
Q 2938 2591 2744 2837 
Q 2550 3084 2163 3084 
Q 1697 3084 1428 2787 
Q 1159 2491 1159 1978 
L 1159 0 
L 581 0 
L 581 3500 
L 1159 3500 
L 1159 2956 
Q 1366 3272 1645 3428 
Q 1925 3584 2291 3584 
Q 2894 3584 3203 3211 
Q 3513 2838 3513 2113 
z
" transform="scale(0.015625)"/>
       <path id="DejaVuSans-74" d="M 1172 4494 
L 1172 3500 
L 2356 3500 
L 2356 3053 
L 1172 3053 
L 1172 1153 
Q 1172 725 1289 603 
Q 1406 481 1766 481 
L 2356 481 
L 2356 0 
L 1766 0 
Q 1100 0 847 248 
Q 594 497 594 1153 
L 594 3053 
L 172 3053 
L 172 3500 
L 594 3500 
L 594 4494 
L 1172 4494 
z
" transform="scale(0.015625)"/>
       <path id="DejaVuSans-75" d="M 544 1381 
L 544 3500 
L 1119 3500 
L 1119 1403 
Q 1119 906 1312 657 
Q 1506 409 1894 409 
Q 2359 409 2629 706 
Q 2900 1003 2900 1516 
L 2900 3500 
L 3475 3500 
L 3475 0 
L 2900 0 
L 2900 538 
Q 2691 219 2414 64 
Q 2138 -91 1772 -91 
Q 1169 -91 856 284 
Q 544 659 544 1381 
z
M 1991 3584 
L 1991 3584 
z
" transform="scale(0.015625)"/>
       <path id="DejaVuSans-73" d="M 2834 3397 
L 2834 2853 
Q 2591 2978 2328 3040 
Q 2066 3103 1784 3103 
Q 1356 3103 1142 2972 
Q 928 2841 928 2578 
Q 928 2378 1081 2264 
Q 1234 2150 1697 2047 
L 1894 2003 
Q 2506 1872 2764 1633 
Q 3022 1394 3022 966 
Q 3022 478 2636 193 
Q 2250 -91 1575 -91 
Q 1294 -91 989 -36 
Q 684 19 347 128 
L 347 722 
Q 666 556 975 473 
Q 1284 391 1588 391 
Q 1994 391 2212 530 
Q 2431 669 2431 922 
Q 2431 1156 2273 1281 
Q 2116 1406 1581 1522 
L 1381 1569 
Q 847 1681 609 1914 
Q 372 2147 372 2553 
Q 372 3047 722 3315 
Q 1072 3584 1716 3584 
Q 2034 3584 2315 3537 
Q 2597 3491 2834 3397 
z
" transform="scale(0.015625)"/>
       <path id="DejaVuSans-72" d="M 2631 2963 
Q 2534 3019 2420 3045 
Q 2306 3072 2169 3072 
Q 1681 3072 1420 2755 
Q 1159 2438 1159 1844 
L 1159 0 
L 581 0 
L 581 3500 
L 1159 3500 
L 1159 2956 
Q 1341 3275 1631 3429 
Q 1922 3584 2338 3584 
Q 2397 3584 2469 3576 
Q 2541 3569 2628 3553 
L 2631 2963 
z
" transform="scale(0.015625)"/>
       <path id="DejaVuSans-65" d="M 3597 1894 
L 3597 1613 
L 953 1613 
Q 991 1019 1311 708 
Q 1631 397 2203 397 
Q 2534 397 2845 478 
Q 3156 559 3463 722 
L 3463 178 
Q 3153 47 2828 -22 
Q 2503 -91 2169 -91 
Q 1331 -91 842 396 
Q 353 884 353 1716 
Q 353 2575 817 3079 
Q 1281 3584 2069 3584 
Q 2775 3584 3186 3129 
Q 3597 2675 3597 1894 
z
M 3022 2063 
Q 3016 2534 2758 2815 
Q 2500 3097 2075 3097 
Q 1594 3097 1305 2825 
Q 1016 2553 972 2059 
L 3022 2063 
z
" transform="scale(0.015625)"/>
      </defs>
      <use xlink:href="#DejaVuSans-48"/>
      <use xlink:href="#DejaVuSans-69" x="75.195312"/>
      <use xlink:href="#DejaVuSans-44" x="102.978516"/>
      <use xlink:href="#DejaVuSans-44" x="179.980469"/>
      <use xlink:href="#DejaVuSans-45" x="256.982422"/>
      <use xlink:href="#DejaVuSans-4e" x="320.166016"/>
      <use xlink:href="#DejaVuSans-20" x="394.970703"/>
      <use xlink:href="#DejaVuSans-63" x="426.757812"/>
      <use xlink:href="#DejaVuSans-6f" x="481.738281"/>
      <use xlink:href="#DejaVuSans-6e" x="542.919922"/>
      <use xlink:href="#DejaVuSans-74" x="606.298828"/>
      <use xlink:href="#DejaVuSans-69" x="645.507812"/>
      <use xlink:href="#DejaVuSans-6e" x="673.291016"/>
      <use xlink:href="#DejaVuSans-75" x="736.669922"/>
      <use xlink:href="#DejaVuSans-6f" x="800.048828"/>
      <use xlink:href="#DejaVuSans-75" x="861.230469"/>
      <use xlink:href="#DejaVuSans-73" x="924.609375"/>
      <use xlink:href="#DejaVuSans-20" x="976.708984"/>
      <use xlink:href="#DejaVuSans-73" x="1008.496094"/>
      <use xlink:href="#DejaVuSans-63" x="1060.595703"/>
      <use xlink:href="#DejaVuSans-6f" x="1115.576172"/>
      <use xlink:href="#DejaVuSans-72" x="1176.757812"/>
      <use xlink:href="#DejaVuSans-65" x="1215.621094"/>
     </g>
    </g>
   </g>
   <g id="patch_3">
    <path d="M 211.392938 273.291007 
L 211.392938 273.291007 
L 211.392938 273.291007 
L 211.392938 273.291007 
z
" clip-path="url(#p8ef14c3361)" style="fill: #224fdf; stroke: #4c4c4c; stroke-width: 0.5; stroke-linejoin: miter"/>
   </g>
   <g id="PolyCollection_1">
    <defs>
     <path id="m6f2432b93e" d="M 211.392938 -44.70475 
L 209.57184 -44.70475 
L 208.847167 -47.106232 
L 207.860891 -49.507715 
L 206.520491 -51.909197 
L 204.715479 -54.310679 
L 202.327462 -56.712162 
L 199.246425 -59.113644 
L 195.390896 -61.515127 
L 190.727556 -63.916609 
L 185.284901 -66.318091 
L 179.156447 -68.719574 
L 172.491905 -71.121056 
L 165.478645 -73.522538 
L 158.319055 -75.924021 
L 151.210367 -78.325503 
L 144.331668 -80.726985 
L 137.838873 -83.128468 
L 131.864168 -85.52995 
L 126.513975 -87.931433 
L 121.860603 -90.332915 
L 117.927375 -92.734397 
L 114.67345 -95.13588 
L 111.989183 -97.537362 
L 109.71221 -99.938844 
L 107.667304 -102.340327 
L 105.721614 -104.741809 
L 103.836535 -107.143291 
L 102.094137 -109.544774 
L 100.683038 -111.946256 
L 99.844028 -114.347739 
L 99.792938 -116.749221 
L 100.648629 -119.150703 
L 102.392335 -121.552186 
L 104.87164 -123.953668 
L 107.84475 -126.35515 
L 111.046459 -128.756633 
L 114.251935 -131.158115 
L 117.318835 -133.559597 
L 120.199044 -135.96108 
L 122.923217 -138.362562 
L 125.569352 -140.764045 
L 128.228344 -143.165527 
L 130.975543 -145.567009 
L 133.851525 -147.968492 
L 136.851502 -150.369974 
L 139.922789 -152.771456 
L 142.971665 -155.172939 
L 145.881454 -157.574421 
L 148.54074 -159.975903 
L 150.875371 -162.377386 
L 152.873854 -164.778868 
L 154.595996 -167.180351 
L 156.159921 -169.581833 
L 157.710795 -171.983315 
L 159.381816 -174.384798 
L 161.260875 -176.78628 
L 163.373405 -179.187762 
L 165.68474 -181.589245 
L 168.117451 -183.990727 
L 170.574457 -186.392209 
L 172.959322 -188.793692 
L 175.189745 -191.195174 
L 177.205343 -193.596657 
L 178.972949 -195.998139 
L 180.490918 -198.399621 
L 181.790616 -200.801104 
L 182.931647 -203.202586 
L 183.989401 -205.604068 
L 185.037782 -208.005551 
L 186.133366 -210.407033 
L 187.306889 -212.808515 
L 188.563857 -215.209998 
L 189.890971 -217.61148 
L 191.262631 -220.012963 
L 192.643618 -222.414445 
L 193.988811 -224.815927 
L 195.244576 -227.21741 
L 196.356357 -229.618892 
L 197.282807 -232.020374 
L 198.01156 -234.421857 
L 198.56907 -236.823339 
L 199.018749 -239.224821 
L 199.446645 -241.626304 
L 199.939304 -244.027786 
L 200.561451 -246.429269 
L 201.340809 -248.830751 
L 202.264329 -251.232233 
L 203.285883 -253.633716 
L 204.341697 -256.035198 
L 205.367795 -258.43668 
L 206.313945 -260.838163 
L 207.150767 -263.239645 
L 207.869664 -265.641127 
L 208.477611 -268.04261 
L 208.989944 -270.444092 
L 209.423865 -272.845575 
L 209.794249 -275.247057 
L 210.111976 -277.648539 
L 210.38415 -280.050022 
L 210.61525 -282.451504 
L 211.392938 -282.451504 
L 211.392938 -282.451504 
L 211.392938 -280.050022 
L 211.392938 -277.648539 
L 211.392938 -275.247057 
L 211.392938 -272.845575 
L 211.392938 -270.444092 
L 211.392938 -268.04261 
L 211.392938 -265.641127 
L 211.392938 -263.239645 
L 211.392938 -260.838163 
L 211.392938 -258.43668 
L 211.392938 -256.035198 
L 211.392938 -253.633716 
L 211.392938 -251.232233 
L 211.392938 -248.830751 
L 211.392938 -246.429269 
L 211.392938 -244.027786 
L 211.392938 -241.626304 
L 211.392938 -239.224821 
L 211.392938 -236.823339 
L 211.392938 -234.421857 
L 211.392938 -232.020374 
L 211.392938 -229.618892 
L 211.392938 -227.21741 
L 211.392938 -224.815927 
L 211.392938 -222.414445 
L 211.392938 -220.012963 
L 211.392938 -217.61148 
L 211.392938 -215.209998 
L 211.392938 -212.808515 
L 211.392938 -210.407033 
L 211.392938 -208.005551 
L 211.392938 -205.604068 
L 211.392938 -203.202586 
L 211.392938 -200.801104 
L 211.392938 -198.399621 
L 211.392938 -195.998139 
L 211.392938 -193.596657 
L 211.392938 -191.195174 
L 211.392938 -188.793692 
L 211.392938 -186.392209 
L 211.392938 -183.990727 
L 211.392938 -181.589245 
L 211.392938 -179.187762 
L 211.392938 -176.78628 
L 211.392938 -174.384798 
L 211.392938 -171.983315 
L 211.392938 -169.581833 
L 211.392938 -167.180351 
L 211.392938 -164.778868 
L 211.392938 -162.377386 
L 211.392938 -159.975903 
L 211.392938 -157.574421 
L 211.392938 -155.172939 
L 211.392938 -152.771456 
L 211.392938 -150.369974 
L 211.392938 -147.968492 
L 211.392938 -145.567009 
L 211.392938 -143.165527 
L 211.392938 -140.764045 
L 211.392938 -138.362562 
L 211.392938 -135.96108 
L 211.392938 -133.559597 
L 211.392938 -131.158115 
L 211.392938 -128.756633 
L 211.392938 -126.35515 
L 211.392938 -123.953668 
L 211.392938 -121.552186 
L 211.392938 -119.150703 
L 211.392938 -116.749221 
L 211.392938 -114.347739 
L 211.392938 -111.946256 
L 211.392938 -109.544774 
L 211.392938 -107.143291 
L 211.392938 -104.741809 
L 211.392938 -102.340327 
L 211.392938 -99.938844 
L 211.392938 -97.537362 
L 211.392938 -95.13588 
L 211.392938 -92.734397 
L 211.392938 -90.332915 
L 211.392938 -87.931433 
L 211.392938 -85.52995 
L 211.392938 -83.128468 
L 211.392938 -80.726985 
L 211.392938 -78.325503 
L 211.392938 -75.924021 
L 211.392938 -73.522538 
L 211.392938 -71.121056 
L 211.392938 -68.719574 
L 211.392938 -66.318091 
L 211.392938 -63.916609 
L 211.392938 -61.515127 
L 211.392938 -59.113644 
L 211.392938 -56.712162 
L 211.392938 -54.310679 
L 211.392938 -51.909197 
L 211.392938 -49.507715 
L 211.392938 -47.106232 
L 211.392938 -44.70475 
z
" style="stroke: #4c4c4c"/>
    </defs>
    <g clip-path="url(#p8ef14c3361)">
     <use xlink:href="#m6f2432b93e" x="0" y="316.50475" style="fill: #224fdf; stroke: #4c4c4c"/>
    </g>
   </g>
   <g id="patch_4">
    <path d="M 211.392938 273.291007 
L 211.392938 273.291007 
L 211.392938 273.291007 
L 211.392938 273.291007 
z
" clip-path="url(#p8ef14c3361)" style="fill: #df7d20; stroke: #4c4c4c; stroke-width: 0.5; stroke-linejoin: miter"/>
   </g>
   <g id="PolyCollection_2">
    <defs>
     <path id="m68ef21d8b6" d="M 215.372728 -64.01061 
L 211.392938 -64.01061 
L 211.392938 -66.361056 
L 211.392938 -68.711501 
L 211.392938 -71.061947 
L 211.392938 -73.412393 
L 211.392938 -75.762839 
L 211.392938 -78.113285 
L 211.392938 -80.463731 
L 211.392938 -82.814177 
L 211.392938 -85.164622 
L 211.392938 -87.515068 
L 211.392938 -89.865514 
L 211.392938 -92.21596 
L 211.392938 -94.566406 
L 211.392938 -96.916852 
L 211.392938 -99.267298 
L 211.392938 -101.617743 
L 211.392938 -103.968189 
L 211.392938 -106.318635 
L 211.392938 -108.669081 
L 211.392938 -111.019527 
L 211.392938 -113.369973 
L 211.392938 -115.720419 
L 211.392938 -118.070865 
L 211.392938 -120.42131 
L 211.392938 -122.771756 
L 211.392938 -125.122202 
L 211.392938 -127.472648 
L 211.392938 -129.823094 
L 211.392938 -132.17354 
L 211.392938 -134.523986 
L 211.392938 -136.874431 
L 211.392938 -139.224877 
L 211.392938 -141.575323 
L 211.392938 -143.925769 
L 211.392938 -146.276215 
L 211.392938 -148.626661 
L 211.392938 -150.977107 
L 211.392938 -153.327552 
L 211.392938 -155.677998 
L 211.392938 -158.028444 
L 211.392938 -160.37889 
L 211.392938 -162.729336 
L 211.392938 -165.079782 
L 211.392938 -167.430228 
L 211.392938 -169.780673 
L 211.392938 -172.131119 
L 211.392938 -174.481565 
L 211.392938 -176.832011 
L 211.392938 -179.182457 
L 211.392938 -181.532903 
L 211.392938 -183.883349 
L 211.392938 -186.233795 
L 211.392938 -188.58424 
L 211.392938 -190.934686 
L 211.392938 -193.285132 
L 211.392938 -195.635578 
L 211.392938 -197.986024 
L 211.392938 -200.33647 
L 211.392938 -202.686916 
L 211.392938 -205.037361 
L 211.392938 -207.387807 
L 211.392938 -209.738253 
L 211.392938 -212.088699 
L 211.392938 -214.439145 
L 211.392938 -216.789591 
L 211.392938 -219.140037 
L 211.392938 -221.490482 
L 211.392938 -223.840928 
L 211.392938 -226.191374 
L 211.392938 -228.54182 
L 211.392938 -230.892266 
L 211.392938 -233.242712 
L 211.392938 -235.593158 
L 211.392938 -237.943603 
L 211.392938 -240.294049 
L 211.392938 -242.644495 
L 211.392938 -244.994941 
L 211.392938 -247.345387 
L 211.392938 -249.695833 
L 211.392938 -252.046279 
L 211.392938 -254.396724 
L 211.392938 -256.74717 
L 211.392938 -259.097616 
L 211.392938 -261.448062 
L 211.392938 -263.798508 
L 211.392938 -266.148954 
L 211.392938 -268.4994 
L 211.392938 -270.849846 
L 211.392938 -273.200291 
L 211.392938 -275.550737 
L 211.392938 -277.901183 
L 211.392938 -280.251629 
L 211.392938 -282.602075 
L 211.392938 -284.952521 
L 211.392938 -287.302967 
L 211.392938 -289.653412 
L 211.392938 -292.003858 
L 211.392938 -294.354304 
L 211.392938 -296.70475 
L 213.779824 -296.70475 
L 213.779824 -296.70475 
L 214.437122 -294.354304 
L 215.216827 -292.003858 
L 216.126414 -289.653412 
L 217.170625 -287.302967 
L 218.352058 -284.952521 
L 219.67254 -282.602075 
L 221.134869 -280.251629 
L 222.744214 -277.901183 
L 224.508301 -275.550737 
L 226.435787 -273.200291 
L 228.53273 -270.849846 
L 230.797805 -268.4994 
L 233.217579 -266.148954 
L 235.763427 -263.798508 
L 238.391439 -261.448062 
L 241.045874 -259.097616 
L 243.665629 -256.74717 
L 246.192218 -254.396724 
L 248.57724 -252.046279 
L 250.787503 -249.695833 
L 252.806829 -247.345387 
L 254.634628 -244.994941 
L 256.282312 -242.644495 
L 257.769006 -240.294049 
L 259.117794 -237.943603 
L 260.353129 -235.593158 
L 261.499319 -233.242712 
L 262.579649 -230.892266 
L 263.615674 -228.54182 
L 264.626522 -226.191374 
L 265.628338 -223.840928 
L 266.634069 -221.490482 
L 267.653649 -219.140037 
L 268.694341 -216.789591 
L 269.760922 -214.439145 
L 270.855482 -212.088699 
L 271.977 -209.738253 
L 273.121116 -207.387807 
L 274.28061 -205.037361 
L 275.446725 -202.686916 
L 276.610983 -200.33647 
L 277.766684 -197.986024 
L 278.909262 -195.635578 
L 280.035111 -193.285132 
L 281.139252 -190.934686 
L 282.212826 -188.58424 
L 283.241598 -186.233795 
L 284.206204 -183.883349 
L 285.084026 -181.532903 
L 285.851782 -179.182457 
L 286.487623 -176.832011 
L 286.971896 -174.481565 
L 287.286742 -172.131119 
L 287.415623 -169.780673 
L 287.344312 -167.430228 
L 287.064428 -165.079782 
L 286.57933 -162.729336 
L 285.910743 -160.37889 
L 285.103432 -158.028444 
L 284.225276 -155.677998 
L 283.361134 -153.327552 
L 282.600764 -150.977107 
L 282.022926 -148.626661 
L 281.679151 -146.276215 
L 281.581001 -143.925769 
L 281.693989 -141.575323 
L 281.939892 -139.224877 
L 282.207399 -136.874431 
L 282.369245 -134.523986 
L 282.302613 -132.17354 
L 281.908815 -129.823094 
L 281.12834 -127.472648 
L 279.948245 -125.122202 
L 278.400485 -122.771756 
L 276.551733 -120.42131 
L 274.48714 -118.070865 
L 272.291737 -115.720419 
L 270.033607 -113.369973 
L 267.752315 -111.019527 
L 265.454685 -108.669081 
L 263.118212 -106.318635 
L 260.700678 -103.968189 
L 258.153318 -101.617743 
L 255.434424 -99.267298 
L 252.520517 -96.916852 
L 249.413161 -94.566406 
L 246.140604 -92.21596 
L 242.754633 -89.865514 
L 239.323883 -87.515068 
L 235.925296 -85.164622 
L 232.635429 -82.814177 
L 229.523005 -80.463731 
L 226.643549 -78.113285 
L 224.036417 -75.762839 
L 221.724077 -73.412393 
L 219.713201 -71.061947 
L 217.99701 -68.711501 
L 216.558309 -66.361056 
L 215.372728 -64.01061 
z
" style="stroke: #4c4c4c"/>
    </defs>
    <g clip-path="url(#p8ef14c3361)">
     <use xlink:href="#m68ef21d8b6" x="0" y="316.50475" style="fill: #df7d20; stroke: #4c4c4c"/>
    </g>
   </g>
   <g id="line2d_6">
    <path d="M 211.392938 271.8 
L 211.392938 24.661462 
" clip-path="url(#p8ef14c3361)" style="fill: none; stroke: #4c4c4c; stroke-linecap: round"/>
   </g>
   <g id="line2d_7">
    <path d="M 211.392938 205.032692 
L 211.392938 132.797505 
" clip-path="url(#p8ef14c3361)" style="fill: none; stroke: #4c4c4c; stroke-width: 3; stroke-linecap: round"/>
   </g>
   <g id="patch_5">
    <path d="M 71.892938 284.4 
L 71.892938 7.2 
" style="fill: none; stroke: #262626; stroke-width: 2.5; stroke-linejoin: miter; stroke-linecap: square"/>
   </g>
   <g id="patch_6">
    <path d="M 350.892938 284.4 
L 350.892938 7.2 
" style="fill: none; stroke: #262626; stroke-width: 2.5; stroke-linejoin: miter; stroke-linecap: square"/>
   </g>
   <g id="patch_7">
    <path d="M 71.892938 284.4 
L 350.892938 284.4 
" style="fill: none; stroke: #262626; stroke-width: 2.5; stroke-linejoin: miter; stroke-linecap: square"/>
   </g>
   <g id="patch_8">
    <path d="M 71.892938 7.2 
L 350.892938 7.2 
" style="fill: none; stroke: #262626; stroke-width: 2.5; stroke-linejoin: miter; stroke-linecap: square"/>
   </g>
   <g id="PathCollection_1">
    <defs>
     <path id="m8ea85ad56b" d="M 0 1 
C 0.265203 1 0.51958 0.894634 0.707107 0.707107 
C 0.894634 0.51958 1 0.265203 1 0 
C 1 -0.265203 0.894634 -0.51958 0.707107 -0.707107 
C 0.51958 -0.894634 0.265203 -1 0 -1 
C -0.265203 -1 -0.51958 -0.894634 -0.707107 -0.707107 
C -0.894634 -0.51958 -1 -0.265203 -1 0 
C -1 0.265203 -0.894634 0.51958 -0.707107 0.707107 
C -0.51958 0.894634 -0.265203 1 0 1 
z
" style="stroke: #4c4c4c; stroke-width: 0.8"/>
    </defs>
    <g clip-path="url(#p8ef14c3361)">
     <use xlink:href="#m8ea85ad56b" x="211.392938" y="174.312653" style="fill: #ffffff; stroke: #4c4c4c; stroke-width: 0.8"/>
    </g>
   </g>
   <g id="legend_1">
    <g id="patch_9">
     <path d="M 382.752938 284.4 
L 549.249281 284.4 
Q 553.209281 284.4 553.209281 280.44 
L 553.209281 223.19325 
Q 553.209281 219.23325 549.249281 219.23325 
L 382.752938 219.23325 
Q 378.792938 219.23325 378.792938 223.19325 
L 378.792938 280.44 
Q 378.792938 284.4 382.752938 284.4 
z
" style="fill: #ffffff; opacity: 0.8; stroke: #cccccc; stroke-width: 0.8; stroke-linejoin: miter"/>
    </g>
    <g id="patch_10">
     <path d="M 386.712938 242.198156 
L 426.312938 242.198156 
L 426.312938 228.338156 
L 386.712938 228.338156 
z
" style="fill: #224fdf; stroke: #4c4c4c; stroke-width: 0.5; stroke-linejoin: miter"/>
    </g>
    <g id="text_8">
     <!-- CHIR_D30 -->
     <g style="fill: #262626" transform="translate(442.152938 242.198156) scale(0.198 -0.198)">
      <defs>
       <path id="DejaVuSans-43" d="M 4122 4306 
L 4122 3641 
Q 3803 3938 3442 4084 
Q 3081 4231 2675 4231 
Q 1875 4231 1450 3742 
Q 1025 3253 1025 2328 
Q 1025 1406 1450 917 
Q 1875 428 2675 428 
Q 3081 428 3442 575 
Q 3803 722 4122 1019 
L 4122 359 
Q 3791 134 3420 21 
Q 3050 -91 2638 -91 
Q 1578 -91 968 557 
Q 359 1206 359 2328 
Q 359 3453 968 4101 
Q 1578 4750 2638 4750 
Q 3056 4750 3426 4639 
Q 3797 4528 4122 4306 
z
" transform="scale(0.015625)"/>
       <path id="DejaVuSans-49" d="M 628 4666 
L 1259 4666 
L 1259 0 
L 628 0 
L 628 4666 
z
" transform="scale(0.015625)"/>
       <path id="DejaVuSans-52" d="M 2841 2188 
Q 3044 2119 3236 1894 
Q 3428 1669 3622 1275 
L 4263 0 
L 3584 0 
L 2988 1197 
Q 2756 1666 2539 1819 
Q 2322 1972 1947 1972 
L 1259 1972 
L 1259 0 
L 628 0 
L 628 4666 
L 2053 4666 
Q 2853 4666 3247 4331 
Q 3641 3997 3641 3322 
Q 3641 2881 3436 2590 
Q 3231 2300 2841 2188 
z
M 1259 4147 
L 1259 2491 
L 2053 2491 
Q 2509 2491 2742 2702 
Q 2975 2913 2975 3322 
Q 2975 3731 2742 3939 
Q 2509 4147 2053 4147 
L 1259 4147 
z
" transform="scale(0.015625)"/>
       <path id="DejaVuSans-5f" d="M 3263 -1063 
L 3263 -1509 
L -63 -1509 
L -63 -1063 
L 3263 -1063 
z
" transform="scale(0.015625)"/>
       <path id="DejaVuSans-33" d="M 2597 2516 
Q 3050 2419 3304 2112 
Q 3559 1806 3559 1356 
Q 3559 666 3084 287 
Q 2609 -91 1734 -91 
Q 1441 -91 1130 -33 
Q 819 25 488 141 
L 488 750 
Q 750 597 1062 519 
Q 1375 441 1716 441 
Q 2309 441 2620 675 
Q 2931 909 2931 1356 
Q 2931 1769 2642 2001 
Q 2353 2234 1838 2234 
L 1294 2234 
L 1294 2753 
L 1863 2753 
Q 2328 2753 2575 2939 
Q 2822 3125 2822 3475 
Q 2822 3834 2567 4026 
Q 2313 4219 1838 4219 
Q 1578 4219 1281 4162 
Q 984 4106 628 3988 
L 628 4550 
Q 988 4650 1302 4700 
Q 1616 4750 1894 4750 
Q 2613 4750 3031 4423 
Q 3450 4097 3450 3541 
Q 3450 3153 3228 2886 
Q 3006 2619 2597 2516 
z
" transform="scale(0.015625)"/>
      </defs>
      <use xlink:href="#DejaVuSans-43"/>
      <use xlink:href="#DejaVuSans-48" x="69.824219"/>
      <use xlink:href="#DejaVuSans-49" x="145.019531"/>
      <use xlink:href="#DejaVuSans-52" x="174.511719"/>
      <use xlink:href="#DejaVuSans-5f" x="243.994141"/>
      <use xlink:href="#DejaVuSans-44" x="293.994141"/>
      <use xlink:href="#DejaVuSans-33" x="370.996094"/>
      <use xlink:href="#DejaVuSans-30" x="434.619141"/>
     </g>
    </g>
    <g id="patch_11">
     <path d="M 386.712938 271.811531 
L 426.312938 271.811531 
L 426.312938 257.951531 
L 386.712938 257.951531 
z
" style="fill: #df7d20; stroke: #4c4c4c; stroke-width: 0.5; stroke-linejoin: miter"/>
    </g>
    <g id="text_9">
     <!-- FZD5_D30 -->
     <g style="fill: #262626" transform="translate(442.152938 271.811531) scale(0.198 -0.198)">
      <defs>
       <path id="DejaVuSans-46" d="M 628 4666 
L 3309 4666 
L 3309 4134 
L 1259 4134 
L 1259 2759 
L 3109 2759 
L 3109 2228 
L 1259 2228 
L 1259 0 
L 628 0 
L 628 4666 
z
" transform="scale(0.015625)"/>
       <path id="DejaVuSans-5a" d="M 359 4666 
L 4025 4666 
L 4025 4184 
L 1075 531 
L 4097 531 
L 4097 0 
L 288 0 
L 288 481 
L 3238 4134 
L 359 4134 
L 359 4666 
z
" transform="scale(0.015625)"/>
       <path id="DejaVuSans-35" d="M 691 4666 
L 3169 4666 
L 3169 4134 
L 1269 4134 
L 1269 2991 
Q 1406 3038 1543 3061 
Q 1681 3084 1819 3084 
Q 2600 3084 3056 2656 
Q 3513 2228 3513 1497 
Q 3513 744 3044 326 
Q 2575 -91 1722 -91 
Q 1428 -91 1123 -41 
Q 819 9 494 109 
L 494 744 
Q 775 591 1075 516 
Q 1375 441 1709 441 
Q 2250 441 2565 725 
Q 2881 1009 2881 1497 
Q 2881 1984 2565 2268 
Q 2250 2553 1709 2553 
Q 1456 2553 1204 2497 
Q 953 2441 691 2322 
L 691 4666 
z
" transform="scale(0.015625)"/>
      </defs>
      <use xlink:href="#DejaVuSans-46"/>
      <use xlink:href="#DejaVuSans-5a" x="57.519531"/>
      <use xlink:href="#DejaVuSans-44" x="126.025391"/>
      <use xlink:href="#DejaVuSans-35" x="203.027344"/>
      <use xlink:href="#DejaVuSans-5f" x="266.650391"/>
      <use xlink:href="#DejaVuSans-44" x="316.650391"/>
      <use xlink:href="#DejaVuSans-33" x="393.652344"/>
      <use xlink:href="#DejaVuSans-30" x="457.275391"/>
     </g>
    </g>
   </g>
  </g>
 </g>
 <defs>
  <clipPath id="p8ef14c3361">
   <rect x="71.892938" y="7.2" width="279" height="277.2"/>
  </clipPath>
 </defs>
</svg>
