<?xml version="1.0" encoding="utf-8" standalone="no"?>
<!DOCTYPE svg PUBLIC "-//W3C//DTD SVG 1.1//EN"
  "http://www.w3.org/Graphics/SVG/1.1/DTD/svg11.dtd">
<svg xmlns:xlink="http://www.w3.org/1999/xlink" width="358.693687pt" height="233.288531pt" viewBox="0 0 358.693687 233.288531" xmlns="http://www.w3.org/2000/svg" version="1.1">
 <metadata>
  <rdf:RDF xmlns:dc="http://purl.org/dc/elements/1.1/" xmlns:cc="http://creativecommons.org/ns#" xmlns:rdf="http://www.w3.org/1999/02/22-rdf-syntax-ns#">
   <cc:Work>
    <dc:type rdf:resource="http://purl.org/dc/dcmitype/StillImage"/>
    <dc:date>2023-06-19T20:49:36.219852</dc:date>
    <dc:format>image/svg+xml</dc:format>
    <dc:creator>
     <cc:Agent>
      <dc:title>Matplotlib v3.7.1, https://matplotlib.org/</dc:title>
     </cc:Agent>
    </dc:creator>
   </cc:Work>
  </rdf:RDF>
 </metadata>
 <defs>
  <style type="text/css">*{stroke-linejoin: round; stroke-linecap: butt}</style>
 </defs>
 <g id="figure_1">
  <g id="patch_1">
   <path d="M 0 233.288531 
L 358.693687 233.288531 
L 358.693687 0 
L 0 0 
L 0 233.288531 
z
" style="fill: none"/>
  </g>
  <g id="axes_1">
   <g id="patch_2">
    <path d="M 72.493687 173.52 
L 351.493687 173.52 
L 351.493687 7.2 
L 72.493687 7.2 
L 72.493687 173.52 
z
" style="fill: none"/>
   </g>
   <g id="matplotlib.axis_1">
    <g id="xtick_1">
     <g id="line2d_1">
      <defs>
       <path id="m7d55a0b6bb" d="M 0 0 
L 0 4.8 
" style="stroke: #262626; stroke-width: 2.5"/>
      </defs>
      <g>
       <use xlink:href="#m7d55a0b6bb" x="142.243687" y="173.52" style="fill: #262626; stroke: #262626; stroke-width: 2.5"/>
      </g>
     </g>
     <g id="text_1">
      <!-- CHIR_D30 -->
      <g style="fill: #262626" transform="translate(92.915391 196.515313) scale(0.198 -0.198)">
       <defs>
        <path id="DejaVuSans-43" d="M 4122 4306 
L 4122 3641 
Q 3803 3938 3442 4084 
Q 3081 4231 2675 4231 
Q 1875 4231 1450 3742 
Q 1025 3253 1025 2328 
Q 1025 1406 1450 917 
Q 1875 428 2675 428 
Q 3081 428 3442 575 
Q 3803 722 4122 1019 
L 4122 359 
Q 3791 134 3420 21 
Q 3050 -91 2638 -91 
Q 1578 -91 968 557 
Q 359 1206 359 2328 
Q 359 3453 968 4101 
Q 1578 4750 2638 4750 
Q 3056 4750 3426 4639 
Q 3797 4528 4122 4306 
z
" transform="scale(0.015625)"/>
        <path id="DejaVuSans-48" d="M 628 4666 
L 1259 4666 
L 1259 2753 
L 3553 2753 
L 3553 4666 
L 4184 4666 
L 4184 0 
L 3553 0 
L 3553 2222 
L 1259 2222 
L 1259 0 
L 628 0 
L 628 4666 
z
" transform="scale(0.015625)"/>
        <path id="DejaVuSans-49" d="M 628 4666 
L 1259 4666 
L 1259 0 
L 628 0 
L 628 4666 
z
" transform="scale(0.015625)"/>
        <path id="DejaVuSans-52" d="M 2841 2188 
Q 3044 2119 3236 1894 
Q 3428 1669 3622 1275 
L 4263 0 
L 3584 0 
L 2988 1197 
Q 2756 1666 2539 1819 
Q 2322 1972 1947 1972 
L 1259 1972 
L 1259 0 
L 628 0 
L 628 4666 
L 2053 4666 
Q 2853 4666 3247 4331 
Q 3641 3997 3641 3322 
Q 3641 2881 3436 2590 
Q 3231 2300 2841 2188 
z
M 1259 4147 
L 1259 2491 
L 2053 2491 
Q 2509 2491 2742 2702 
Q 2975 2913 2975 3322 
Q 2975 3731 2742 3939 
Q 2509 4147 2053 4147 
L 1259 4147 
z
" transform="scale(0.015625)"/>
        <path id="DejaVuSans-5f" d="M 3263 -1063 
L 3263 -1509 
L -63 -1509 
L -63 -1063 
L 3263 -1063 
z
" transform="scale(0.015625)"/>
        <path id="DejaVuSans-44" d="M 1259 4147 
L 1259 519 
L 2022 519 
Q 2988 519 3436 956 
Q 3884 1394 3884 2338 
Q 3884 3275 3436 3711 
Q 2988 4147 2022 4147 
L 1259 4147 
z
M 628 4666 
L 1925 4666 
Q 3281 4666 3915 4102 
Q 4550 3538 4550 2338 
Q 4550 1131 3912 565 
Q 3275 0 1925 0 
L 628 0 
L 628 4666 
z
" transform="scale(0.015625)"/>
        <path id="DejaVuSans-33" d="M 2597 2516 
Q 3050 2419 3304 2112 
Q 3559 1806 3559 1356 
Q 3559 666 3084 287 
Q 2609 -91 1734 -91 
Q 1441 -91 1130 -33 
Q 819 25 488 141 
L 488 750 
Q 750 597 1062 519 
Q 1375 441 1716 441 
Q 2309 441 2620 675 
Q 2931 909 2931 1356 
Q 2931 1769 2642 2001 
Q 2353 2234 1838 2234 
L 1294 2234 
L 1294 2753 
L 1863 2753 
Q 2328 2753 2575 2939 
Q 2822 3125 2822 3475 
Q 2822 3834 2567 4026 
Q 2313 4219 1838 4219 
Q 1578 4219 1281 4162 
Q 984 4106 628 3988 
L 628 4550 
Q 988 4650 1302 4700 
Q 1616 4750 1894 4750 
Q 2613 4750 3031 4423 
Q 3450 4097 3450 3541 
Q 3450 3153 3228 2886 
Q 3006 2619 2597 2516 
z
" transform="scale(0.015625)"/>
        <path id="DejaVuSans-30" d="M 2034 4250 
Q 1547 4250 1301 3770 
Q 1056 3291 1056 2328 
Q 1056 1369 1301 889 
Q 1547 409 2034 409 
Q 2525 409 2770 889 
Q 3016 1369 3016 2328 
Q 3016 3291 2770 3770 
Q 2525 4250 2034 4250 
z
M 2034 4750 
Q 2819 4750 3233 4129 
Q 3647 3509 3647 2328 
Q 3647 1150 3233 529 
Q 2819 -91 2034 -91 
Q 1250 -91 836 529 
Q 422 1150 422 2328 
Q 422 3509 836 4129 
Q 1250 4750 2034 4750 
z
" transform="scale(0.015625)"/>
       </defs>
       <use xlink:href="#DejaVuSans-43"/>
       <use xlink:href="#DejaVuSans-48" x="69.824219"/>
       <use xlink:href="#DejaVuSans-49" x="145.019531"/>
       <use xlink:href="#DejaVuSans-52" x="174.511719"/>
       <use xlink:href="#DejaVuSans-5f" x="243.994141"/>
       <use xlink:href="#DejaVuSans-44" x="293.994141"/>
       <use xlink:href="#DejaVuSans-33" x="370.996094"/>
       <use xlink:href="#DejaVuSans-30" x="434.619141"/>
      </g>
     </g>
    </g>
    <g id="xtick_2">
     <g id="line2d_2">
      <g>
       <use xlink:href="#m7d55a0b6bb" x="281.743687" y="173.52" style="fill: #262626; stroke: #262626; stroke-width: 2.5"/>
      </g>
     </g>
     <g id="text_2">
      <!-- FZD5_D30 -->
      <g style="fill: #262626" transform="translate(230.175516 196.515313) scale(0.198 -0.198)">
       <defs>
        <path id="DejaVuSans-46" d="M 628 4666 
L 3309 4666 
L 3309 4134 
L 1259 4134 
L 1259 2759 
L 3109 2759 
L 3109 2228 
L 1259 2228 
L 1259 0 
L 628 0 
L 628 4666 
z
" transform="scale(0.015625)"/>
        <path id="DejaVuSans-5a" d="M 359 4666 
L 4025 4666 
L 4025 4184 
L 1075 531 
L 4097 531 
L 4097 0 
L 288 0 
L 288 481 
L 3238 4134 
L 359 4134 
L 359 4666 
z
" transform="scale(0.015625)"/>
        <path id="DejaVuSans-35" d="M 691 4666 
L 3169 4666 
L 3169 4134 
L 1269 4134 
L 1269 2991 
Q 1406 3038 1543 3061 
Q 1681 3084 1819 3084 
Q 2600 3084 3056 2656 
Q 3513 2228 3513 1497 
Q 3513 744 3044 326 
Q 2575 -91 1722 -91 
Q 1428 -91 1123 -41 
Q 819 9 494 109 
L 494 744 
Q 775 591 1075 516 
Q 1375 441 1709 441 
Q 2250 441 2565 725 
Q 2881 1009 2881 1497 
Q 2881 1984 2565 2268 
Q 2250 2553 1709 2553 
Q 1456 2553 1204 2497 
Q 953 2441 691 2322 
L 691 4666 
z
" transform="scale(0.015625)"/>
       </defs>
       <use xlink:href="#DejaVuSans-46"/>
       <use xlink:href="#DejaVuSans-5a" x="57.519531"/>
       <use xlink:href="#DejaVuSans-44" x="126.025391"/>
       <use xlink:href="#DejaVuSans-35" x="203.027344"/>
       <use xlink:href="#DejaVuSans-5f" x="266.650391"/>
       <use xlink:href="#DejaVuSans-44" x="316.650391"/>
       <use xlink:href="#DejaVuSans-33" x="393.652344"/>
       <use xlink:href="#DejaVuSans-30" x="457.275391"/>
      </g>
     </g>
    </g>
    <g id="text_3">
     <!-- label -->
     <g style="fill: #262626" transform="translate(185.872875 221.596406) scale(0.216 -0.216)">
      <defs>
       <path id="DejaVuSans-6c" d="M 603 4863 
L 1178 4863 
L 1178 0 
L 603 0 
L 603 4863 
z
" transform="scale(0.015625)"/>
       <path id="DejaVuSans-61" d="M 2194 1759 
Q 1497 1759 1228 1600 
Q 959 1441 959 1056 
Q 959 750 1161 570 
Q 1363 391 1709 391 
Q 2188 391 2477 730 
Q 2766 1069 2766 1631 
L 2766 1759 
L 2194 1759 
z
M 3341 1997 
L 3341 0 
L 2766 0 
L 2766 531 
Q 2569 213 2275 61 
Q 1981 -91 1556 -91 
Q 1019 -91 701 211 
Q 384 513 384 1019 
Q 384 1609 779 1909 
Q 1175 2209 1959 2209 
L 2766 2209 
L 2766 2266 
Q 2766 2663 2505 2880 
Q 2244 3097 1772 3097 
Q 1472 3097 1187 3025 
Q 903 2953 641 2809 
L 641 3341 
Q 956 3463 1253 3523 
Q 1550 3584 1831 3584 
Q 2591 3584 2966 3190 
Q 3341 2797 3341 1997 
z
" transform="scale(0.015625)"/>
       <path id="DejaVuSans-62" d="M 3116 1747 
Q 3116 2381 2855 2742 
Q 2594 3103 2138 3103 
Q 1681 3103 1420 2742 
Q 1159 2381 1159 1747 
Q 1159 1113 1420 752 
Q 1681 391 2138 391 
Q 2594 391 2855 752 
Q 3116 1113 3116 1747 
z
M 1159 2969 
Q 1341 3281 1617 3432 
Q 1894 3584 2278 3584 
Q 2916 3584 3314 3078 
Q 3713 2572 3713 1747 
Q 3713 922 3314 415 
Q 2916 -91 2278 -91 
Q 1894 -91 1617 61 
Q 1341 213 1159 525 
L 1159 0 
L 581 0 
L 581 4863 
L 1159 4863 
L 1159 2969 
z
" transform="scale(0.015625)"/>
       <path id="DejaVuSans-65" d="M 3597 1894 
L 3597 1613 
L 953 1613 
Q 991 1019 1311 708 
Q 1631 397 2203 397 
Q 2534 397 2845 478 
Q 3156 559 3463 722 
L 3463 178 
Q 3153 47 2828 -22 
Q 2503 -91 2169 -91 
Q 1331 -91 842 396 
Q 353 884 353 1716 
Q 353 2575 817 3079 
Q 1281 3584 2069 3584 
Q 2775 3584 3186 3129 
Q 3597 2675 3597 1894 
z
M 3022 2063 
Q 3016 2534 2758 2815 
Q 2500 3097 2075 3097 
Q 1594 3097 1305 2825 
Q 1016 2553 972 2059 
L 3022 2063 
z
" transform="scale(0.015625)"/>
      </defs>
      <use xlink:href="#DejaVuSans-6c"/>
      <use xlink:href="#DejaVuSans-61" x="27.783203"/>
      <use xlink:href="#DejaVuSans-62" x="89.0625"/>
      <use xlink:href="#DejaVuSans-65" x="152.539062"/>
      <use xlink:href="#DejaVuSans-6c" x="214.0625"/>
     </g>
    </g>
   </g>
   <g id="matplotlib.axis_2">
    <g id="ytick_1">
     <g id="line2d_3">
      <defs>
       <path id="m2bf99d668f" d="M 0 0 
L -4.8 0 
" style="stroke: #262626; stroke-width: 2.5"/>
      </defs>
      <g>
       <use xlink:href="#m2bf99d668f" x="72.493687" y="166.854604" style="fill: #262626; stroke: #262626; stroke-width: 2.5"/>
      </g>
     </g>
     <g id="text_4">
      <!-- 0.0 -->
      <g style="fill: #262626" transform="translate(32.7055 174.377057) scale(0.198 -0.198)">
       <defs>
        <path id="DejaVuSans-2e" d="M 684 794 
L 1344 794 
L 1344 0 
L 684 0 
L 684 794 
z
" transform="scale(0.015625)"/>
       </defs>
       <use xlink:href="#DejaVuSans-30"/>
       <use xlink:href="#DejaVuSans-2e" x="63.623047"/>
       <use xlink:href="#DejaVuSans-30" x="95.410156"/>
      </g>
     </g>
    </g>
    <g id="ytick_2">
     <g id="line2d_4">
      <g>
       <use xlink:href="#m2bf99d668f" x="72.493687" y="86.104022" style="fill: #262626; stroke: #262626; stroke-width: 2.5"/>
      </g>
     </g>
     <g id="text_5">
      <!-- 0.5 -->
      <g style="fill: #262626" transform="translate(32.7055 93.626475) scale(0.198 -0.198)">
       <use xlink:href="#DejaVuSans-30"/>
       <use xlink:href="#DejaVuSans-2e" x="63.623047"/>
       <use xlink:href="#DejaVuSans-35" x="95.410156"/>
      </g>
     </g>
    </g>
    <g id="text_6">
     <!-- p_hat -->
     <g style="fill: #262626" transform="translate(23.612625 120.313125) rotate(-90) scale(0.216 -0.216)">
      <defs>
       <path id="DejaVuSans-70" d="M 1159 525 
L 1159 -1331 
L 581 -1331 
L 581 3500 
L 1159 3500 
L 1159 2969 
Q 1341 3281 1617 3432 
Q 1894 3584 2278 3584 
Q 2916 3584 3314 3078 
Q 3713 2572 3713 1747 
Q 3713 922 3314 415 
Q 2916 -91 2278 -91 
Q 1894 -91 1617 61 
Q 1341 213 1159 525 
z
M 3116 1747 
Q 3116 2381 2855 2742 
Q 2594 3103 2138 3103 
Q 1681 3103 1420 2742 
Q 1159 2381 1159 1747 
Q 1159 1113 1420 752 
Q 1681 391 2138 391 
Q 2594 391 2855 752 
Q 3116 1113 3116 1747 
z
" transform="scale(0.015625)"/>
       <path id="DejaVuSans-68" d="M 3513 2113 
L 3513 0 
L 2938 0 
L 2938 2094 
Q 2938 2591 2744 2837 
Q 2550 3084 2163 3084 
Q 1697 3084 1428 2787 
Q 1159 2491 1159 1978 
L 1159 0 
L 581 0 
L 581 4863 
L 1159 4863 
L 1159 2956 
Q 1366 3272 1645 3428 
Q 1925 3584 2291 3584 
Q 2894 3584 3203 3211 
Q 3513 2838 3513 2113 
z
" transform="scale(0.015625)"/>
       <path id="DejaVuSans-74" d="M 1172 4494 
L 1172 3500 
L 2356 3500 
L 2356 3053 
L 1172 3053 
L 1172 1153 
Q 1172 725 1289 603 
Q 1406 481 1766 481 
L 2356 481 
L 2356 0 
L 1766 0 
Q 1100 0 847 248 
Q 594 497 594 1153 
L 594 3053 
L 172 3053 
L 172 3500 
L 594 3500 
L 594 4494 
L 1172 4494 
z
" transform="scale(0.015625)"/>
      </defs>
      <use xlink:href="#DejaVuSans-70"/>
      <use xlink:href="#DejaVuSans-5f" x="63.476562"/>
      <use xlink:href="#DejaVuSans-68" x="113.476562"/>
      <use xlink:href="#DejaVuSans-61" x="176.855469"/>
      <use xlink:href="#DejaVuSans-74" x="238.134766"/>
     </g>
    </g>
   </g>
   <g id="PolyCollection_1">
    <defs>
     <path id="ma3bca86840" d="M 143.154236 -67.328531 
L 141.333139 -67.328531 
L 140.970802 -68.769421 
L 140.477664 -70.21031 
L 139.807464 -71.6512 
L 138.904958 -73.092089 
L 137.71095 -74.532978 
L 136.170431 -75.973868 
L 134.242667 -77.414757 
L 131.910997 -78.855647 
L 129.189669 -80.296536 
L 126.125442 -81.737425 
L 122.793171 -83.178315 
L 119.286541 -84.619204 
L 115.706746 -86.060094 
L 112.152402 -87.500983 
L 108.713053 -88.941873 
L 105.466655 -90.382762 
L 102.479303 -91.823651 
L 99.804206 -93.264541 
L 97.47752 -94.70543 
L 95.510906 -96.14632 
L 93.883944 -97.587209 
L 92.54181 -99.028098 
L 91.403324 -100.468988 
L 90.380871 -101.909877 
L 89.408026 -103.350767 
L 88.465486 -104.791656 
L 87.594287 -106.232546 
L 86.888738 -107.673435 
L 86.469233 -109.114324 
L 86.443687 -110.555214 
L 86.871533 -111.996103 
L 87.743386 -113.436993 
L 88.983039 -114.877882 
L 90.469594 -116.318771 
L 92.070448 -117.759661 
L 93.673186 -119.20055 
L 95.206636 -120.64144 
L 96.646741 -122.082329 
L 98.008827 -123.523219 
L 99.331895 -124.964108 
L 100.661391 -126.404997 
L 102.03499 -127.845887 
L 103.472981 -129.286776 
L 104.97297 -130.727666 
L 106.508613 -132.168555 
L 108.033051 -133.609444 
L 109.487946 -135.050334 
L 110.817589 -136.491223 
L 111.984904 -137.932113 
L 112.984146 -139.373002 
L 113.845217 -140.813892 
L 114.627179 -142.254781 
L 115.402616 -143.69567 
L 116.238127 -145.13656 
L 117.177656 -146.577449 
L 118.233921 -148.018339 
L 119.389589 -149.459228 
L 120.605944 -150.900118 
L 121.834447 -152.341007 
L 123.02688 -153.781896 
L 124.142091 -155.222786 
L 125.14989 -156.663675 
L 126.033693 -158.104565 
L 126.792678 -159.545454 
L 127.442527 -160.986343 
L 128.013042 -162.427233 
L 128.541919 -163.868122 
L 129.06611 -165.309012 
L 129.613902 -166.749901 
L 130.200663 -168.190791 
L 130.829147 -169.63168 
L 131.492704 -171.072569 
L 132.178534 -172.513459 
L 132.869028 -173.954348 
L 133.541624 -175.395238 
L 134.169507 -176.836127 
L 134.725397 -178.277016 
L 135.188622 -179.717906 
L 135.552999 -181.158795 
L 135.831754 -182.599685 
L 136.056593 -184.040574 
L 136.270541 -185.481464 
L 136.516871 -186.922353 
L 136.827944 -188.363242 
L 137.217623 -189.804132 
L 137.679383 -191.245021 
L 138.19016 -192.685911 
L 138.718067 -194.1268 
L 139.231116 -195.567689 
L 139.704191 -197.008579 
L 140.122602 -198.449468 
L 140.482051 -199.890358 
L 140.786024 -201.331247 
L 141.042191 -202.772137 
L 141.259151 -204.213026 
L 141.444343 -205.653915 
L 141.603207 -207.094805 
L 141.739294 -208.535694 
L 141.854844 -209.976584 
L 142.632531 -209.976584 
L 142.632531 -209.976584 
L 142.748081 -208.535694 
L 142.884168 -207.094805 
L 143.043032 -205.653915 
L 143.228224 -204.213026 
L 143.445184 -202.772137 
L 143.701351 -201.331247 
L 144.005324 -199.890358 
L 144.364773 -198.449468 
L 144.783184 -197.008579 
L 145.256259 -195.567689 
L 145.769308 -194.1268 
L 146.297215 -192.685911 
L 146.807992 -191.245021 
L 147.269752 -189.804132 
L 147.659431 -188.363242 
L 147.970504 -186.922353 
L 148.216834 -185.481464 
L 148.430782 -184.040574 
L 148.655621 -182.599685 
L 148.934376 -181.158795 
L 149.298753 -179.717906 
L 149.761978 -178.277016 
L 150.317868 -176.836127 
L 150.945751 -175.395238 
L 151.618347 -173.954348 
L 152.308841 -172.513459 
L 152.994671 -171.072569 
L 153.658228 -169.63168 
L 154.286712 -168.190791 
L 154.873473 -166.749901 
L 155.421265 -165.309012 
L 155.945456 -163.868122 
L 156.474333 -162.427233 
L 157.044848 -160.986343 
L 157.694697 -159.545454 
L 158.453682 -158.104565 
L 159.337485 -156.663675 
L 160.345284 -155.222786 
L 161.460495 -153.781896 
L 162.652928 -152.341007 
L 163.881431 -150.900118 
L 165.097786 -149.459228 
L 166.253454 -148.018339 
L 167.309719 -146.577449 
L 168.249248 -145.13656 
L 169.084759 -143.69567 
L 169.860196 -142.254781 
L 170.642158 -140.813892 
L 171.503229 -139.373002 
L 172.502471 -137.932113 
L 173.669786 -136.491223 
L 174.999429 -135.050334 
L 176.454324 -133.609444 
L 177.978762 -132.168555 
L 179.514405 -130.727666 
L 181.014394 -129.286776 
L 182.452385 -127.845887 
L 183.825984 -126.404997 
L 185.15548 -124.964108 
L 186.478548 -123.523219 
L 187.840634 -122.082329 
L 189.280739 -120.64144 
L 190.814189 -119.20055 
L 192.416927 -117.759661 
L 194.017781 -116.318771 
L 195.504336 -114.877882 
L 196.743989 -113.436993 
L 197.615842 -111.996103 
L 198.043688 -110.555214 
L 198.018142 -109.114324 
L 197.598637 -107.673435 
L 196.893088 -106.232546 
L 196.021889 -104.791656 
L 195.079349 -103.350767 
L 194.106504 -101.909877 
L 193.084051 -100.468988 
L 191.945565 -99.028098 
L 190.603431 -97.587209 
L 188.976469 -96.14632 
L 187.009855 -94.70543 
L 184.683169 -93.264541 
L 182.008072 -91.823651 
L 179.02072 -90.382762 
L 175.774322 -88.941873 
L 172.334973 -87.500983 
L 168.780629 -86.060094 
L 165.200834 -84.619204 
L 161.694204 -83.178315 
L 158.361933 -81.737425 
L 155.297706 -80.296536 
L 152.576378 -78.855647 
L 150.244708 -77.414757 
L 148.316944 -75.973868 
L 146.776425 -74.532978 
L 145.582417 -73.092089 
L 144.679911 -71.6512 
L 144.009711 -70.21031 
L 143.516573 -68.769421 
L 143.154236 -67.328531 
z
" style="stroke: #4c4c4c"/>
    </defs>
    <g clip-path="url(#p2f0dead30f)">
     <use xlink:href="#ma3bca86840" x="0" y="233.288531" style="fill: #224fdf; stroke: #4c4c4c"/>
    </g>
   </g>
   <g id="PolyCollection_2">
    <defs>
     <path id="m5883fb62c9" d="M 283.664814 -78.912047 
L 279.822561 -78.912047 
L 279.250257 -80.322315 
L 278.555766 -81.732582 
L 277.727325 -83.14285 
L 276.756634 -84.553117 
L 275.64042 -85.963385 
L 274.381903 -87.373652 
L 272.991931 -88.78392 
L 271.4895 -90.194187 
L 269.901413 -91.604455 
L 268.260845 -93.014722 
L 266.604752 -94.42499 
L 264.970274 -95.835257 
L 263.390543 -97.245525 
L 261.890558 -98.655792 
L 260.483956 -100.06606 
L 259.171489 -101.476327 
L 257.941826 -102.886595 
L 256.774833 -104.296862 
L 255.646969 -105.70713 
L 254.537856 -107.117397 
L 253.436629 -108.527665 
L 252.346583 -109.937932 
L 251.286817 -111.3482 
L 250.290196 -112.758467 
L 249.397765 -114.168735 
L 248.650629 -115.579003 
L 248.080973 -116.98927 
L 247.704222 -118.399538 
L 247.514128 -119.809805 
L 247.481963 -121.220073 
L 247.560089 -122.63034 
L 247.68922 -124.040608 
L 247.807923 -125.450875 
L 247.862465 -126.861143 
L 247.815086 -128.27141 
L 247.649138 -129.681678 
L 247.370204 -131.091945 
L 247.003158 -132.502213 
L 246.586018 -133.91248 
L 246.162114 -135.322748 
L 245.772409 -136.733015 
L 245.449668 -138.143283 
L 245.215502 -139.55355 
L 245.080396 -140.963818 
L 245.045973 -142.374085 
L 245.108186 -143.784353 
L 245.260169 -145.19462 
L 245.493937 -146.604888 
L 245.800871 -148.015155 
L 246.171482 -149.425423 
L 246.595225 -150.83569 
L 247.06086 -152.245958 
L 247.55747 -153.656225 
L 248.075706 -155.066493 
L 248.608697 -156.476761 
L 249.152168 -157.887028 
L 249.703714 -159.297296 
L 250.261595 -160.707563 
L 250.823606 -162.117831 
L 251.386514 -163.528098 
L 251.946225 -164.938366 
L 252.498514 -166.348633 
L 253.039893 -167.758901 
L 253.56826 -169.169168 
L 254.08312 -170.579436 
L 254.585484 -171.989703 
L 255.077656 -173.399971 
L 255.563144 -174.810238 
L 256.046741 -176.220506 
L 256.534698 -177.630773 
L 257.034808 -179.041041 
L 257.556306 -180.451308 
L 258.109595 -181.861576 
L 258.705917 -183.271843 
L 259.357005 -184.682111 
L 260.074662 -186.092378 
L 260.870034 -187.502646 
L 261.75235 -188.912913 
L 262.72712 -190.323181 
L 263.79406 -191.733448 
L 264.945358 -193.143716 
L 266.164995 -194.553983 
L 267.429605 -195.964251 
L 268.710955 -197.374518 
L 269.979551 -198.784786 
L 271.208484 -200.195054 
L 272.376558 -201.605321 
L 273.469957 -203.015589 
L 274.482194 -204.425856 
L 275.412632 -205.836124 
L 276.264193 -207.246391 
L 277.041056 -208.656659 
L 277.746953 -210.066926 
L 278.384377 -211.477194 
L 278.954679 -212.887461 
L 279.458741 -214.297729 
L 279.897817 -215.707996 
L 280.274197 -217.118264 
L 280.591488 -218.528531 
L 282.895887 -218.528531 
L 282.895887 -218.528531 
L 283.213178 -217.118264 
L 283.589558 -215.707996 
L 284.028634 -214.297729 
L 284.532696 -212.887461 
L 285.102998 -211.477194 
L 285.740422 -210.066926 
L 286.446319 -208.656659 
L 287.223182 -207.246391 
L 288.074743 -205.836124 
L 289.005181 -204.425856 
L 290.017418 -203.015589 
L 291.110817 -201.605321 
L 292.278891 -200.195054 
L 293.507824 -198.784786 
L 294.77642 -197.374518 
L 296.05777 -195.964251 
L 297.32238 -194.553983 
L 298.542017 -193.143716 
L 299.693315 -191.733448 
L 300.760255 -190.323181 
L 301.735025 -188.912913 
L 302.617341 -187.502646 
L 303.412713 -186.092378 
L 304.13037 -184.682111 
L 304.781458 -183.271843 
L 305.37778 -181.861576 
L 305.931069 -180.451308 
L 306.452567 -179.041041 
L 306.952677 -177.630773 
L 307.440634 -176.220506 
L 307.924231 -174.810238 
L 308.409719 -173.399971 
L 308.901891 -171.989703 
L 309.404255 -170.579436 
L 309.919115 -169.169168 
L 310.447482 -167.758901 
L 310.988861 -166.348633 
L 311.54115 -164.938366 
L 312.100861 -163.528098 
L 312.663769 -162.117831 
L 313.22578 -160.707563 
L 313.783661 -159.297296 
L 314.335207 -157.887028 
L 314.878678 -156.476761 
L 315.411669 -155.066493 
L 315.929905 -153.656225 
L 316.426515 -152.245958 
L 316.89215 -150.83569 
L 317.315893 -149.425423 
L 317.686504 -148.015155 
L 317.993438 -146.604888 
L 318.227206 -145.19462 
L 318.379189 -143.784353 
L 318.441402 -142.374085 
L 318.406979 -140.963818 
L 318.271873 -139.55355 
L 318.037707 -138.143283 
L 317.714966 -136.733015 
L 317.325261 -135.322748 
L 316.901357 -133.91248 
L 316.484217 -132.502213 
L 316.117171 -131.091945 
L 315.838237 -129.681678 
L 315.672289 -128.27141 
L 315.62491 -126.861143 
L 315.679452 -125.450875 
L 315.798155 -124.040608 
L 315.927286 -122.63034 
L 316.005412 -121.220073 
L 315.973247 -119.809805 
L 315.783153 -118.399538 
L 315.406402 -116.98927 
L 314.836746 -115.579003 
L 314.08961 -114.168735 
L 313.197179 -112.758467 
L 312.200558 -111.3482 
L 311.140792 -109.937932 
L 310.050746 -108.527665 
L 308.949519 -107.117397 
L 307.840406 -105.70713 
L 306.712542 -104.296862 
L 305.545549 -102.886595 
L 304.315886 -101.476327 
L 303.003419 -100.06606 
L 301.596817 -98.655792 
L 300.096832 -97.245525 
L 298.517101 -95.835257 
L 296.882623 -94.42499 
L 295.22653 -93.014722 
L 293.585962 -91.604455 
L 291.997875 -90.194187 
L 290.495444 -88.78392 
L 289.105472 -87.373652 
L 287.846955 -85.963385 
L 286.730741 -84.553117 
L 285.76005 -83.14285 
L 284.931609 -81.732582 
L 284.237118 -80.322315 
L 283.664814 -78.912047 
z
" style="stroke: #4c4c4c"/>
    </defs>
    <g clip-path="url(#p2f0dead30f)">
     <use xlink:href="#m5883fb62c9" x="0" y="233.288531" style="fill: #df7d20; stroke: #4c4c4c"/>
    </g>
   </g>
   <g id="line2d_5">
    <path d="M 142.243687 165.96 
L 142.243687 43.547216 
" clip-path="url(#p2f0dead30f)" style="fill: none; stroke: #4c4c4c; stroke-linecap: round"/>
   </g>
   <g id="line2d_6">
    <path d="M 142.243687 131.577615 
L 142.243687 96.345236 
" clip-path="url(#p2f0dead30f)" style="fill: none; stroke: #4c4c4c; stroke-width: 3; stroke-linecap: round"/>
   </g>
   <g id="line2d_7">
    <path d="M 281.743687 154.376484 
L 281.743687 14.76 
" clip-path="url(#p2f0dead30f)" style="fill: none; stroke: #4c4c4c; stroke-linecap: round"/>
   </g>
   <g id="line2d_8">
    <path d="M 281.743687 113.633994 
L 281.743687 66.118312 
" clip-path="url(#p2f0dead30f)" style="fill: none; stroke: #4c4c4c; stroke-width: 3; stroke-linecap: round"/>
   </g>
   <g id="patch_3">
    <path d="M 72.493687 173.52 
L 72.493687 7.2 
" style="fill: none; stroke: #262626; stroke-width: 2.5; stroke-linejoin: miter; stroke-linecap: square"/>
   </g>
   <g id="patch_4">
    <path d="M 351.493687 173.52 
L 351.493687 7.2 
" style="fill: none; stroke: #262626; stroke-width: 2.5; stroke-linejoin: miter; stroke-linecap: square"/>
   </g>
   <g id="patch_5">
    <path d="M 72.493687 173.52 
L 351.493687 173.52 
" style="fill: none; stroke: #262626; stroke-width: 2.5; stroke-linejoin: miter; stroke-linecap: square"/>
   </g>
   <g id="patch_6">
    <path d="M 72.493687 7.2 
L 351.493687 7.2 
" style="fill: none; stroke: #262626; stroke-width: 2.5; stroke-linejoin: miter; stroke-linecap: square"/>
   </g>
   <g id="PathCollection_1">
    <defs>
     <path id="mbed3a6e109" d="M 0 1 
C 0.265203 1 0.51958 0.894634 0.707107 0.707107 
C 0.894634 0.51958 1 0.265203 1 0 
C 1 -0.265203 0.894634 -0.51958 0.707107 -0.707107 
C 0.51958 -0.894634 0.265203 -1 0 -1 
C -0.265203 -1 -0.51958 -0.894634 -0.707107 -0.707107 
C -0.894634 -0.51958 -1 -0.265203 -1 0 
C -1 0.265203 -0.894634 0.51958 -0.707107 0.707107 
C -0.51958 0.894634 -0.265203 1 0 1 
z
" style="stroke: #4c4c4c; stroke-width: 0.8"/>
    </defs>
    <g clip-path="url(#p2f0dead30f)">
     <use xlink:href="#mbed3a6e109" x="142.243687" y="116.7511" style="fill: #ffffff; stroke: #4c4c4c; stroke-width: 0.8"/>
    </g>
   </g>
   <g id="PathCollection_2">
    <g clip-path="url(#p2f0dead30f)">
     <use xlink:href="#mbed3a6e109" x="281.743687" y="90.032212" style="fill: #ffffff; stroke: #4c4c4c; stroke-width: 0.8"/>
    </g>
   </g>
  </g>
 </g>
 <defs>
  <clipPath id="p2f0dead30f">
   <rect x="72.493687" y="7.2" width="279" height="166.32"/>
  </clipPath>
 </defs>
</svg>
